<svg id="e5jzC8VnoXb1" xmlns="http://www.w3.org/2000/svg" xmlns:xlink="http://www.w3.org/1999/xlink" viewBox="0 0 3508 2480" shape-rendering="geometricPrecision" text-rendering="geometricPrecision"><defs><linearGradient id="e5jzC8VnoXb4-fill" x1="274.03586" y1="313.44272" x2="1550.8751" y2="1279.3687" spreadMethod="pad" gradientUnits="userSpaceOnUse" gradientTransform="translate(0 0)"><stop id="e5jzC8VnoXb4-fill-0" offset="51.733333%" stop-color="#213741"/><stop id="e5jzC8VnoXb4-fill-1" offset="100%" stop-color="#1c1d31"/></linearGradient><linearGradient id="e5jzC8VnoXb16-fill" x1="1536.7852" y1="1484.1218" x2="1466.2142" y2="1673.7516" spreadMethod="pad" gradientUnits="userSpaceOnUse" gradientTransform="translate(0 0)"><stop id="e5jzC8VnoXb16-fill-0" offset="0%" stop-color="#213741"/><stop id="e5jzC8VnoXb16-fill-1" offset="100%" stop-color="#0f1524"/></linearGradient><linearGradient id="e5jzC8VnoXb27-fill" x1="1977.3157" y1="1132.7493" x2="1839.238" y2="1141.6382" spreadMethod="pad" gradientUnits="userSpaceOnUse" gradientTransform="translate(0 0)"><stop id="e5jzC8VnoXb27-fill-0" offset="63.197696%" stop-color="#213741"/><stop id="e5jzC8VnoXb27-fill-1" offset="100%" stop-color="#161626"/></linearGradient><linearGradient id="e5jzC8VnoXb28-fill" x1="1877.1932" y1="1023.1654" x2="1742.4872" y2="1211.3136" spreadMethod="pad" gradientUnits="userSpaceOnUse" gradientTransform="translate(0 0)"><stop id="e5jzC8VnoXb28-fill-0" offset="0%" stop-color="#d4cdc2"/><stop id="e5jzC8VnoXb28-fill-1" offset="100%" stop-color="#686262"/></linearGradient></defs><g id="e5jzC8VnoXb2"><g id="e5jzC8VnoXb3" transform="matrix(.991082-.148686 0.165408 1.102547-212.021788 104.99446)"><path d="M355.99,889.98c-1.37-.63-4.29-3.33-5.55-5.17-2.51-3.74-6.53-15.65-8.04-23.83-1.57-8.64-2.99-27.09-2.83-37.09.17-10.02,2.06-29.5,3.78-39.83c1.53-8.38,5.27-25.71,7.48-34.66c4.85-18.27,17.83-59.06,20.44-70.76c1.49-6.73,2.79-17.19,2.59-20.91-.16-2.4-1.41-6.58-3.28-7.54-1.06-.49-3.8-.46-5.48.06-3.56,1.18-10.28,5.81-18.24,12.05-9.28,7.17-16.75,10.92-18.79,11.3-1.08.15-.89-2.55.42-5.14c1.23-2.35,32.74-50.7,39.65-60.46c7.84-11.06,24.77-34.95,33.85-47.77c10.32-14.54,31.49-43.92,42.53-57.56c5.55-6.62,16.75-19.27,22.39-25.3c5.68-5.82,17.12-16.88,22.89-22.11c5.95-5.23,19.09-15.26,25.81-20c6.76-4.56,20.43-12.79,27.35-16.47c7.85-4.01,20.99-9.84,28.11-12.46c7.57-2.78,44.15-13.21,59.64-17c15.89-3.49,44.83-8.98,62.96-11.32c15.02-1.66,45.99-4.26,61.95-5.19c16.26-.69,49.46-1.31,65.79-.71c16.24.86,48.05,4.37,63.62,7.02c12.28,2.31,18.78,3.82,31.09,7.25c15.55,4.62,46.04,15.81,61,22.37c7.44,3.42,22.18,10.68,29.49,14.52c7.15,3.97,20.9,12.34,27.48,16.73c6.45,4.5,18.67,13.97,24.45,18.95c5.68,5.05,16.38,15.63,21.4,21.16c6.17,7.02,14.1,17.7,18.36,24.07c4.18,6.45,11.88,19.86,15.41,26.83c3.44,7.04,9.06,20.16,12.47,29.19c4.14,11.95,13.81,47.22,18.02,62.99c3.96,15.37,11.65,45.71,15.37,60.68c7.45,32.52,21.99,95.98,29.08,126.92c3.59,14.51,10.85,42.83,14.52,56.64c4.3,15.5,13.82,46.63,18.85,61.51c2.61,7.22,7.95,21.5,10.86,28.56c3.12,7.06,9.96,21.17,13.68,28.22c9.49,17.07,23.06,37.44,34.74,52.61c9.8,12.31,31.98,37.17,43.92,49.58c14.32,14.15,35.51,33.35,47.1,42.76c8.59,6.73,15.8,11.97,26.27,18.94c7.32,4.63,21.88,13.06,29.1,16.87c9.82,4.9,42.84,18.2,57.05,23.42c14.17,4.89,45.45,14.72,61.51,19.39c15.75,4.29,45.21,12.51,58.91,16.45c6.98,2.16,23.27,7.32,30.62,10.32c3.3,1.36,9.85,4.51,11.54,6.22c2.02,2.12,4.17,8.24,4.29,12.21.09,4.2-.88,9.48-2.06,13.27-1.47,4.52-5.15,13.28-8.78,20.88-3.12,6.11-12.78,23.51-14.69,26.53-2.23,3.51-7.53,10.07-10.54,13.04-3.03,2.95-9.83,8.28-13.61,10.66-3.79,2.36-12.13,6.5-16.68,8.28-9.25,3.59-25.92,7.27-34.38,8.36-5.1.59-19.91,1.55-26.98,1.73-7.28,0-22.5-.49-30.43-.99-16.3-1.33-47.99-5.78-71.04-9.98-17.9-3.44-52.06-10.19-68.33-13.51-14.65-3.19-49.26-10.97-58.1-13.25-10.77-2.94-31.22-8.76-40.2-11.58-8.26-2.79-23.76-8.59-28.75-10.86-11.34-5.42-35.27-17.79-47.89-24.74-7.24-4.09-37.88-23.65-50.9-32.12-18.3-12.25-40.76-28.36-53.06-38.34-5.98-5.04-20.44-18-22.92-20.46-2.75-2.74-16.22-17.61-21.32-23.64-4.94-6.1-14.36-18.54-18.83-24.88-8.48-12.57-24.37-39.27-31.49-52.87-5.37-10.65-19.07-42.01-24.74-56.54-5.32-14.86-15.17-41.6-22.61-59.26-8.31-18.27-21.29-43.31-29.67-57.5-8.65-14.13-27.58-41.63-36.58-53.96-4.32-5.64-12.83-16.5-16.92-21.47-4.42-5.33-17.85-18.74-23.81-23.72-5.99-4.97-17.3-12.32-23.84-15.35-6.59-3.03-22.61-8.14-28.88-9.24-4.85-.84-19.18-2.6-26.09-3.17-14.15-.85-46.69-.57-63.95.14-24.67,1.53-50.75,4.54-66.56,6.44-16.93,2.37-50.85,7.46-67.85,10.19-15.49,2.87-43.36,8.87-61.06,13.31-8.84,2.47-25.67,7.77-31.39,9.98-6.6,2.57-18.56,8.57-24.61,12.37-6.03,3.8-18.67,13.37-25.22,19.2-6.8,6.08-20.25,20.36-26.95,27.67-3.12,3.25-9.18,8.15-11.91,9.62-5.48,2.88-10.94,1.71-12,1.25Z" fill="url(#e5jzC8VnoXb4-fill)" stroke-width="10" stroke-linecap="round"/></g><g id="e5jzC8VnoXb5"><path d="M1540.4,1574.79c-2.56,3.39-6.75,11.36-7.55,14.34-1.09,4.29-1.55,15.36-1.11,26.27.1,3.44.33,13.06.28,14.31-.16,3.79-2.24,11.96-4.13,16.23-2.94,6.56-11.65,19.07-16.43,24.57-4.82,5.51-14.56,15.02-23.48,22.99-6.59,5.63-20.1,16.34-27.01,21.43-7.01,4.92-21.33,14.34-28.65,18.82-10.17,5.91-47.38,26.12-50.71,28.16-4.82,2.97-10.71,7.74-12.1,9.83-1.62,2.57-3.19,9.87-3.04,13.01.33,6.47,2.52,20.68,4.52,29.28c2.45,10.42,7.12,24.4,9.79,31.96c4.61,12.47,9.32,23.51,13.46,29.83c1.92,2.9,6.68,8.74,9.67,11.42c3.16,2.78,10.17,7.27,13.95,8.94c3.43,1.49,11.85,3.89,15.31,4.55c3.47.64,9.97,1.04,12.16.75c4.06-.57,10.44-3.49,12.76-5.82c3.18-3.49,7.9-6.9,11.56-8.19c5.64-1.92,18.3-3.17,25.47-2.8c19.93,1.24,45.03,1.67,66.28,1.13c16.09-.64,49.33-2.25,66.05-3.55c22.64-2.23,47.98-6.05,63.38-8.91c15.51-3.22,44.93-11.05,60.43-16.22c16.22-5.71,43.43-17.35,57.35-23.85c14.2-7.01,43.03-22.34,57.11-30.35c13.82-8.21,35.03-21.52,54.49-35.24c13.25-9.77,41.55-32.17,50.75-40.22c5.55-5.03,15.95-14.99,20.8-19.92c6.8-7.22,16.07-18.67,21.02-26c4.97-7.39,11.69-20.03,15.58-29.04c2.95-6.99,7.13-19.21,8.95-26.15.84-3.17,1.31-11.69,1.15-15.46-.19-3.98-1.42-11.53-2.46-15.09-1.03-3.45-4.01-10.43-5.89-13.81-4.3-7.63-11.12-15.34-16.6-19.95-3.93-3.3-12.27-9.32-17.84-12.89-6.51-4.03-18.22-9.32-27.66-12.37-21.02-6.73-57.14-13.43-70.06-15.74-14.75-2.3-46.07-6.89-62.64-9.19-18.4-2.28-55.72-6.6-73.9-8.15-17.43-1.06-50.22-1.86-65.2-1.35-7.31.38-21.36,1.5-28.1,2.24-9.35,1.11-30.93,5.56-40.54,8.55-9.59,3.01-26.41,10.55-33.64,15.09-6.44,4.06-19,14.75-24.73,19.66-10.02,8.88-27.87,25.69-28.8,26.9Z" fill="#213741" stroke="#213741" stroke-width="10" stroke-linecap="round"/><path d="M1375.54,1768.99c-1.53-.6-6.17-.69-8.83-.17-5.35,1.11-19.2,7.69-28.58,13.57-8.41,5.4-23.82,16.04-30.83,21.29-8.47,6.63-19.68,17.08-24.93,22.94-5.35,6.01-13.29,17.29-16.99,23.96-3.53,6.4-10.17,21.39-12.4,28.07-2.3,7.05-6.32,22.15-8.12,30.07-1.64,8.18-4.47,25.61-5.09,32.18-.7,7.54-.85,23.07.13,30.42c1.22,8.83,5.58,22.72,9.44,30.75c3.26,6.73,10.96,19.18,15.89,24.94c5.15,5.97,16.94,16.58,23.17,20.75c3.2,2.12,10.73,6.34,13.31,7.46c5.88,2.54,21.83,6.44,30.14,7.4c7.85.88,23.02.89,30.61-.49c4-.74,11.95-2.88,15.46-4.14c3.83-1.41,10.17-4.88,12.9-7.06c2.89-2.35,6.78-7.05,8.61-10.28c1.62-2.93,4.12-9.57,4.95-13.18c3.73-16.35,10.86-55.98,12.26-61.04c2.22-7.92,9.47-24.05,13.13-30.53c4.33-7.59,15.89-23.75,18.02-28.67c1.24-2.92,2.04-7.95,1.59-9.79-.35-1.27-1.57-3.35-2.56-4.28-1.99-1.77-8.03-3.79-13.16-4.36-5.61-.62-13.2-2.34-17.16-3.87-3.03-1.2-11.29-5.72-13.43-7.19-2.82-1.95-8.08-6.57-10.54-9.26-2.72-3.01-6.83-8.83-8.55-12.36-1.67-3.53-4.12-11.6-4.81-15.86-1.3-8.3-1.18-24.78.2-34.35.47-3.24,2.78-15.53,3.05-19.15.28-4.15-.58-10.62-1.73-12.95-1.21-2.32-4.05-4.37-5.15-4.82Z" fill="#d4cdc1" stroke="#d4cdc2" stroke-width="10" stroke-linecap="round"/><path d="M1260.24,2018.81c5.49.83,21.23,3.23,27.77,2.6c4.1-.42,11.79-2.42,15.34-3.8c3.36-1.33,10.07-4.79,13.53-6.98c3.88-2.49,9.26-7.47,11.42-10.61c2.15-3.2,4.86-10.26,5.53-14c.61-3.63.76-11.4.3-15.68-.61-5.39-7.58-34.15-8.15-36.49" fill="none" stroke="#9e9d9b" stroke-width="10" stroke-linecap="round"/><path d="M1332.05,2063.31c4.86-2.23,20.84-9.55,24.62-11.68c7.38-4.2,19.66-14.46,24.68-20.39c2.46-2.93,7.17-9.58,8.86-12.66c1.78-3.3,4.25-9.98,4.99-13.5.74-3.67,1.01-11.7.38-16.03-.82-5.42-6.94-22.38-8.91-27.89" fill="none" stroke="#a0a0a0" stroke-width="10" stroke-linecap="round"/></g><g id="e5jzC8VnoXb10"><g><path d="M1174.27,1407.91c.78-1.07-.98-4.75-3.39-7.07-3.1-2.78-9.3-8.52-12.64-12.63-5.26-6.55-13.14-20.73-16.33-28.04-3.54-8.17-8.65-23.57-10.29-31.49-1.53-7.51-2.92-23.46-2.54-31.25.2-3.85,1.18-11.94,1.86-15.36.78-3.78,3.17-11.22,4.79-14.83c1.63-3.61,5.81-10.79,8.2-14.08c4.53-6.2,17.28-18.69,24.9-24.4c1.35-1.01,27.77-19.74,29.71-21.12-11.52-1.6-39.94-5.43-60.68-7.08-6.36-.42-53.18-1.4-60.65-.95-8.12.52-24,2.97-31.77,4.9-7.84,1.98-22.85,7.53-30.22,11.07-7.35,3.56-20.47,11.43-28.65,17.16-8.01,5.86-19.86,15.33-24.61,19.62-6.4,5.8-15.74,15.9-20.93,23.08-4.76,6.62-11.85,19.85-14.44,26.87-2.5,6.89-5.82,22.28-6.19,28.73-.34,6.32,1.15,23.01,2.78,31.07c1.68,8.22,6.58,23.91,9.65,30.83c1.54,3.45,5.44,10.88,6.79,12.94c4.11,6.27,15.8,18.3,22.16,22.82c6.05,4.25,19.72,11.53,26.91,14.33c6.42,2.47,23.05,6.1,31.31,6.92c4.53.43,12.26.6,16.22.3c3.92-.31,11.36-1.66,15.11-2.74c3.64-1.08,11.16-4.42,14.71-6.44c7.26-4.2,21.67-17.02,26.33-20.62c2.95-2.27,7.79-5.53,11.1-7.49c5-2.9,11.57-5.46,14.77-5.77c3.64-.31,46.24,2.67,49.58,2.53c3.35-.18,6.03-1.31,6.45-1.81Z" fill="#d4cdc1" stroke="#d4cdc2" stroke-width="10" stroke-linecap="round"/><path style="mix-blend-mode:multiply" d="M922.42,1328c1.52,1.88,5.21,6.47,7.39,9.18c3.9,4.89,8.74,9.87,12.65,12.56c3.56,2.41,10.97,5.76,14.53,6.89c3.28,1.02,10.37,2.5,14.24,2.97c4.47.53,11.98.7,15.96.19c3.95-.54,11.72-2.85,15.44-4.58c3.61-1.71,10.3-5.99,13.43-8.49c6.36-5.15,14.73-14.84,23.71-26.54c4.11-5.34,9.66-12.56,11.1-14.43" fill="none" stroke="#d4cdc1" stroke-width="10" stroke-linecap="round"/><path style="mix-blend-mode:multiply" d="M965.91,1431.17c5.44.76,26.59,3.74,27.63,3.87c4.64.56,13.63.92,17.87.71c4.19-.22,12.31-1.47,16.24-2.53c3.98-1.1,11.5-4.23,14.98-6.23c6.2-3.62,18.18-14.57,22.46-20.3c2.35-3.19,6.58-10.88,8.14-15.32c1.5-4.39,4.27-20.91,4.95-24.93" fill="none" stroke="#d4cdc1" stroke-width="10" stroke-linecap="round"/></g><g><path d="M1172.24,1404.87c3.23,2.5,10.06,6.77,13.12,8.21c5.53,2.57,17.05,3.86,23.82,7.28c6.37,3.28,21.12,14.08,25.79,17.7c9.79,7.92,32.68,28.96,45.27,41.14c6.45,6,19.59,17.57,26.28,23.14c6.77,5.43,20.55,15.87,27.55,20.87c13.15,8.86,40.58,25.02,54.87,32.32c11.11,5.43,43.95,19.63,58.73,25.37c18.01,6.47,46.13,15.16,62.36,19.53c16.32,3.9,48.55,10.28,64.37,13.22c14.08,2.5,38.76,6.83,63.65,10.42c16.43,2.09,53.05,6.43,57.6,6.28c5.59-.21,20.52-2.91,25.32-4.53c10.23-3.49,17.33-6.46,26.22-13.72c4.39-3.61,15.18-15.55,19.83-21.06c4.89-6.02,17.43-22.2,20.44-26.71c4.81-7.22,12.47-21.98,15.34-29.51c2.55-6.78,5.85-19.9,6.78-26.18.91-6.28,1.49-19.03,1.16-25.52-.38-6.95-2.73-20.69-4.99-29.01-2.29-8.35-8.35-25.46-13.28-37.81-5-11.78-19.93-43.1-27.69-58.27-17.63-32.64-51.72-92.61-66.38-118.34-2.55-4.47-6.19-10.89-7.29-12.83-9.32-.76-30.21-2.45-53.86-3.5-30.5-.63-94.27-1.55-127.52-1.84-34.23-.45-103.11-1.87-137.76-2.83-34.31-1.7-95.07-5.03-121.53-6.66-30.15-2.13-61.16-4.32-62.01-4.39-4.22,2.77-14.59,9.53-20.75,13.54-10.48,6.8-22.04,15.88-27.87,22.15-6.01,6.51-14.18,19.48-17.11,26.35-2.96,7-6.85,22.63-7.45,30.17-.57,7.82,1.16,23.73,3.39,31.19c1.97,6.48,8.89,20.94,13.39,27.96c4.42,6.88,15.74,20.86,21.08,27.03c5.85,6.49,15.59,16.07,19.13,18.84Z" fill="url(#e5jzC8VnoXb16-fill)" stroke-width="10" stroke-linecap="round"/></g></g><g id="e5jzC8VnoXb17"><path d="M2461.23,1354.8c-14.41,9.67-36.14,22.61-46.48,27.7-10.31,5.03-28.36,11.43-36.11,12.79-5.01.85-50.14,1.93-54.4,2.02c14.7-17.23,49.27-57.76,69.14-81.06c25.04-29.35,77.85-91.27,105.62-123.82c23.1-27.09,64.13-75.19,82.06-96.22c7.03-8.23,15.61-18.3,17.17-20.12c28.42,4.68,94.24,15.52,131.65,21.68c6.46,1.06,18.11,2.98,23.29,3.83-15.99,14.65-54.03,49.5-76.07,69.69-28.09,25.74-86.72,79.1-115.52,104.37-13.53,11.45-39.71,33.16-52.36,43.42-28.28,21.77-46.68,34.82-47.99,35.72Z" fill="#213741" stroke="#213741" stroke-width="10" stroke-linecap="round"/><path d="M2600.01,1243.32c13.96-12.14,41.75-36.73,55.57-49.17c26.68-25.18,72.39-68.59,91.41-86.82c3.26-3.12,7.24-6.93,7.96-7.62c27.88,2.29,95.19,7.8,134.61,11.04c13.95,1.14,33.08,2.71,38.28,3.13.86,5.16,3.52,21.04,3.06,26.9-.41,4.76-2.73,13.98-4.22,18.07-2.67,7.15-9.79,20.75-15.7,30.03-4.3,6.69-11.45,17.85-14.32,22.31-20.91,7.28-69.27,24.09-96.72,33.64-33.99,11.82-108.29,37.65-148.59,51.67-38.08,13.24-107.7,37.45-139.24,48.42-25,8.69-62.3,21.66-74.61,25.94c17.58-13.3,62.6-47.51,90.05-68.41c29.2-23.18,65.28-53.06,72.46-59.13Z" transform="translate(.000001 0)" fill="#d4cdc1" stroke="#d4cdc2" stroke-width="10" stroke-linecap="round"/><path d="M2927.84,1111.99c1.04-1.69,5.79-6.25,8.9-8.48c3.19-2.26,10.95-6.75,14.9-8.6c3.9-1.8,12.04-4.72,16.23-5.76c9.49-2.29,34.2-3.49,36.5-3.61c0,0,101.09-53.85,101.09-53.85-4.85,14.05-18.58,52.92-22.75,60.27-1.18,2.06-4.54,6.38-5.6,7.75c0,0,88.81-24.56,88.81-24.56-8.4,8.66-32.52,33.54-43.17,42.17-7.05,5.69-21.88,15.76-29.67,20.15-11.8,6.61-42.92,19.25-53.76,23.65c5.48,1.25,23.49,5.37,28.21,5.98c9.15,1.15,27.3.17,36.18-1.59c6.7-1.35,33.51-9.38,35.76-10.06-2.48,3.75-10.59,16.11-13.99,19.18-6.98,6.19-20.66,12.75-30.27,16.48-10.06,3.67-44.65,14.4-63.12,19.49-21.61,5.45-50.25,11.31-63.8,13.12-11.36,1.31-31.82,1.75-40.73-.05-5.62-1.17-19.63-7.69-24.73-10.06-1.86-.86-4.47-2.07-5.22-2.42c3.12-4.83,13.99-21.67,15.8-24.63c4.65-7.63,12.72-23.86,14.97-31.12c1.17-3.84,2.43-11.24,2.56-14.52.1-3.18-.94-11.53-2.17-14.48-.5-1.23-2.73-5.77-2.95-7.07-.27-1.77.76-5.22,2.02-7.38Z" fill="#213741" stroke="#213741" stroke-width="10" stroke-linecap="round"/></g><g><path d="M1616.99,1437.05c-.24-1.27-12.37-84.07-13.77-97.35-.7-8.55-1.48-25.58-1.37-31.83.14-7.16,1.69-22.27,3.9-29.87c1.41-4.74,4.95-13.03,7.09-16.57c2.16-3.52,7.24-9.38,10.11-11.68c4.7-3.69,18.16-11.45,24.37-14.06c6.34-2.65,20.25-6.32,27.68-7.29c7.57-.95,23.99-.86,30.54-1.79c7.9-1.17,23.12-6,30.46-9.23c6.13-2.72,18.75-9.82,25.24-14.19c5.55-3.76,19.71-14.8,26.24-19.98c12.71-10.6,36.37-31.83,47.21-42.31c10.59-10.74,31.77-33.8,42.61-45.87c21.69-25.22,65.13-76.48,86.87-102.5c8.89-11.13,33.79-43.75,37.96-50.34c2.3-3.62,5.48-7.3,7.82-8.99c2.29-1.62,7.72-3.83,10.14-3.92c5.16-.12,17.24,2.39,23,4.8c3.35,1.44,10.44,6.05,14.1,9.18c7.56,6.52,16.51,17.6,22.06,25.49c7.03,10.44,22.09,36.17,30,50.8c7.94,15.42,23.2,47.12,30.52,63.39c6.76,15.97,19.71,47.64,25.91,63.35c5.94,16.15,17.56,48.68,22.68,64.39c4.51,14.94,11.85,42.69,14.37,55.11c2.56,12.85,5.12,31.75,5.5,40.44.29,7.06-.6,23.07.41,29.19.52,3,2.22,8.39,3.4,10.78c1.15,2.29,4.28,6.58,6.24,8.19c2.07,1.67,6.8,4.26,9.59,5.25c5.62,1.95,19.53,3.21,28.6,2.69c8.41-.51,26.68-3.44,36.77-5.9c9.14-2.24,42.88-14.62,57.93-20.8c18.98-8.32,45.58-21.55,59.27-29.45c6.68-4.02,20.43-12.96,27.43-17.86c6.76-4.97,19.54-15.1,25.56-20.27c22.54-20.9,58.83-54.17,74.95-68.25c8.09-6.77,24.36-20.23,29.17-23.29c2.42-1.52,5.72-2.85,6.58-2.64.86.24.89,1.76.37,3.19-1.43,3.79-13.53,22.27-25.22,38.34-5.64,7.38-18.56,23.39-25.37,31.66-15.48,17.97-40.61,45.65-50.56,56.34-10.92,11.43-33.75,35.02-45.66,47.19-25.58,25.48-73.36,72.63-95.55,94.31-9.48,9.11-34.33,32.2-49.7,46.18-15.21,13.17-33.5,27.53-43.43,35.13-11.52,8.46-32.66,23.86-46.65,32.86-12.35,7.77-38.39,23.9-52.07,32.27-14.45,8.57-43.55,24.72-58.19,32.29-20.04,9.86-42.54,19.45-56.33,24.94-13.92,5.23-49.87,17.51-56.6,18.92-7.46,1.53-23.23,2.72-31.54,2.38-8.32-.37-25.83-2.98-35.02-5.22-9.94-2.45-21.8-6.49-31.55-10.37-13.03-5.52-40.46-19.48-54.86-27.91-7.29-4.42-22.23-13.99-29.77-18.93-15.48-10.71-46.13-33.22-60.96-44.24-24.2-18.51-57.76-44.53-67.13-52.03-4.82-3.97-19.71-19.2-24.43-25.1-4.67-5.87-8.01-12.97-9.95-19.61-1.2-4.17-6.62-27.55-6.97-29.41Z" fill="#213741" stroke="#213741" stroke-width="10" stroke-linecap="round"/><path d="M1716.27,1223.6c-1.7,2.18-2.8,7.44-2.16,10.35c1.14,4.8,11.46,21.96,16.88,29.12c8.93,11.36,29.15,36.5,40.45,50.28c10.74,12.66,30.66,35.19,44.94,49.01c7.85,7.22,16.34,14.23,22.19,17.97c5.74,3.66,18.08,9.65,25.67,12.2c7.05,2.34,19.45,5.14,30.43,6.96c23.38,3.43,41.39,5.09,61.9,5.64c7.7.13,23.46-.73,28.99-1.59c7.23-1.14,23.33-5.7,30.74-8.68c3.45-1.4,8.72-3.89,12.48-5.89c3.12-1.67,9.48-7.36,11.97-10.67c1.32-1.81,3.1-5.13,3.5-6.63.36-1.59-.02-4.77-.75-6.2-1.39-2.54-6.19-5.68-8.37-7.11-4.13-2.57-17.53-9.64-24.84-13.2-8.06-3.73-25.54-11.6-33.91-15.59-8.03-4.02-23.07-12.13-30.08-16.22-9.97-6.17-22.4-14.65-29.05-20.03-6.63-5.4-14.97-13.68-22.43-21.95-9.77-11.18-29.15-36.17-38.31-49.91-28.5-45.78-35.57-55.19-42.2-63.63-10.09,8.91-37.34,32.86-48.64,40.43-8.11,5.41-23.67,13.81-30.99,16.13-5.02,1.5-10.03,3.37-12.55,4.74-2.24,1.25-5.32,3.8-5.86,4.47Z" fill="#d4cdc1" stroke="#d4cdc2" stroke-width="10" stroke-linecap="round"/><path d="M2269.49,1508.9c-2.51,1.39-6.88,2.81-8.55,2.62-1.95-.26-10.01-7.42-10.88-8.24-.98-.94-9.39-9.64-10.55-10.95-2.27-2.61-6.21-8.76-6.99-12.33-.35-1.77-.27-5.73.26-6.96.75-1.58,3.83-3.6,6.54-4.54c1.99-.65,9.99-1.52,14.32-1.52c1.37.01,13.89.27,18.04.08c3.3-.16,12.86-1.35,15.15-2.24c1.06-.42,7.02-4.11,11.82-6.04c7.56-3,21.46-6.89,23.28-6.25.98.39,1.28,2.3.76,3.69-.81,1.97-9.31,11.92-17.77,20.76-18.02,18-34.68,31.5-35.43,31.92Z" fill="#d4cdc1" stroke="#d4cdc2" stroke-width="10" stroke-linecap="round"/><path d="M2044.76,931.04c-.78-.07-1.6,1.04-1.45,2.17.83,5.12,9.69,17.51,15.57,24.44c3.99,4.48,16.83,18.07,18.14,19.56c5.21,5.98,16.14,21.55,23.33,33.25c6.52,11.21,20.39,37.01,27.73,51.61c7.51,15.79,21.94,46.99,28.37,61.93c5.95,14.47,18.04,46.29,23.57,62.5c4.99,15.71,12.46,44.95,15.16,59.36c1.19,7.17,3.21,22.35,4.18,30.39.83,8.94,1.88,26.66,2.08,35.45c0,15.18.25,25.17,1.04,31.92.41,3.35,1.51,9.42,2.21,12.13.92,3.43,3.11,8.88,5.08,11.68c2.03,2.82,7.11,6.63,10.09,7.59c4.77,1.44,24,1.32,34.05-.08c4.58-.65,46.26-10.31,58.03-13.6c8.07-2.46,23.77-7.86,31.4-10.8c10.43-4.33,21.73-9.92,28.62-13.56c6.76-3.79,19.9-11.78,26.28-15.99c12.56-8.79,37.75-26.69,50.38-35.79c12.9-9.62,38.64-29.05,51.5-38.85c6.06-4.86,17.87-14.52,23.62-19.32c6.05-5.2,20.26-18.67,27.11-25.54c12.12-12.69,24.98-27.89,25.17-28.65.22-1.1-2.38-.79-4.99.57-2.25,1.2-30.76,19.23-34.72,21.5-1.28.73-17.61,8.84-23.77,11.82-6.6,3.03-20.8,9.45-27.74,11.09-7.8,1.79-25.61,2.56-35.28,1.53-6.87-.75-18.98-3.06-26.06-4.79-6.39-1.71-19.65-5.82-26.52-8.22-7.04-2.63-21.61-8.57-29.13-11.89-7.56-3.52-22.68-11.18-30.23-15.31-7.55-4.33-22.64-13.59-30.18-18.53-15.25-10.38-40.97-30.45-53.21-40.73-12.24-10.82-36.71-34.05-48.93-46.46-11.95-12.45-34.98-36.17-46.07-47.44-10.23-10.04-33.09-31.98-45.72-43.87-8.37-7.5-23.79-20.56-30.85-26.11-7.58-5.71-36.47-24.77-37.86-24.96Z" fill="#d4cdc1" stroke="#d4cdc2" stroke-width="10" stroke-linecap="round"/></g><g id="e5jzC8VnoXb26" transform="translate(5.240114-4.753896)"><path d="M1919.4255,861.55599l-2.2136,5.35482c-9.1785,22.18633-31.9589,77.17188-45.5485,109.96093v.00814.00814c-8.1651,19.80669-23.497,57.65928-30.7047,75.81378l-.0245.0489-.0162.0488c-5.9603,15.914-16.8637,45.8525-21.2972,59.082l-.0163.0488-.0163.0407c-.9496,3.0215-2.6275,8.5114-4.0934,13.3627-.733,2.4257-1.406,4.6886-1.9124,6.3964-.2531.8539-.4633,1.569-.6185,2.1078s-.1526.2497-.3662,1.3835v.0162.0163c-1.2775,7.0145-1.7049,17.557-.4558,23.7305l.0082.0325.0162.0326c.6526,3.0078,1.7815,6.2159,3.4099,8.8948l.0162.0326.0163.0244c.7609,1.219,1.0559,1.3474,1.6358,1.945s1.28,1.2874,2.0914,2.067c1.6228,1.5592,3.6696,3.4664,5.7618,5.4037c4.1844,3.8746,8.7988,8.1459,9.6842,9.0739c1.4041,1.4662,5.1069,4.9154,9.0983,8.5856c1.9956,1.8351,3.9771,3.6401,5.5827,5.0618.8028.7109,1.5089,1.3194,2.0996,1.8148s.7085.7082,1.7985,1.3428l.0488.0326.057.0325c3.2094,1.7629,5.8532,2.1946,9.3099,2.0264h.0488.0488c3.2556-.2197,6.3797-1.3034,8.6752-3.3366l.0244-.0163.0244-.0244c-.5761.5236.0256-.015.236-.1953.2107-.1804.5128-.4473.9033-.7813.781-.6681,1.9017-1.6259,3.2715-2.7995c2.7394-2.3471,6.4824-5.5622,10.5794-9.0983c8.1939-7.0721,17.7509-15.3911,23.4864-20.638l.0325-.0244.0326-.0325c12.9712-12.2789,40.0422-38.3107,53.483-51.9939l.0407-.0407.0407-.0488c12.4707-13.3015,34.179-38.281,43.4896-50.4476l.0326-.0407.0244-.0406c6.2008-8.4343,15.501-22.1184,21.053-32.0476v-.0081-.0163c5.683-10.2421,12.9927-27.7019,15.3239-37.06054v-.01627-.01628c.5007-2.05811.9865-5.46412,1.6927-10.36784s1.5286-10.93317,2.3112-16.82129c1.5652-11.77622,3.0134-23.23397,3.0355-23.40494l.4069-3.18197-2.7099-1.70085c-25.5545-16.00537-80.9969-50.41679-110.9375-68.83951l-.0245-.01628-.0162-.01628c-4.8828-2.93171-11.3713-6.81496-12.9965-7.78808l-4.9641-2.97038Z" fill="url(#e5jzC8VnoXb27-fill)" stroke-linecap="round"/><path d="M1704.2725,716.19466l-2.2543,5.70475c-.9203,2.32853-2.296,5.85069-3.5888,8.98438-.6463,1.56685-1.2743,3.03544-1.7904,4.1748-.506,1.117-1.0351,2.03454-.9033,1.84733-.142.19041-3.7242,3.64944-4.8177,4.35385-2.2693,1.40469-11.4053,4.67417-14.6485,5.3955-6.0716,1.3027-22.7706,2.76748-34.5215,2.86459-15.2858.09-31.6354.19251-32.9264.20345l-8.667.0732l4.3946,7.46256c11.6383,19.76325,40.8543,69.91568,59.9039,104.65495l.01.008c8.544,16.20048,24.3049,46.47142,31.5348,60.57129c15.5217,31.21315,45.1291,91.72499,59.1797,120.91469c5.621,12.0503,19.6276,42.6547,28.011,61.1979c6.5868,15.6645,15.623,38.2388,20.809,48.6003l.016.049.024.041c3.9329,7.4814,12.4943,20.1228,18.7255,26.9938l.01.01.01.016c3.2363,3.5259,7.441,7.1116,11.2712,10.0342c1.9151,1.4612,3.7225,2.7475,5.306,3.7598s2.5009,1.7395,4.5817,2.2949l.049.01.049.016c3.0637.7498,5.2295.2261,7.8858-.3011s5.1926-1.1904,7.5683-2.5798l.024-.016.024-.016c3.3097-1.9892,7.2877-5.7527,11.9791-10.1969s9.2619-9.0285,11.7188-12.0769l.033-.041.033-.041c3.6938-4.7737,10.8331-14.1632,17.513-23.1446s12.6266-17.0424,14.8682-20.9066v-.01-.01c4.6137-7.9993,11.7199-24.7581,15.0146-35.1807v-.01-.016c3.2085-10.2279,6.7276-25.5759,8.7809-36.2386l.01-.049.01-.049c2.7149-15.7461,6.2087-46.5406,7.8125-69.20568l.01-.0814v-.0732c1.3802-35.84517,3.3624-88.72927,3.9632-105.80241l.098-2.81576-2.36-1.54622c-20.4926-13.39168-71.2957-46.55971-101.5951-66.34928-34.5886-22.58915-94.5695-61.75399-119.9707-78.34473h-.016c-4.8208-3.15703-13.8457-9.04974-18.0339-11.79199l-5.1382-3.34237Z" fill="url(#e5jzC8VnoXb28-fill)" stroke-linecap="round"/><path d="M1659.34,750.62c-12.96,2.01-40.57,2.71-48.2,1.84-3.71-.44-10.57-2.21-13.53-3.31-3.05-1.16-8.47-3.99-11.05-5.79-5.31-3.76-18.03-15.63-24.6-22.58-9.58-10.45-34.47-39.29-42.58-49.58-4.85-6.4-15.3-21.18-18.14-25.78-5.12-8.31-12.2-22.61-14.96-30.15-8.95-25.4-19.87-60.54-20.91-63.93c0,0,94.33,74.4,94.33,74.4-6.98-10.36-24.33-36.15-33.95-51.11-4.24-6.93-14.15-24.34-16.77-29.67-3.81-7.85-7.55-18.44-10.33-27.51-4.54-16.22-9.03-41.39-10.69-51.13c21.3,22.26,64.99,67.89,87.36,91.27.55.57,1.1,1.15,1.65,1.72c0,0,3.98-62.44,3.98-62.44c7.5,10.69,28.31,40.28,37.1,50.08c5.46,6.06,18.07,17.62,24.68,21.93c3.36,2.17,10.8,5.91,12.71,7.12c2.97,1.91,8.52,6.9,11.05,9.91c4.43,5.36,11.15,18.43,13.7,25.74c1.79,5.16,22.42,89.14,22.91,94.05.26,2.75.19,9.42-.71,12.94-.99,3.74-4.29,9.83-7.08,13.17-2.45,2.89-7.84,8.33-9.4,9.51-2.04,1.52-8.27,4.72-11.09,5.67-2.68.89-12.16,3.1-15.48,3.63Z" fill="#213741" stroke="#213741" stroke-width="10" stroke-linecap="round"/><path style="mix-blend-mode:overlay" d="M1577.34,554.55c.07,2.01.35,10.11.35,10.14.27,4,2.72,12.15,5.41,17.91c4.67,9.88,23.74,37.15,29.49,45.32" fill="none" stroke="#213741" stroke-width="10" stroke-linecap="round"/></g><g><g transform="matrix(.804418 0 0 0.883738 474.142 117.324)"><path d="M2579.46,906.88c1.04-3.02,5.74-8.03,9.66-10.86c5.11-3.63,21.24-11.23,26.14-12.67c3.91-1.13,11.12-2,14.77-1.86c1.98.1,4.54.62,6.68,1.37c2.08.79,4.98,2.71,5.91,4.22.97,1.64,2.08,5.48,2.29,7.42.59,6.96-.86,25.78-2.24,32.68-1.53,7.54-6.39,22.31-9.44,28.26-2.26,4.37-6.8,11.4-9.06,13.4-1.26,1.06-3.58,1.94-4.94,1.83-1.34-.15-3.33-1.34-5.28-3-5.67-4.91-20.25-18.53-23.58-22.29-2.67-3.05-6.2-9.21-7.42-13.2-1.63-5.55-2.31-8.35-3.49-14.35-.87-4.72-.48-9.47,0-10.95Z" transform="matrix(1.24313 0 0 1.13156-589.422-132.759)" fill="#d4cdc0" stroke="#d4cdc2" stroke-width="10" stroke-linecap="round"/><path d="M2322.18,939.1c-1.21-1.5-5.28-9.02-5.99-11.85-.88-3.65-.55-10.69.27-14.88c1.45-7.11,7.49-23.25,11.86-31.07c3.06-5.44,13.2-19.57,18.1-25.18c2.58-2.94,7.57-7.94,10.45-10.47c2.84-2.47,9.64-6.98,13.21-8.75c3.55-1.72,10.75-4.04,14.21-4.57c3.31-.49,10.13-.29,13.51.69c3.49,1.05,9.92,4.55,13.12,7.14c3.07,2.51,8.79,8.75,11,11.99c3.49,5.19,9.49,19.56,11.88,27.85.7,2.43,2.61,10.43,3.06,14.86.44,4.67.07,12.49-.61,16.3-.76,4.04-3.05,9.44-5.31,11.63-4.3,4.03-32.67,19.65-39.2,21.94-7.35,2.53-24.24,4.8-30.69,5.11-7.58.35-23.3-.82-28.09-2.77-3.13-1.32-8.87-5.66-10.78-7.97Z" transform="matrix(1.24313 0 0 1.13156-589.422-132.759)" fill="#d4cdc2" stroke="#d4cdc2" stroke-width="10" stroke-linecap="round"/><path id="e5jzC8VnoXb35" d="M2382.6497,859.77516c-2.8225-.01125-5.7225.15726-7.5875.49726-3.55.68-9.9881,3.39713-12.8381,5.03712-2.95,1.72-8.7412,6.08662-11.3812,8.76662-2.7,2.8-7.5729,8.92194-9.7929,12.31194-3.63,5.62-9.6591,20.43525-11.1891,26.93525-1.49,6.49999-2.601,22.45007-1.821,29.09006.5,4.03,2.1688,11.65921,3.3588,15.36921c1.18,3.56999,4.4631,10.03287,6.3431,12.88287c1.84,2.73,6.4173,8.01475,9.3073,10.18475c3.05,2.25999,10.1225,5.69683,13.2225,6.43683c3.12.7,10.9798.73525,14.7198.05525c3.54-.68,9.9779-3.40633,12.8279-5.04633c2.95-1.72,8.7512-6.08662,11.3812-8.76662c2.7-2.79999,7.5729-8.92194,9.7929-12.31194c3.63-5.61999,9.6591-20.42683,11.1891-26.91682c1.49-6.51,2.601-22.45928,1.821-29.09928-.49-4.02999-2.1688-11.65921-3.3588-15.3692-1.18-3.57-4.4631-10.04209-6.3431-12.89208-1.84-2.73-6.4172-7.99554-9.2972-10.17554-3.06-2.26-10.1326-5.69684-13.2326-6.43683-1.555-.355-4.2996-.54127-7.1221-.55252Zm269.5583,49.46876c-2.6762-.01-5.4386.13623-7.2536.45123-3.53.64999-10.5808,3.64935-13.9408,5.70935-3.66,2.26999-8.7134,6.60194-11.5734,9.75194-2.45,2.73999-7.2021,9.19489-8.8521,12.04489-1.65,2.85999-5.0737,10.53021-6.3937,14.31021-1.46,4.23999-3.042,10.86554-3.642,15.29553-.52,3.96-.8983,12.31943-.7183,15.59942.21,3.27,1.559,11.11331,2.519,14.62331c1.15,4.06,3.7392,10.1193,5.9992,13.7393c2.09,3.29,7.0747,9.0332,9.9447,11.1332c2.97,2.13,9.6251,5.2956,12.5851,5.9856c2.96.65,10.3615.6761,14.0015.0461c3.52-.65,10.5807-3.6494,13.9407-5.7094c3.65-2.27,8.7235-6.5927,11.5735-9.7427c2.46-2.74,7.2022-9.1949,8.8622-12.0449c1.64-2.86,5.0636-10.53022,6.3836-14.31022c1.45-4.23999,3.0319-10.86554,3.6319-15.29553.52-3.96.9082-12.31943.7182-15.59943-.2-3.26999-1.549-11.1133-2.519-14.6233-1.15-4.06-3.7391-10.11928-5.9891-13.73928-2.09-3.29-7.0645-9.03324-9.9345-11.13323-2.98-2.13-9.6453-5.29561-12.5953-5.98561-1.48-.325-4.0715-.49648-6.7478-.50648Z" transform="translate(.000002 0)" fill="#dbb13a" stroke-linecap="round"/><path d="M2579.9335,917.34098c.5389,1.61278-.8354-2.91257-.05-12.60785.247-3.04774,12.6678-19.38841,20.0431-22.09553c8.7784-3.22213,13.4718-7.58895,26.5062-5.82368c11.5463,1.56378,14.2385.21124,19.0813,4.56704c6.3466,5.70827,5.5808,12.32024,4.8455,27.80524-.7238,15.23896-8.5797,29.62143-11.701,36.13954-1.3679,2.85676,5.1378-9.39969,4.9506-9.58209-.1869-.18239-3.8984,4.48734-1.3378-4.10953c2.1156-7.10284,4.3223-17.09965,4.0343-18.44364s-.945-6.50851-1.4604-11.47669c-1.0692-10.30819.9349-11.63548-4.2786-14.44903-4.5992-2.48204-7.5651-4.25286-16.2902-4.40546-6.2904-.11049-5.4867.32641-13.936,4.03342-5.211,2.28645-9.1154,2.79041-11.8449,4.74153-2.7296,1.95102-6.7981,5.48664-6.3248,4.68828.4733-.79847-2.0063,3.5097-3.6998,5.04702l-8.5375,15.97143Z" transform="matrix(1.24313 0 0 1.13156-589.422-132.759)" stroke-width="0.237485" stroke-linecap="round"/><path d="M2316.7205,932.12575c-3.2854-7.73965-2.9373-31.48265,6.7962-50.61963c16.32-32.08682,49.8832-55.02783,77.4557-52.94186c19.2179,1.45395,27.4582,8.43911,35.1758,29.81835c6.8939,19.09691,5.3755,46.54546,2.3693,53.58355-1.1123,2.60424-.1033-3.89007-.7945-9.99038-1.0956-9.6709-.096-19.0174-5.4462-31.07244-5.2192-11.75899-12.0538-22.75-17.3631-27.92168-7.284-7.09534-20.3967-10.23117-31.1376-7.44629-13.2279,3.42951-31.2987,15.48031-39.4118,26.28221-7.1286,9.4912-17.4243,25.78013-20.5595,32.52742-4.1323,8.89242-7.0962,20.16607-7.7879,29.62255-.6467,8.84063,2.7845,13.0603.7036,8.1582Z" transform="matrix(1.24313 0 0 1.13156-589.422-132.759)" stroke-width="0.237485" stroke-linecap="round"/></g><path d="M2397.9085,562.35352c-2.78-.48-6.0423.27739-6.5023,1.49739-.5698,1.8,1.2323,7.05174,4.1423,12.01172c2.97,5.08,5.6136,12.08555,5.7536,15.18555.08,2.92998-2.241,8.2153-4.541,10.33528-4.71,4.18-18.3891,8.46012-27.5391,10.62012-9.89,2.11-49.0549,8.5544-61.9547,11.3444-8.1,1.97-23.9837,6.43322-31.5837,9.0332-7.63,2.73-22.401,8.9198-29.541,12.3698-11.29,5.66998-42.7336,24.57862-51.8636,31.16862-6.66,4.92998-19.2409,15.04927-25.1709,20.23925-5.7,5.27-16.6959,16.00812-22.0459,21.4681-10.41,10.95998-31.1847,36.17152-40.0147,48.2015-4.57,6.56998-15.1902,23.30913-17.3502,27.18913-2.04,3.68998-10.7507,21.6511-14.0707,29.19108-5.99,14.62996-22.4983,54.10477-26.3183,61.95475-3.05,6.22-4.8762,11.00947-4.6062,12.93945.17.9,1.2603,2.05424,2.1403,2.25424.6.1,1.365.10372,2.295-.0163c5.11-.75,28.3237-13.04891,31.2337-13.37891.7-.05,1.3965.47029,1.3265.96029-.11.56-1.1182,2.26611-2.0182,3.42611-2.13,2.68998-22.9013,24.16836-24.6013,26.31836-3.26,4.15998-7.4694,12.0919-7.8694,14.85188-.17,1.48.3598,4.39779,1.0498,5.64779.61,1.08,2.5117,3.3097,3.4017,4.1097c3.67,3.2,18.2758,10.07037,22.3958,13.11035c3.65,2.73,10.6013,9.39093,15.6413,15.03093c3.67,4.17998,11.4066,13.63276,15.4866,18.91276c6.73,9.01998,27.3029,38.99084,36.9629,53.23084c9.95,13.99,27.7496,38.6788,39.5996,53.9388c9.92,12.3,35.8546,43.7102,40.3646,48.6002c5.34,5.8,16.776,16.5965,22.876,21.6065c6.1,5,18.2214,13.6226,25.9114,18.4326c6.23,3.83,20.075,10.9535,28.475,14.7135c7.54,3.22,21.6878,8.4504,31.4778,11.5804c8.35,2.43,25.3598,6.6463,33.8298,8.6263c15.81,3.39,48.8529,9.3342,56.4127,10.0342c10.09.92,28.9961.8598,36.2061-.1302c5.07-.71,19.0332-4.7522,25.4232-6.8522c6.55-2.32,16.713-6.1903,26.473-10.7503c6.87-3.33,20.9826-10.3625,28.2226-14.0625c7.3-3.91,21.1393-11.9984,27.6693-16.1784c8.14-5.45,20.5003-15.3274,25.9603-20.2474c6.25-5.66,17.5642-17.3918,22.1842-22.9818c4.21-5.13,13.2488-18.4778,16.4388-26.7578.88-2.33,5.6877-22.3757,6.3477-21.9157.46.41,3.4378,14.7528,5.2978,23.9828c1.36,6.33,3.5996,12.7818,4.8096,13.6718.6.38,2.02-.2311,2.71-1.1311c1.12-1.55,4.5857-10.797,6.2255-15.267c2.11-5.84,13.4149-45.6532,16.3249-57.8532c1.88-8.5698,5.2446-26.3204,6.4046-33.8704c2.06-15.54,5.3878-51.77848,5.9978-64.64846.63-19.63996-.223-45.17937-2.653-64.81933-1.21-8.04-4.0576-23.4954-5.5176-31.09538-4.26-19.74996-10.9023-43.57543-15.4623-57.27539-2.3998-6.93998-8.1223-20.30067-12.4023-28.93067-3.75-7.28998-11.1753-19.93072-15.0553-26.2207-4.24-6.52998-13.1504-19.87271-17.8304-26.69271-9.63-13.47996-28.9104-38.98898-41.6504-54.41894-6.43-7.41-19.3262-21.99937-25.3662-28.49935-6.1-6.3-14.4986-13.77953-15.4786-13.76953-.83.08-1.626,1.95301-1.416,3.83301.24,1.96998,1.8607,7.54618,2.7507,10.50618.7,2.65.9143,6.54208.3743,7.55208-.66,1.1-2.013,1.18946-3.483.43946-.05-.02-11.6211-5.82827-26.8311-15.69825-7.68-5.24998-23.9414-16.56371-32.5114-22.62369-14.75-10.19998-49.8837-33.92713-57.7637-38.03711-4.96-2.57-12.4743-5.41774-15.5843-5.99772Zm-9.6761,270.72753c3.473-.10453,7.9468.19274,10.4818.92774c3.49,1.05,9.9185,4.54706,13.1185,7.13704c3.07,2.51,8.4222,10.59916,10.6322,13.83916c3.49,5.18998,9.8538,17.70636,12.2438,25.99646.7,2.42988,2.618,10.42994,3.068,14.86002.44,4.67.07,12.49046-.6104,16.30046-.76,4.03988-3.0541,9.43923-5.3141,11.62923-4.3,4.02998-32.6708,19.65002-39.2008,21.9401-7.35,2.53-24.2385,4.80068-30.6885,5.11068-7.58.35-23.3025-.81693-28.0925-2.76693-3.13-1.32-8.8647-5.65712-10.7747-7.96712-1.21-1.5-5.2796-9.01896-5.9896-11.84896-.88-3.64998-.5514-10.69444.2686-14.88444c1.45-7.10998,7.4871-23.25108,11.8571-31.07096c3.06-5.4401,13.1989-19.56904,18.0989-25.17904c2.58-2.93998,7.5694-6.46215,10.4492-8.99215c2.84-2.47,9.6462-8.45985,13.2162-10.22985c3.55-1.72,8.8972-3.66506,12.3572-4.19506.8275-.1225,3.7215-.57153,4.8791-.60638Zm241.0563,49.43034c.5541-.0126,1.0656-.009,1.5218.008c1.98.1,4.5414.61719,6.6814,1.36719c2.08.79,4.9782,2.71363,5.9082,4.22363.97,1.64,2.0767,5.48188,2.2867,7.42188.59,6.95999-.8579,25.7823-2.2379,32.68229-1.53,7.53999-6.3901,22.30521-9.4401,28.25521-2.26,4.36999-6.7976,11.40332-9.0576,13.40332-1.26,1.06-3.5798,1.94105-4.9398,1.83105-1.34-.15-3.3316-1.34293-5.2816-3.00293-5.67-4.90999-20.254-18.53004-23.584-22.29004-2.67-3.04999-6.1937-9.20987-7.4137-13.19987-1.63-5.54999-2.3112-8.34733-3.4912-14.34733-.87-4.71999-.48-9.47378,0-10.95377c1.04-3.01997,5.7398-8.02613,9.6598-10.85612c5.11-3.63,21.2393-11.2309,26.1393-12.6709c3.4213-.98875,9.37-1.78356,13.2487-1.87175v.00014Z" fill="#213741" stroke-linecap="round"/><path d="M2618.6371,977.58716c-2.0651-1.89749-6.0805-4.77909-8.923-6.40354-2.8426-1.62438-7.7454-5.83879-10.8953-9.36522s-7.8681-8.61274-10.4849-11.30286c-8.4032-8.63851-16.5962-26.31152-19.2052-41.42787l-.6127-3.54952-4.2542,1.4881c-2.443.85451-5.3292,1.20677-6.7789.82736-2.477-.64824-12.8753-10.42249-12.8753-12.1026c0-3.17183,8.5193-1.14215,12.8751,3.06739c2.2966,2.21964,2.8747,2.34409,6.4054,1.37914c3.0049-.82124,4.3144-1.94601,5.801-4.98284c1.6422-3.35466,2.0261-3.64141,2.6532-1.98175.4032,1.06723,1.9196,4.22814,3.3697,7.02423c1.4502,2.79611,3.4256,8.90844,4.3899,13.58299s2.2128,10.70626,2.7743,13.40385c1.1628,5.58629,10.4221,21.10387,17.4704,29.27868c2.6015,3.0173,8.7748,9.35367,13.7186,14.08075c7.634,7.29956,10.2347,10.4337,8.6575,10.4337-.182,0-2.0205-1.55244-4.0856-3.44999Z" fill="#435253" stroke-width="0.677171" stroke-linecap="round"/></g><g><path d="M2043.61,899.37c-1.31-.75-2.17-4.54-1.67-7.38.86-4.45,9.9-24.53,14.1-33.76c7.52-15.98,22.48-47.04,29.92-62.13c10.89-20.73,17.05-29.64,23.87-38.41c9.48,5.98,40.71,25.62,48.08,31.05c7.31,5.4,21.27,17.45,27.38,23.62c4.87,4.94,14.57,16.26,19.87,23.19c4.62,6.22,12.38,17.95,17.34,26.19c3.9,6.85,11.16,20.69,14.51,27.67c3.17,7.03,9.06,21.53,11.89,29.32c2.63,7.86,7.25,23.75,9.24,31.79c2.57,11.63,8.98,49.51,10.31,60.5c2.05,18.85,3.71,54.66,4.47,65.45.85,9.78,2.47,21.74,4.03,28.79.75,3.34,2.75,10.66,3.99,13.4c1.53,3.29,6.1,9.99,9.13,13.38c4.71,5.2,16.57,14.42,22.59,18.33c10.24,6.64,43.65,23.81,58.5,31.05c14.33,6.71,53.66,23.06,61.03,25.65c7.16,2.51,20.8,5.86,27.15,6.66c3.97.48,10.97.75,15.58.4c9.21-.74,19.2-4.22,31.6-9.48c2.79-1.17,9.62-3.98,10.01-4.19c3.6-1.98,8.69-5.6,10.7-7.99.23-.29,14.18-16.32,19.94-22.98c5.91-7.05,16.13-21.5,20.18-28.7c2.32-4.14,6.32-12.54,7.91-16.58c1-2.58,4.11-11.81,5.44-14.96c1.28-3.02,4.19-8.14,4.99-8.91c1.55-1.37,4.24-2.19,5.85-1.52c1.15.49,4.92,2.77,6.69,3.05c3.08.44,8.44-1.45,10.88-3.11c2.97-2.08,7.96-7.79,10.35-12.12c3.29-6.02,8.8-20.97,11.22-29.5c2.25-8.22,6.32-23.2,8.14-29.95c1.86-6.93,5.15-19.23,7.91-25.67c2.42-5.62,11.84-24.74,15.97-32.92c7.88-15.11,14.98-27.52,18.29-31.17c1.6-1.74,4.13-2.92,4.95-2.16.81.84,1.65,4.82,1.7,8.02.05,6.15-6.41,55.72-8.87,73.32-3.01,19.08-8.1,44.58-12.17,59.88-6.18,21.49-14.71,47.09-17.63,53.05-.65,1.34-1.7,2.38-2.56,2.38-.77-.05-2.07-2.01-2.71-3.94-1.29-4.12-5.5-36.58-5.68-37.39-.34-1.45-.85-1.87-1.08-1.06-.83,2.96-2.86,19.3-4.76,24.43-3.59,9.45-12.71,22.62-18.65,29.67-4.37,4.98-14.26,15.48-19.78,21.01-5.9,5.71-20.22,18.9-25.51,23.39-7.62,6.25-20.33,15.58-27.2,19.96-6.88,4.36-20.97,11.95-28.13,15-7.36,3.12-22.29,7.98-29.86,9.73-7.58,1.74-21.16,3.59-30.7,4.25-7.73.4-23.15.7-30.83.6-7.67-.28-26.14-1.59-30.63-2.21-7.69-1.14-23.06-3.95-30.74-5.62-7.67-1.85-23.02-6.09-30.69-8.47-7.56-2.54-22.24-8.1-29.37-11.1-6.97-3.16-23.73-11.63-27.02-13.57-3.6-2.13-19.77-13.16-26.08-17.89-6.16-4.89-18.07-15.2-23.81-20.61-11.28-11.05-35.54-37.82-42.65-47.04-9.63-12.84-28.18-39.72-37.07-53.68-16.39-25.95-42.08-66.56-51.36-81.23-4.13-6.24-11.77-16.02-15.82-20.26-2.95-3.03-11.9951,4.80835-15.8751,3.07835-.56-.25-8.1049-16.83835-10.8149-18.23835-1.02-.55-3.8-2.52-4.53-3.29-.88-1.01-1.86-3.93-1.66-5.33.53-3.14,5.42-9.64,9.72-14.41c3.81-4.15,23.8-24.05,26.87-27.9.88-1.13,1.94-2.82,2.14-3.43.15-.54-.3-1.22-.88-1.25-1.35-.01-8.35,3.11-13.6,6.06-7.83,4.41-15.64,8.01-19,8.64-1.67.29-4.08.05-5.04-.45Z" fill="#d4cdc1" stroke="#d4cdc2" stroke-width="10" stroke-linecap="round"/><path id="e5jzC8VnoXb42" d="M2433.0439,1278.0206c3.2499-5.9251,15.4805-13.6456,25.7534-16.2567c3.1227-.7936,5.8633-1.6239,6.0898-1.845.3658-.3569-2.5186-3.7685-11.7327-13.8776l-2.7425-3.009l4.1253-2.5039c2.2689-1.3772,6.6272-3.1989,9.685-4.0483c5.7159-1.5874,17.4033-8.9555,22.1333-13.9536c2.2591-2.3868,11.3108-16.0198,10.6122-15.9831-.1317.011-3.0905.8847-6.5754,1.9506-7.9979,2.4465-26.8208,4.8842-37.5411,4.8621-15.1796-.032-27.4394-4.0715-26.5129-8.7371.2568-1.2936,2.9452-1.5161,18.8163-1.5571c19.9013-.051,31.5232-1.4882,45.7195-5.6513c4.3215-1.2674,9.7047-2.7338,11.9621-3.2587l4.1046-.9544-1.3437,2.5125c-.7389,1.3819-1.3464,3.4332-1.3498,4.5587-.02,6.47-7.918,22.1385-15.1527,30.059-5.0897,5.5723-18.85,15.3016-21.6411,15.3016-.8689,0,1.3859,2.709,5.0926,6.1186c6.508,5.9862,7.994,9.0259,5.8851,12.038-.8866,1.2663-19.2868,8.0127-31.7896,11.6556-4.9586,1.445-10.2594,3.004-11.7793,3.4651-2.4493.7427-2.6562.6417-1.8184-.886Z" fill="#818181" stroke-width="0.237485" stroke-linecap="round"/></g><g><path d="M2551.22,1068.67c-1.94-.75-6.53-4.87-8.59-7.73-1.25-1.77-11.39-18.34-18.47-27.74-5.03-6.5-18.58-20.78-21.7-24.85-2.01-2.65-6.14-9.26-7.66-13.16-1.6-4.24-2.57-12.03-2.2-16.27.33-3.42,2.26-9.77,4.41-12.24c1.15-1.26,4.07-3.26,5.74-3.93c3.58-1.34,11.81-1.09,15.97-.11c7.22,1.77,23.16,8.38,29.91,12.51c7.82,4.85,17.72,15.83,18.67,16.7c1.25,1.12,4.14,2.76,5.58,3.16c1.38.35,4.52.38,6,.05c1.55-.38,4.9-1.94,6.48-3.03c1.15-.82,9.88-7.85,13.28-9.53c1.62-.76,4.99-1.73,6.59-1.83c1.73-.08,4.85.79,6.5,1.74c2.73,1.66,7.68,7,9.12,10.17c1.5,3.43,2.97,11.32,2.59,15.19-.41,3.74-3.11,10.53-4.83,13.45-1.78,2.98-6.68,9.33-9.46,12.32-2.71,2.9-8.68,7.83-11.56,9.86-2.02,1.42-19.78,13.16-26.5,17.75-3.45,2.46-10.6,7.43-13.54,8.05-1.67.32-4.79.03-6.33-.53Z" fill="#a58086" stroke="#a58086" stroke-width="10" stroke-linecap="round"/><path d="M2540.6795,1082.9172c-.3096-.7874.3955-2.7448,1.5668-4.3501c3.8645-5.2957,14.0222-25.5532,16.0923-32.0931c2.404-7.5942,2.0227-9.4194-2.2909-10.9655-17.6296-6.3186-39.0008-21.3244-44.1155-30.9754-2.4745-4.66948-3.1604-13.94416-1.3447-18.18452c3.1488-7.35354,11.9371-9.51911,21.2013-5.22436c10.6269,4.92642,31.9563,24.90688,37.9269,35.52818c2.0421,3.6329,4.1063,7.2243,4.5871,7.9813c1.0771,1.6953,5.6756-1.6308,17.8049-12.8775c8.6835-8.0515,13.0355-10.4915,18.7131-10.4915c4.0623,0,7.6218,3.6043,7.6111,7.7071-.021,8.0043-16.3018,20.5111-35.6717,27.4018l-7.4273,2.6422-3.5204,7.1677c-3.819,7.776-7.2329,12.5068-14.4918,20.0823-2.5758,2.688-5.8424,6.8666-7.2593,9.2858-4.4632,7.6205-8.145,10.511-9.3819,7.3656Z" fill="#262626" stroke-width="0.237485" stroke-linecap="round"/></g><g id="e5jzC8VnoXb46" transform="translate(15.653446 1.575125)"><g><path d="M2340.67,994.83c-.48-.48-.68-.43-.38.19.7,1.38,6.26,10.18,7.84,13.08c3.91,7.24,10.08,24.03,11.95,31.26c1.76,7.56,5.26,21.89,8.26,31.04c1.93,5.69,8.87,21.32,13.51,30.59c4.11,7.76,11.81,21.52,15.32,27.42c4.17,6.85,13.02,18.51,16.69,21.02c5.79,3.88,19.76,8.98,30.31,12.11c7.83,2.15,25.96,6.55,35.49,8.76c8.84,1.82,22.59,4.22,29.96,5.09c2.05.25,5.25.07,7.93-.55c2.31-.57,5.46-2.36,6.86-3.78c1.4-1.5,5.71-7.92,6.95-11.36c1.34-3.85,2.45-10.38,2.46-15.73c0-1.38-.63-13.21-.82-15.42-.42-4.66-2-11.79-3.18-14.41-1.15-2.47-3.28-5.62-4.71-6.8-.87-.72-3.74-2.92-3.57-3.81.37-1.5,6.08-3.67,8.09-4.28c6.02-1.8,24.37-5.62,32.64-6.71c5.87-.71,14.4-1.38,19.8-1.41c4.83-.01,16.81.94,17.38.88.97-.12.85-.56-.12-.81-2.55-.7-21.64-4.68-27.94-5.64-23.81-3.6-87.73-6.54-102.26-7.98-9.25-1.06-25.37-3.93-32.66-6-4.91-1.4-19.35-6.85-25.02-9.44-6.86-3.16-19.64-10.6-24.54-14.53-6.12-4.95-15.6-15.06-23.6-24.57-10.22-12.86-21.95-27.51-22.64-28.21Z" fill="#b96c6f" stroke-linecap="round"/><path d="M2340.3926,989.49023c-.5906-.0231-1.3018.0649-2.1172.40235-1.6309.67483-2.7631,2.49913-3.0039,3.58203s-.1123,1.67571-.029,2.11523c.166.87906.3655,1.23264.5469,1.60743l.021.043.02.041c.8263,1.6291,2.1131,3.59013,3.7851,6.32033c1.6683,2.7239,3.4835,5.717,4.1153,6.875c3.4185,6.33,9.834,23.6604,11.5078,30.1289.0003,0,0,0,0,.01c1.7819,7.6489,5.2371,21.8584,8.3477,31.3457l.01.025.01.024c2.2065,6.5051,9.0197,21.7255,13.7734,31.2226l.025.051.027.051c4.1747,7.8822,11.8278,21.5624,15.4414,27.6367l.014.022.012.022c2.2467,3.6906,5.56,8.3879,8.8653,12.6172c3.3052,4.2292,6.0064,7.6952,9.2734,9.9296l.019.014.02.014c7.1965,4.8225,20.8559,9.5411,31.6718,12.75l.049.014.049.014c8.0507,2.2106,26.0923,6.584,35.6856,8.8086l.061.016.061.012c8.9874,1.8503,22.6467,4.2444,30.3633,5.1562c0,.0002,0-.0002.01,0c2.9556.3596,6.3338.126,9.6562-.6426l.035-.01.035-.01c3.6474-.9,6.6651-2.5308,9.2227-5.125l.049-.049.045-.051c1.3815-1.4802,2.5985-3.308,4.1054-5.6875s2.9844-4.8617,3.8946-7.3867l.01-.027.01-.025c1.6352-4.6981,2.727-11.3313,2.7383-17.3653v0v0c0-1.4509-.1635-4.242-.3457-7.666s-.3724-6.7899-.4922-8.1836v-.01-.01c-.4797-5.3225-1.7131-11.8225-3.6016-16.0157l-.014-.027-.012-.029c-1.2391-2.6615-2.7985-5.1451-4.9765-7.332.5973-.2213,1.4031-.5688,1.6972-.6582c5.2139-1.5577,24.105-5.5173,31.8301-6.5371c5.6674-.6843,14.1799-1.3429,19.1875-1.3711c2.0813,0,6.3137.2203,9.9551.4472c1.8228.1136,3.5189.2272,4.8125.3086.6468.041,1.1905.073,1.6211.096.2153.011.3996.02.582.025.1824.01.08.062.9102-.025h.047l.045-.01c.6244-.077,1.2911-.1422,2.3691-.75.539-.304,1.2367-.7784,1.8594-1.7422.6226-.9638.974-2.5213.7343-3.7696-.4793-2.4965-1.8551-3.1675-2.5898-3.6015-.7247-.4282-1.2799-.5986-1.834-.7422-2.0289-.5544-6.9467-1.5844-12.8359-2.7891-5.9126-1.2094-12.2013-2.4392-15.625-2.9609v0v0c-12.36-1.8688-34.2259-3.4767-55.0293-4.8437-20.7931-1.3664-40.5703-2.484-47.4609-3.166-8.8963-1.0229-25.2174-3.9642-31.8047-5.834h-.01c-4.1097-1.1725-19.1469-6.8199-24.3086-9.1777-6.2976-2.9028-19.4916-10.6795-23.4843-13.8809-.0007-.0005,0,0,0,0-5.4923-4.4457-15.0208-14.5213-22.8828-23.8653-5.0943-6.4099-10.5569-13.2566-14.8399-18.5976-2.1514-2.68282-4.0044-4.98436-5.3711-6.66991-.6834-.84277-1.2444-1.52987-1.668-2.04297-.4235-.51309-.3861-.54257-1.0468-1.21289l-.012-.0137-.014-.0117c-.2735-.27345-.5442-.54595-1.1094-.91406-.2826-.18405-.6306-.40822-1.3047-.625-.3371-.10839-.8079-.24253-1.3984-.26563l-.015-.01731Zm21.5156,39.48637c7.5394,8.7746,15.758,17.5881,21.8574,22.5214l.01.01.01.01c5.8074,4.6578,18.1507,11.7514,25.5761,15.1718h.01.01c6.1771,2.8216,20.012,8.0717,25.7266,9.7012v0v0c7.9849,2.2673,23.8456,5.0549,33.457,6.1563l.039.01h.037c7.6487.758,27.0729,1.8323,47.8145,3.1953c13.7525.9037,26.8627,1.9594,38.2793,3.0586-9.2928,1.5985-21.0493,4.0107-26.5332,5.6504h-.01-.01c-1.3225.4014-3.3017,1.1172-5.3242,2.0625-1.0112.4727-2.0056.9795-3.0019,1.6622-.9964.6826-2.4245,1.1364-3.1661,4.1425l-.031.1289-.025.1309c-.6002,3.142.719,4.0706,1.2852,4.8203.5661.7498,1.0915,1.2589,1.6093,1.7422c1.0357.9665,2.1169,1.8041,2.3985,2.0371v0v0c-.059-.049,2.4892,3.2185,3.3418,5.0273.4784,1.0826,2.3877,8.7804,2.7481,12.7676.0001,0,0,0,0,.01.071.8284.2889,4.4598.4688,7.8399.1803,3.3885.332,7.2037.332,7.1328-.01,4.6525-1.1321,11.0403-2.1738,14.0508-.335.9219-1.622,3.3514-2.9258,5.4101-1.2839,2.0274-2.8358,4.0434-2.9121,4.1387-.2926.2723-3.4478,2.147-4.4316,2.4024-2.0348.4621-5.018.5934-6.1524.455h-.01-.01c-7.016-.8282-20.8066-3.2259-29.4961-5.0136-9.467-2.1963-27.5353-6.5864-35.1523-8.6758-10.2664-3.0484-24.4848-8.5037-28.8867-11.4414-.4143-.288-3.9555-3.8911-7.0293-7.8242-3.0773-3.9376-6.2716-8.4894-8.1953-11.6485c0,0,0-.01-.01-.01-3.4073-5.73-11.0947-19.4658-15.1406-27.1015-4.5221-9.0394-11.5536-24.9993-13.2149-29.8867-2.8762-8.7769-6.3933-23.1072-8.1367-30.5957l-.014-.061-.016-.059c-.5851-2.2624-1.9309-5.9179-3.0117-9.1308l.0101.002Zm163.8145,77.3457c-.2211.2501-.351.2077-.2188.1172.033-.023.1715-.088.2188-.1172Z" fill="#213741" stroke-linecap="round"/></g></g><g><path d="M2501.54,1088.7l6.82,15.1l49.62,5.12l11.28-14.77-67.72-5.45Z" fill="#d4cdc2" stroke="#d4cdc2" stroke-width="10" stroke-linecap="round"/><path d="M2541.8519,1087.0371l-5.7407,24.8148" fill="#484848" stroke="#676767" stroke-width="4.16667"/></g><g><path d="M2154.19,749.47c-2.15-1.26-5.7-5.47-6.99-8.3-1.27-2.87-2.9-10.15-3.25-14.5-.27-3.58-.12-28.23-.03-37.29.19-12.7,1.03-26.78,1.6-35.99.95-11.87,2.3-22.84,3.63-28.34c1.1-4.15,3.17-9.37,5.3-12.31c1.05-1.4,3.38-3.58,4.6-4.28c2.54-1.36,10.39-2.07,16-1.4c7.87.99,47.93,13.38,59.7,16.54c15.55,4.22,38.79,8.04,42.44,8.63c5.3-1.89,23.77-8.46,27.11-9.55c8.44-2.75,25.99-6.93,34.52-7.8c4.56-.45,19.58-.59,23.24-.63c4.81,1.77,19.63,7.21,24.64,10.27c7.55,4.69,19.76,16.65,24.54,22.34c10.47,12.55,22.95,33.07,26.4,39.95c1.8,3.68,5.08,12.86,5.92,17.45.73,4.18.49,11.79-.08,15.57-.47,3.01-2.25,9.1-3.94,11.59-1.75,2.54-6.52,6.11-9.49,6.88-3.46.83-12.37.59-16.29-.03-7.1-1.16-19.9-4.22-30.16-7.09-10.06-3.1-25.46-8.62-31.97-11.44-8.75-3.87-26.6-13.44-28.57-14.51-6.41-3.45-21.17-9.76-27.59-11.2-4.64-1.02-12.82-1.31-15.58-.5-1.31.43-3.47,1.82-4.14,2.72-.79,1.13-1.65,4.05-1.69,5.8-.02,1.89.99,6.81,1.18,8.29.24,2.04-.44,5.72-1.35,7.1-1.72,2.43-6.57,4.5-8.8,4.9-2.72.46-8.02.49-13.46.16-3.92-.15-12.83.8-17.64,1.88-14.69,3.34-38.31,14.46-50.16,20.74-4.26,2.19-12.07,5.12-15.49,5.82-6.78,1.31-13.08-.87-14.15-1.47Z" fill="#d4cdc2" stroke="#d4cdc2" stroke-width="10" stroke-linecap="round"/><path d="M2589.35,684.74c-.55-.25-1.14.01-1.2.57-.16,2.39,7.64,21.15,11.57,30.95c3.69,9.7,9.76,26.84,12.41,34.96c4.55,14.78,7.35,22.87,10.22,28.1c1.69,3.01,6.85,9.65,10.16,11.69c1.93,1.16,5.46,2.17,7.88,2.37c1.94.13,4.79-.08,6.37-.46c1.4-.39,4.16-2.42,4.86-3.85.6-1.25.77-6.44,1.01-7.54.21-1.01.86-.24,1.44,1.45c2.78,7.92,17.3,56.39,18.71,62.15c2.87,11.86,3.47,21.1,3.6,23.02c5.44-3.07,18.8-10.69,25.89-17.26c4.53-4.24,15.38-17.72,18.31-23.36c1.9-3.72,4.97-12.18,6.15-16.92c1.61-6.65,3.21-23.44,3.17-33.23-.28-29.74-1.05-42.21-2.51-45.3-1.12-2.24-5.01-4.16-8-4.46-1.36-.12-80.99,5.92-92.64,6.75-3.92-5.54-13.79-19.52-19.76-27.96-8.38-11.61-15.85-20.77-17.64-21.67Z" fill="#d4cdc2" stroke="#d4cdc2" stroke-width="10" stroke-linecap="round"/><path d="M2245.178,721.61309c-10.4051-2.38425-29.5142-12.54279-33.8236-20.71522-.8722-1.65387-2.7721-7.15215-4.2219-12.21813-3.6616-12.79422-11.1492-25.07062-20.5222-33.64747-1.7624-1.61279-6.7601-6.72039-11.1058-11.35022l-7.9013-8.4179l6.2431,1.37457c10.0259,2.20765,15.8758,5.52643,23.4157,13.28416c11.488,11.82006,17.3931,21.87241,20.8013,35.41063c2.1684,8.61212,5.2822,13.84999,11.3138,19.0306c5.0397,4.32844,28.9963,16.59267,32.6719,16.72573c1.6737.0603,1.2473.51247-1.8212,1.92925-4.2658,1.96977-8.6924.0506-15.0498-1.406Z" fill="#868686" stroke-width="0.237485" stroke-linecap="round"/></g></g>
<script><![CDATA[
!function(t,n){"object"==typeof exports&&"undefined"!=typeof module?module.exports=n():"function"==typeof __SVGATOR_DEFINE__&&__SVGATOR_DEFINE__.amd?__SVGATOR_DEFINE__(n):((t="undefined"!=typeof globalThis?globalThis:t||self).__SVGATOR_PLAYER__=t.__SVGATOR_PLAYER__||{},t.__SVGATOR_PLAYER__["5c7f360c"]=n())}(this,(function(){"use strict";function t(t,n){var e=Object.keys(t);if(Object.getOwnPropertySymbols){var r=Object.getOwnPropertySymbols(t);n&&(r=r.filter((function(n){return Object.getOwnPropertyDescriptor(t,n).enumerable}))),e.push.apply(e,r)}return e}function n(n){for(var e=1;e<arguments.length;e++){var r=null!=arguments[e]?arguments[e]:{};e%2?t(Object(r),!0).forEach((function(t){o(n,t,r[t])})):Object.getOwnPropertyDescriptors?Object.defineProperties(n,Object.getOwnPropertyDescriptors(r)):t(Object(r)).forEach((function(t){Object.defineProperty(n,t,Object.getOwnPropertyDescriptor(r,t))}))}return n}function e(t){return(e="function"==typeof Symbol&&"symbol"==typeof Symbol.iterator?function(t){return typeof t}:function(t){return t&&"function"==typeof Symbol&&t.constructor===Symbol&&t!==Symbol.prototype?"symbol":typeof t})(t)}function r(t,n){if(!(t instanceof n))throw new TypeError("Cannot call a class as a function")}function i(t,n){for(var e=0;e<n.length;e++){var r=n[e];r.enumerable=r.enumerable||!1,r.configurable=!0,"value"in r&&(r.writable=!0),Object.defineProperty(t,r.key,r)}}function u(t,n,e){return n&&i(t.prototype,n),e&&i(t,e),t}function o(t,n,e){return n in t?Object.defineProperty(t,n,{value:e,enumerable:!0,configurable:!0,writable:!0}):t[n]=e,t}function a(t){return(a=Object.setPrototypeOf?Object.getPrototypeOf:function(t){return t.__proto__||Object.getPrototypeOf(t)})(t)}function l(t,n){return(l=Object.setPrototypeOf||function(t,n){return t.__proto__=n,t})(t,n)}function s(){if("undefined"==typeof Reflect||!Reflect.construct)return!1;if(Reflect.construct.sham)return!1;if("function"==typeof Proxy)return!0;try{return Boolean.prototype.valueOf.call(Reflect.construct(Boolean,[],(function(){}))),!0}catch(t){return!1}}function f(t,n,e){return(f=s()?Reflect.construct:function(t,n,e){var r=[null];r.push.apply(r,n);var i=new(Function.bind.apply(t,r));return e&&l(i,e.prototype),i}).apply(null,arguments)}function c(t,n){if(n&&("object"==typeof n||"function"==typeof n))return n;if(void 0!==n)throw new TypeError("Derived constructors may only return object or undefined");return function(t){if(void 0===t)throw new ReferenceError("this hasn't been initialised - super() hasn't been called");return t}(t)}function h(t,n,e){return(h="undefined"!=typeof Reflect&&Reflect.get?Reflect.get:function(t,n,e){var r=function(t,n){for(;!Object.prototype.hasOwnProperty.call(t,n)&&null!==(t=a(t)););return t}(t,n);if(r){var i=Object.getOwnPropertyDescriptor(r,n);return i.get?i.get.call(e):i.value}})(t,n,e||t)}function v(t){return function(t){if(Array.isArray(t))return y(t)}(t)||function(t){if("undefined"!=typeof Symbol&&null!=t[Symbol.iterator]||null!=t["@@iterator"])return Array.from(t)}(t)||function(t,n){if(!t)return;if("string"==typeof t)return y(t,n);var e=Object.prototype.toString.call(t).slice(8,-1);"Object"===e&&t.constructor&&(e=t.constructor.name);if("Map"===e||"Set"===e)return Array.from(t);if("Arguments"===e||/^(?:Ui|I)nt(?:8|16|32)(?:Clamped)?Array$/.test(e))return y(t,n)}(t)||function(){throw new TypeError("Invalid attempt to spread non-iterable instance.\nIn order to be iterable, non-array objects must have a [Symbol.iterator]() method.")}()}function y(t,n){(null==n||n>t.length)&&(n=t.length);for(var e=0,r=new Array(n);e<n;e++)r[e]=t[e];return r}function g(t,n,e){if(Number.isInteger(t))return t;var r=Math.pow(10,n);return Math[e]((+t+Number.EPSILON)*r)/r}Number.isInteger||(Number.isInteger=function(t){return"number"==typeof t&&isFinite(t)&&Math.floor(t)===t}),Number.EPSILON||(Number.EPSILON=2220446049250313e-31);var p=d(Math.pow(10,-6));function d(t){var n=arguments.length>1&&void 0!==arguments[1]?arguments[1]:6;return g(t,n,"round")}function m(t,n){var e=arguments.length>2&&void 0!==arguments[2]?arguments[2]:p;return Math.abs(t-n)<e}d(Math.pow(10,-2)),d(Math.pow(10,-4));var b=Math.PI/180;function w(t){return t*b}function x(t){return t/b}function _(t){return t}function A(t,n,e){var r=1-e;return 3*e*r*(t*r+n*e)+e*e*e}function k(){var t=arguments.length>0&&void 0!==arguments[0]?arguments[0]:0,n=arguments.length>1&&void 0!==arguments[1]?arguments[1]:0,e=arguments.length>2&&void 0!==arguments[2]?arguments[2]:1,r=arguments.length>3&&void 0!==arguments[3]?arguments[3]:1;return t<0||t>1||e<0||e>1?null:m(t,n)&&m(e,r)?_:function(i){if(i<=0)return t>0?i*n/t:0===n&&e>0?i*r/e:0;if(i>=1)return e<1?1+(i-1)*(r-1)/(e-1):1===e&&t<1?1+(i-1)*(n-1)/(t-1):1;for(var u,o=0,a=1;o<a;){var l=A(t,e,u=(o+a)/2);if(m(i,l))break;l<i?o=u:a=u}return A(n,r,u)}}function S(){return 1}function O(t){return 1===t?1:0}function j(){var t=arguments.length>0&&void 0!==arguments[0]?arguments[0]:1,n=arguments.length>1&&void 0!==arguments[1]?arguments[1]:0;if(1===t){if(0===n)return O;if(1===n)return S}var e=1/t;return function(t){return t>=1?1:(t+=n*e)-t%e}}var M=Math.sin,E=Math.cos,P=Math.acos,I=Math.asin,R=Math.tan,F=Math.atan2,N=Math.sqrt,T=function(){function t(){var n=arguments.length>0&&void 0!==arguments[0]?arguments[0]:1,e=arguments.length>1&&void 0!==arguments[1]?arguments[1]:0,i=arguments.length>2&&void 0!==arguments[2]?arguments[2]:0,u=arguments.length>3&&void 0!==arguments[3]?arguments[3]:1,o=arguments.length>4&&void 0!==arguments[4]?arguments[4]:0,a=arguments.length>5&&void 0!==arguments[5]?arguments[5]:0;r(this,t),this.m=[n,e,i,u,o,a],this.i=null,this.w=null,this.s=null}return u(t,[{key:"determinant",get:function(){var t=this.m;return t[0]*t[3]-t[1]*t[2]}},{key:"isIdentity",get:function(){if(null===this.i){var t=this.m;this.i=1===t[0]&&0===t[1]&&0===t[2]&&1===t[3]&&0===t[4]&&0===t[5]}return this.i}},{key:"point",value:function(t,n){var e=this.m;return{x:e[0]*t+e[2]*n+e[4],y:e[1]*t+e[3]*n+e[5]}}},{key:"translateSelf",value:function(){var t=arguments.length>0&&void 0!==arguments[0]?arguments[0]:0,n=arguments.length>1&&void 0!==arguments[1]?arguments[1]:0;if(!t&&!n)return this;var e=this.m;return e[4]+=e[0]*t+e[2]*n,e[5]+=e[1]*t+e[3]*n,this.w=this.s=this.i=null,this}},{key:"rotateSelf",value:function(){var t=arguments.length>0&&void 0!==arguments[0]?arguments[0]:0;if(t%=360){t=w(t);var n=M(t),e=E(t),r=this.m,i=r[0],u=r[1];r[0]=i*e+r[2]*n,r[1]=u*e+r[3]*n,r[2]=r[2]*e-i*n,r[3]=r[3]*e-u*n,this.w=this.s=this.i=null}return this}},{key:"scaleSelf",value:function(){var t=arguments.length>0&&void 0!==arguments[0]?arguments[0]:1,n=arguments.length>1&&void 0!==arguments[1]?arguments[1]:1;if(1!==t||1!==n){var e=this.m;e[0]*=t,e[1]*=t,e[2]*=n,e[3]*=n,this.w=this.s=this.i=null}return this}},{key:"skewSelf",value:function(t,n){if(n%=360,(t%=360)||n){var e=this.m,r=e[0],i=e[1],u=e[2],o=e[3];t&&(t=R(w(t)),e[2]+=r*t,e[3]+=i*t),n&&(n=R(w(n)),e[0]+=u*n,e[1]+=o*n),this.w=this.s=this.i=null}return this}},{key:"resetSelf",value:function(){var t=arguments.length>0&&void 0!==arguments[0]?arguments[0]:1,n=arguments.length>1&&void 0!==arguments[1]?arguments[1]:0,e=arguments.length>2&&void 0!==arguments[2]?arguments[2]:0,r=arguments.length>3&&void 0!==arguments[3]?arguments[3]:1,i=arguments.length>4&&void 0!==arguments[4]?arguments[4]:0,u=arguments.length>5&&void 0!==arguments[5]?arguments[5]:0,o=this.m;return o[0]=t,o[1]=n,o[2]=e,o[3]=r,o[4]=i,o[5]=u,this.w=this.s=this.i=null,this}},{key:"recomposeSelf",value:function(){var t=arguments.length>0&&void 0!==arguments[0]?arguments[0]:null,n=arguments.length>1&&void 0!==arguments[1]?arguments[1]:null,e=arguments.length>2&&void 0!==arguments[2]?arguments[2]:null,r=arguments.length>3&&void 0!==arguments[3]?arguments[3]:null,i=arguments.length>4&&void 0!==arguments[4]?arguments[4]:null;return this.isIdentity||this.resetSelf(),t&&(t.x||t.y)&&this.translateSelf(t.x,t.y),n&&this.rotateSelf(n),e&&(e.x&&this.skewSelf(e.x,0),e.y&&this.skewSelf(0,e.y)),!r||1===r.x&&1===r.y||this.scaleSelf(r.x,r.y),i&&(i.x||i.y)&&this.translateSelf(i.x,i.y),this}},{key:"decompose",value:function(){var t=arguments.length>0&&void 0!==arguments[0]?arguments[0]:0,n=arguments.length>1&&void 0!==arguments[1]?arguments[1]:0,e=this.m,r=e[0]*e[0]+e[1]*e[1],i=[[e[0],e[1]],[e[2],e[3]]],u=N(r);if(0===u)return{origin:{x:d(e[4]),y:d(e[5])},translate:{x:d(t),y:d(n)},scale:{x:0,y:0},skew:{x:0,y:0},rotate:0};i[0][0]/=u,i[0][1]/=u;var o=e[0]*e[3]-e[1]*e[2]<0;o&&(u=-u);var a=i[0][0]*i[1][0]+i[0][1]*i[1][1];i[1][0]-=i[0][0]*a,i[1][1]-=i[0][1]*a;var l,s=N(i[1][0]*i[1][0]+i[1][1]*i[1][1]);return 0===s?{origin:{x:d(e[4]),y:d(e[5])},translate:{x:d(t),y:d(n)},scale:{x:d(u),y:0},skew:{x:0,y:0},rotate:0}:(i[1][0]/=s,i[1][1]/=s,a/=s,i[1][1]<0?(l=x(P(i[1][1])),i[0][1]<0&&(l=360-l)):l=x(I(i[0][1])),o&&(l=-l),a=x(F(a,N(i[0][0]*i[0][0]+i[0][1]*i[0][1]))),o&&(a=-a),{origin:{x:d(e[4]),y:d(e[5])},translate:{x:d(t),y:d(n)},scale:{x:d(u),y:d(s)},skew:{x:d(a),y:0},rotate:d(l)})}},{key:"multiply",value:function(t){return this.clone().multiplySelf(t)}},{key:"preMultiply",value:function(t){return t.multiply(this)}},{key:"multiplySelf",value:function(t){var n=q(this.m,t.m),e=n.a,r=n.b,i=n.c,u=n.d,o=n.tx,a=n.ty;return this.resetSelf(e,r,i,u,o,a),this}},{key:"preMultiplySelf",value:function(t){var n=q(t.m,this.m),e=n.a,r=n.b,i=n.c,u=n.d,o=n.tx,a=n.ty;return this.resetSelf(e,r,i,u,o,a),this}},{key:"clone",value:function(){var t=this.m;return new this.constructor(t[0],t[1],t[2],t[3],t[4],t[5])}},{key:"toString",value:function(){var t=arguments.length>0&&void 0!==arguments[0]?arguments[0]:" ";if(null===this.s){var n=this.m.map((function(t){return d(t)}));1===n[0]&&0===n[1]&&0===n[2]&&1===n[3]?this.s="translate("+n[4]+t+n[5]+")":this.s="matrix("+n.join(t)+")"}return this.s}}],[{key:"create",value:function(t){return t?Array.isArray(t)?f(this,v(t)):t instanceof this?t.clone():(new this).recomposeSelf(t.origin,t.rotate,t.skew,t.scale,t.translate):new this}}]),t}();function q(t,n){return{a:t[0]*n[0]+t[2]*n[1],b:t[1]*n[0]+t[3]*n[1],c:t[0]*n[2]+t[2]*n[3],d:t[1]*n[2]+t[3]*n[3],tx:t[0]*n[4]+t[2]*n[5]+t[4],ty:t[1]*n[4]+t[3]*n[5]+t[5]}}function B(t,n,e){return t>=.5?e:n}function D(t,n,e){return 0===t||n===e?n:t*(e-n)+n}function L(t,n,e){var r=D(t,n,e);return r<=0?0:r}function C(t,n,e){var r=D(t,n,e);return r<=0?0:r>=1?1:r}function V(t,n,e){return 0===t?n:1===t?e:{x:D(t,n.x,e.x),y:D(t,n.y,e.y)}}function G(t,n,e){var r=function(t,n,e){return Math.round(D(t,n,e))}(t,n,e);return r<=0?0:r>=255?255:r}function z(t,n,e){return 0===t?n:1===t?e:{r:G(t,n.r,e.r),g:G(t,n.g,e.g),b:G(t,n.b,e.b),a:D(t,null==n.a?1:n.a,null==e.a?1:e.a)}}function Y(t,n){for(var e=[],r=0;r<t;r++)e.push(n);return e}function $(t,n){if(--n<=0)return t;var e=(t=Object.assign([],t)).length;do{for(var r=0;r<e;r++)t.push(t[r])}while(--n>0);return t}var U,Q=function(){function t(n){r(this,t),this.list=n,this.length=n.length}return u(t,[{key:"setAttribute",value:function(t,n){for(var e=this.list,r=0;r<this.length;r++)e[r].setAttribute(t,n)}},{key:"removeAttribute",value:function(t){for(var n=this.list,e=0;e<this.length;e++)n[e].removeAttribute(t)}},{key:"style",value:function(t,n){for(var e=this.list,r=0;r<this.length;r++)e[r].style[t]=n}}]),t}(),H=/-./g,J=function(t,n){return n.toUpperCase()};function Z(t){return"function"==typeof t?t:B}function K(t){return t?"function"==typeof t?t:Array.isArray(t)?function(t){var n=arguments.length>1&&void 0!==arguments[1]?arguments[1]:_;if(!Array.isArray(t))return n;switch(t.length){case 1:return j(t[0])||n;case 2:return j(t[0],t[1])||n;case 4:return k(t[0],t[1],t[2],t[3])||n}return n}(t,null):function(t,n){var e=arguments.length>2&&void 0!==arguments[2]?arguments[2]:_;switch(t){case"linear":return _;case"steps":return j(n.steps||1,n.jump||0)||e;case"bezier":case"cubic-bezier":return k(n.x1||0,n.y1||0,n.x2||0,n.y2||0)||e}return e}(t.type,t.value,null):null}function W(t,n,e){var r=arguments.length>3&&void 0!==arguments[3]&&arguments[3],i=n.length-1;if(t<=n[0].t)return r?[0,0,n[0].v]:n[0].v;if(t>=n[i].t)return r?[i,1,n[i].v]:n[i].v;var u,o=n[0],a=null;for(u=1;u<=i;u++){if(!(t>n[u].t)){a=n[u];break}o=n[u]}return null==a?r?[i,1,n[i].v]:n[i].v:o.t===a.t?r?[u,1,a.v]:a.v:(t=(t-o.t)/(a.t-o.t),o.e&&(t=o.e(t)),r?[u,t,e(t,o.v,a.v)]:e(t,o.v,a.v))}function X(t,n){var e=arguments.length>2&&void 0!==arguments[2]?arguments[2]:null;return t&&t.length?"function"!=typeof n?null:("function"!=typeof e&&(e=null),function(r){var i=W(r,t,n);return null!=i&&e&&(i=e(i)),i}):null}function tt(t,n){return t.t-n.t}function nt(t,n,r,i,u){var o,a="@"===r[0],l="#"===r[0],s=U[r],f=B;switch(a?(o=r.substr(1),r=o.replace(H,J)):l&&(r=r.substr(1)),e(s)){case"function":if(f=s(i,u,W,K,r,a,n,t),l)return f;break;case"string":f=X(i,Z(s));break;case"object":if((f=X(i,Z(s.i),s.f))&&"function"==typeof s.u)return s.u(n,f,r,a,t)}return f?function(t,n,e){if(arguments.length>3&&void 0!==arguments[3]&&arguments[3])return t instanceof Q?function(r){return t.style(n,e(r))}:function(r){return t.style[n]=e(r)};if(Array.isArray(n)){var r=n.length;return function(i){var u=e(i);if(null==u)for(var o=0;o<r;o++)t[o].removeAttribute(n);else for(var a=0;a<r;a++)t[a].setAttribute(n,u)}}return function(r){var i=e(r);null==i?t.removeAttribute(n):t.setAttribute(n,i)}}(n,r,f,a):null}function et(t,n,r,i){if(!i||"object"!==e(i))return null;var u=null,o=null;return Array.isArray(i)?o=function(t){if(!t||!t.length)return null;for(var n=0;n<t.length;n++)t[n].e&&(t[n].e=K(t[n].e));return t.sort(tt)}(i):(o=i.keys,u=i.data||null),o?nt(t,n,r,o,u):null}function rt(t,n,e){if(!e)return null;var r=[];for(var i in e)if(e.hasOwnProperty(i)){var u=et(t,n,i,e[i]);u&&r.push(u)}return r.length?r:null}function it(t,n){if(!n.settings.duration||n.settings.duration<0)return null;var e,r,i,u,o,a=function(t,n){if(!n)return null;var e=[];if(Array.isArray(n))for(var r=n.length,i=0;i<r;i++){var u=n[i];if(2===u.length){var o=null;if("string"==typeof u[0])o=t.getElementById(u[0]);else if(Array.isArray(u[0])){o=[];for(var a=0;a<u[0].length;a++)if("string"==typeof u[0][a]){var l=t.getElementById(u[0][a]);l&&o.push(l)}o=o.length?1===o.length?o[0]:new Q(o):null}if(o){var s=rt(t,o,u[1]);s&&(e=e.concat(s))}}}else for(var f in n)if(n.hasOwnProperty(f)){var c=t.getElementById(f);if(c){var h=rt(t,c,n[f]);h&&(e=e.concat(h))}}return e.length?e:null}(t,n.elements);return a?(e=a,r=n.settings,i=r.duration,u=e.length,o=null,function(t,n){var a=r.iterations||1/0,l=(r.alternate&&a%2==0)^r.direction>0?i:0,s=t%i,f=1+(t-s)/i;n*=r.direction,r.alternate&&f%2==0&&(n=-n);var c=!1;if(f>a)s=l,c=!0,-1===r.fill&&(s=r.direction>0?0:i);else if(n<0&&(s=i-s),s===o)return!1;o=s;for(var h=0;h<u;h++)e[h](s);return c}):null}function ut(t,n){for(var e=n.querySelectorAll("svg"),r=0;r<e.length;r++)if(e[r].id===t.root&&!e[r].svgatorAnimation)return e[r].svgatorAnimation=!0,e[r];return null}function ot(t){var n=function(t){return t.shadowRoot};return document?Array.from(t.querySelectorAll(":not("+["a","area","audio","br","canvas","circle","datalist","embed","g","head","hr","iframe","img","input","link","object","path","polygon","rect","script","source","style","svg","title","track","video"].join()+")")).filter(n).map(n):[]}function at(t){var n=arguments.length>1&&void 0!==arguments[1]?arguments[1]:document,e=arguments.length>2&&void 0!==arguments[2]?arguments[2]:0,r=ut(t,n);if(r)return r;if(e>=20)return null;for(var i=ot(n),u=0;u<i.length;u++){var o=at(t,i[u],e+1);if(o)return o}return null}function lt(t,n){if(U=n,!t||!t.root||!Array.isArray(t.animations))return null;var e=at(t);if(!e)return null;var r=t.animations.map((function(t){return it(e,t)})).filter((function(t){return!!t}));return r.length?{svg:e,animations:r,animationSettings:t.animationSettings,options:t.options||void 0}:null}function st(t){var n=arguments.length>1&&void 0!==arguments[1]?arguments[1]:null,e=arguments.length>2&&void 0!==arguments[2]?arguments[2]:Number,r=arguments.length>3&&void 0!==arguments[3]?arguments[3]:"undefined"!=typeof BigInt&&BigInt,i="0x"+(t.replace(/[^0-9a-fA-F]+/g,"")||27);return n&&r&&e.isSafeInteger&&!e.isSafeInteger(+i)?e(r(i))%n+n:+i}function ft(t,n,e){return!t||!e||n>t.length?t:t.substring(0,n)+ft(t.substring(n+1),e,e)}function ct(t){var n=arguments.length>1&&void 0!==arguments[1]?arguments[1]:27;return!t||t%n?t%n:[0,1].includes(n)?n:ct(t/n,n)}function ht(t,n,e){if(t&&t.length){var r=st(e),i=ct(r)+5,u=ft(t,ct(r,5),i);return u=u.replace(/\x7c$/g,"==").replace(/\x2f$/g,"="),u=function(t,n,e){var r=+("0x"+t.substring(0,4));t=t.substring(4);for(var i=st(n,r)%r+e%27,u=[],o=0;o<t.length;o+=2)if("|"!==t[o]){var a=+("0x"+t[o]+t[o+1])-i;u.push(a)}else{var l=+("0x"+t.substring(o+1,o+1+4))-i;o+=3,u.push(l)}return String.fromCharCode.apply(String,u)}(u=(u=atob(u)).replace(/[\x41-\x5A]/g,""),n,r),u=JSON.parse(u)}}var vt=[{key:"alternate",def:!1},{key:"fill",def:1},{key:"iterations",def:0},{key:"direction",def:1},{key:"speed",def:1},{key:"fps",def:100}],yt=function(){function t(n,e){var i=this,u=arguments.length>2&&void 0!==arguments[2]?arguments[2]:null;r(this,t),this._id=0,this._running=!1,this._rollingBack=!1,this._animations=n,this._settings=e,(!u||u<"2022-05-02")&&delete this._settings.speed,vt.forEach((function(t){i._settings[t.key]=i._settings[t.key]||t.def})),this.duration=e.duration,this.offset=e.offset||0,this.rollbackStartOffset=0}return u(t,[{key:"alternate",get:function(){return this._settings.alternate}},{key:"fill",get:function(){return this._settings.fill}},{key:"iterations",get:function(){return this._settings.iterations}},{key:"direction",get:function(){return this._settings.direction}},{key:"speed",get:function(){return this._settings.speed}},{key:"fps",get:function(){return this._settings.fps}},{key:"maxFiniteDuration",get:function(){return this.iterations>0?this.iterations*this.duration:this.duration}},{key:"_apply",value:function(t){for(var n=arguments.length>1&&void 0!==arguments[1]?arguments[1]:{},e=this._animations,r=e.length,i=0,u=0;u<r;u++)n[u]?i++:(n[u]=e[u](t,1),n[u]&&i++);return i}},{key:"_rollback",value:function(t){var n=this,e=1/0,r=null;this.rollbackStartOffset=t,this._rollingBack=!0,this._running=!0;this._id=window.requestAnimationFrame((function i(u){if(n._rollingBack){null==r&&(r=u);var o=Math.round(t-(u-r)*n.speed);if(o>n.duration&&e!==1/0){var a=!!n.alternate&&o/n.duration%2>1,l=o%n.duration;o=(l+=a?n.duration:0)||n.duration}var s=(n.fps?1e3/n.fps:0)*n.speed,f=Math.max(0,o);f<=e-s&&(n.offset=f,e=f,n._apply(f));var c=n.iterations>0&&-1===n.fill&&o>=n.maxFiniteDuration;(o<=0||n.offset<o||c)&&n.stop(),n._id=window.requestAnimationFrame(i)}}))}},{key:"_start",value:function(){var t=this,n=arguments.length>0&&void 0!==arguments[0]?arguments[0]:0,e=-1/0,r=null,i={};this._running=!0;var u=function u(o){null==r&&(r=o);var a=Math.round((o-r)*t.speed+n),l=(t.fps?1e3/t.fps:0)*t.speed;if(a>=e+l&&!t._rollingBack&&(t.offset=a,e=a,t._apply(a,i)===t._animations.length))return void t.pause(!0);t._id=window.requestAnimationFrame(u)};this._id=window.requestAnimationFrame(u)}},{key:"_pause",value:function(){this._id&&window.cancelAnimationFrame(this._id),this._running=!1}},{key:"play",value:function(){if(!this._running)return this._rollingBack?this._rollback(this.offset):this._start(this.offset)}},{key:"stop",value:function(){this._pause(),this.offset=0,this.rollbackStartOffset=0,this._rollingBack=!1,this._apply(0)}},{key:"reachedToEnd",value:function(){return this.iterations>0&&this.offset>=this.iterations*this.duration}},{key:"restart",value:function(){var t=arguments.length>0&&void 0!==arguments[0]&&arguments[0];this.stop(t),this.play(t)}},{key:"pause",value:function(){this._pause()}},{key:"reverse",value:function(){this.direction=-this.direction}}],[{key:"build",value:function(t,n){delete t.animationSettings,t.options=ht(t.options,t.root,"5c7f360c"),t.animations.map((function(n){n.settings=ht(n.s,t.root,"5c7f360c"),delete n.s,t.animationSettings||(t.animationSettings=n.settings)}));var e=t.version;if(!(t=lt(t,n)))return null;var r=t.options||{},i=new this(t.animations,t.animationSettings,e);return{el:t.svg,options:r,player:i}}},{key:"push",value:function(t){return this.build(t)}},{key:"init",value:function(){var t=this,n=window.__SVGATOR_PLAYER__&&window.__SVGATOR_PLAYER__["5c7f360c"];Array.isArray(n)&&n.splice(0).forEach((function(n){return t.build(n)}))}}]),t}();function gt(t){return d(t)+""}function pt(t){var n=arguments.length>1&&void 0!==arguments[1]?arguments[1]:" ";return t&&t.length?t.map(gt).join(n):""}function dt(t){return t?null==t.a||t.a>=1?function(t){if(!t)return"transparent";var n=function(t){return parseInt(t).toString(16).padStart(2,"0")};return function(t){for(var n=[],e="#"===t[0]?n.push("#"):0;e<t.length;e+=2){if(t[e]!==t[e+1])return t;n.push(t[e])}return n.join("")}("#"+n(t.r)+n(t.g)+n(t.b)+(null==t.a||t.a>=1?"":n(255*t.a)))}(t):"rgba("+t.r+","+t.g+","+t.b+","+t.a+")":"transparent"}function mt(t){return t?"url(#"+t+")":"none"}!function(){for(var t=0,n=["ms","moz","webkit","o"],e=0;e<n.length&&!window.requestAnimationFrame;++e)window.requestAnimationFrame=window[n[e]+"RequestAnimationFrame"],window.cancelAnimationFrame=window[n[e]+"CancelAnimationFrame"]||window[n[e]+"CancelRequestAnimationFrame"];window.requestAnimationFrame||(window.requestAnimationFrame=function(n){var e=Date.now(),r=Math.max(0,16-(e-t)),i=window.setTimeout((function(){n(e+r)}),r);return t=e+r,i},window.cancelAnimationFrame=window.clearTimeout)}();var bt={f:null,i:function(t,n,e){return 0===t?n:1===t?e:{x:L(t,n.x,e.x),y:L(t,n.y,e.y)}},u:function(t,n){return function(e){var r=n(e);t.setAttribute("rx",gt(r.x)),t.setAttribute("ry",gt(r.y))}}},wt={f:null,i:function(t,n,e){return 0===t?n:1===t?e:{width:L(t,n.width,e.width),height:L(t,n.height,e.height)}},u:function(t,n){return function(e){var r=n(e);t.setAttribute("width",gt(r.width)),t.setAttribute("height",gt(r.height))}}};Object.freeze({M:2,L:2,Z:0,H:1,V:1,C:6,Q:4,T:2,S:4,A:7});var xt={},_t=null;function At(t){var n=function(){if(_t)return _t;if("object"!==("undefined"==typeof document?"undefined":e(document))||!document.createElementNS)return{};var t=document.createElementNS("http://www.w3.org/2000/svg","svg");return t&&t.style?(t.style.position="absolute",t.style.opacity="0.01",t.style.zIndex="-9999",t.style.left="-9999px",t.style.width="1px",t.style.height="1px",_t={svg:t}):{}}().svg;if(!n)return function(t){return null};var r=document.createElementNS(n.namespaceURI,"path");r.setAttributeNS(null,"d",t),r.setAttributeNS(null,"fill","none"),r.setAttributeNS(null,"stroke","none"),n.appendChild(r);var i=r.getTotalLength();return function(t){var n=r.getPointAtLength(i*t);return{x:n.x,y:n.y}}}function kt(t){return xt[t]?xt[t]:xt[t]=At(t)}function St(t,n,e,r){if(!t||!r)return!1;var i=["M",t.x,t.y];if(n&&e&&(i.push("C"),i.push(n.x),i.push(n.y),i.push(e.x),i.push(e.y)),n?!e:e){var u=n||e;i.push("Q"),i.push(u.x),i.push(u.y)}return n||e||i.push("L"),i.push(r.x),i.push(r.y),i.join(" ")}function Ot(t,n,e,r){var i=arguments.length>4&&void 0!==arguments[4]?arguments[4]:1,u=St(t,n,e,r),o=kt(u);try{return o(i)}catch(t){return null}}function jt(t,n,e){return t+(n-t)*e}function Mt(t,n,e){var r=arguments.length>3&&void 0!==arguments[3]&&arguments[3],i={x:jt(t.x,n.x,e),y:jt(t.y,n.y,e)};return r&&(i.a=Et(t,n)),i}function Et(t,n){return Math.atan2(n.y-t.y,n.x-t.x)}function Pt(t,n,e,r){var i=1-r;return i*i*t+2*i*r*n+r*r*e}function It(t,n,e,r){return 2*(1-r)*(n-t)+2*r*(e-n)}function Rt(t,n,e,r){var i=arguments.length>4&&void 0!==arguments[4]&&arguments[4],u=Ot(t,n,null,e,r);return u||(u={x:Pt(t.x,n.x,e.x,r),y:Pt(t.y,n.y,e.y,r)}),i&&(u.a=Ft(t,n,e,r)),u}function Ft(t,n,e,r){return Math.atan2(It(t.y,n.y,e.y,r),It(t.x,n.x,e.x,r))}function Nt(t,n,e,r,i){var u=i*i;return i*u*(r-t+3*(n-e))+3*u*(t+e-2*n)+3*i*(n-t)+t}function Tt(t,n,e,r,i){var u=1-i;return 3*(u*u*(n-t)+2*u*i*(e-n)+i*i*(r-e))}function qt(t,n,e,r,i){var u=arguments.length>5&&void 0!==arguments[5]&&arguments[5],o=Ot(t,n,e,r,i);return o||(o={x:Nt(t.x,n.x,e.x,r.x,i),y:Nt(t.y,n.y,e.y,r.y,i)}),u&&(o.a=Bt(t,n,e,r,i)),o}function Bt(t,n,e,r,i){return Math.atan2(Tt(t.y,n.y,e.y,r.y,i),Tt(t.x,n.x,e.x,r.x,i))}function Dt(t,n,e){var r=arguments.length>3&&void 0!==arguments[3]&&arguments[3];if(Ct(n)){if(Vt(e))return Rt(n,e.start,e,t,r)}else if(Ct(e)){if(Gt(n))return Rt(n,n.end,e,t,r)}else{if(Gt(n))return Vt(e)?qt(n,n.end,e.start,e,t,r):Rt(n,n.end,e,t,r);if(Vt(e))return Rt(n,e.start,e,t,r)}return Mt(n,e,t,r)}function Lt(t,n,e){var r=Dt(t,n,e,!0);return r.a=x(function(t){return arguments.length>1&&void 0!==arguments[1]&&arguments[1]?t+Math.PI:t}(r.a)),r}function Ct(t){return!t.type||"corner"===t.type}function Vt(t){return null!=t.start&&!Ct(t)}function Gt(t){return null!=t.end&&!Ct(t)}var zt=new T;var Yt={f:gt,i:D},$t={f:gt,i:C};function Ut(t,n,e){return t.map((function(t){return function(t,n,e){var r=t.v;if(!r||"g"!==r.t||r.s||!r.v||!r.r)return t;var i=e.getElementById(r.r),u=i&&i.querySelectorAll("stop")||[];return r.s=r.v.map((function(t,n){var e=u[n]&&u[n].getAttribute("offset");return{c:t,o:e=d(parseInt(e)/100)}})),delete r.v,t}(t,0,e)}))}var Qt={gt:"gradientTransform",c:{x:"cx",y:"cy"},rd:"r",f:{x:"x1",y:"y1"},to:{x:"x2",y:"y2"}};function Ht(t,n,r,i,u,o,a,l){return Ut(t,0,l),n=function(t,n,e){for(var r,i,u,o=t.length-1,a={},l=0;l<=o;l++)(r=t[l]).e&&(r.e=n(r.e)),r.v&&"g"===(i=r.v).t&&i.r&&(u=e.getElementById(i.r))&&(a[i.r]={e:u,s:u.querySelectorAll("stop")});return a}(t,i,l),function(i){var u=r(i,t,Jt);if(!u)return"none";if("c"===u.t)return dt(u.v);if("g"===u.t){if(!n[u.r])return mt(u.r);var o=n[u.r];return function(t,n){for(var e=t.s,r=e.length;r<n.length;r++){var i=e[e.length-1].cloneNode();i.id=Wt(i.id),t.e.appendChild(i),e=t.s=t.e.querySelectorAll("stop")}for(var u=0,o=e.length,a=n.length-1;u<o;u++)e[u].setAttribute("stop-color",dt(n[Math.min(u,a)].c)),e[u].setAttribute("offset",n[Math.min(u,a)].o)}(o,u.s),Object.keys(Qt).forEach((function(t){if(void 0!==u[t])if("object"!==e(Qt[t])){var n,r="gt"===t?(n=u[t],Array.isArray(n)?"matrix("+n.join(" ")+")":""):u[t],i=Qt[t];o.e.setAttribute(i,r)}else Object.keys(Qt[t]).forEach((function(n){if(void 0!==u[t][n]){var e=u[t][n],r=Qt[t][n];o.e.setAttribute(r,e)}}))})),mt(u.r)}return"none"}}function Jt(t,e,r){if(0===t)return e;if(1===t)return r;if(e&&r){var i=e.t;if(i===r.t)switch(e.t){case"c":return{t:i,v:z(t,e.v,r.v)};case"g":if(e.r===r.r){var u={t:i,s:Zt(t,e.s,r.s),r:e.r};return e.gt&&r.gt&&(u.gt=function(t,n,e){var r=n.length;if(r!==e.length)return B(t,n,e);for(var i=new Array(r),u=0;u<r;u++)i[u]=D(t,n[u],e[u]);return i}(t,e.gt,r.gt)),e.c?(u.c=V(t,e.c,r.c),u.rd=L(t,e.rd,r.rd)):e.f&&(u.f=V(t,e.f,r.f),u.to=V(t,e.to,r.to)),u}}if("c"===e.t&&"g"===r.t||"c"===r.t&&"g"===e.t){var o="c"===e.t?e:r,a="g"===e.t?n({},e):n({},r),l=a.s.map((function(t){return{c:o.v,o:t.o}}));return a.s="c"===e.t?Zt(t,l,a.s):Zt(t,a.s,l),a}}return B(t,e,r)}function Zt(t,n,e){if(n.length===e.length)return n.map((function(n,r){return Kt(t,n,e[r])}));for(var r=Math.max(n.length,e.length),i=[],u=0;u<r;u++){var o=Kt(t,n[Math.min(u,n.length-1)],e[Math.min(u,e.length-1)]);i.push(o)}return i}function Kt(t,n,e){return{o:C(t,n.o,e.o||0),c:z(t,n.c,e.c||{})}}function Wt(t){return t.replace(/-fill-([0-9]+)$/,(function(t,n){return"-fill-"+(+n+1)}))}var Xt={fill:Ht,"fill-opacity":$t,stroke:Ht,"stroke-opacity":$t,"stroke-width":Yt,"stroke-dashoffset":{f:gt,i:D},"stroke-dasharray":{f:function(t){var n=arguments.length>1&&void 0!==arguments[1]?arguments[1]:" ";return t&&t.length>0&&(t=t.map((function(t){return d(t,4)}))),pt(t,n)},i:function(t,n,e){var r,i,u,o=n.length,a=e.length;if(o!==a)if(0===o)n=Y(o=a,0);else if(0===a)a=o,e=Y(o,0);else{var l=(u=(r=o)*(i=a)/function(t,n){for(var e;n;)e=n,n=t%n,t=e;return t||1}(r,i))<0?-u:u;n=$(n,Math.floor(l/o)),e=$(e,Math.floor(l/a)),o=a=l}for(var s=[],f=0;f<o;f++)s.push(d(L(t,n[f],e[f])));return s}},opacity:$t,transform:function(t,n,r,i){if(!(t=function(t,n){if(!t||"object"!==e(t))return null;var r=!1;for(var i in t)t.hasOwnProperty(i)&&(t[i]&&t[i].length?(t[i].forEach((function(t){t.e&&(t.e=n(t.e))})),r=!0):delete t[i]);return r?t:null}(t,i)))return null;var u=function(e,i,u){var o=arguments.length>3&&void 0!==arguments[3]?arguments[3]:null;return t[e]?r(i,t[e],u):n&&n[e]?n[e]:o};return n&&n.a&&t.o?function(n){var e=r(n,t.o,Lt);return zt.recomposeSelf(e,u("r",n,D,0)+e.a,u("k",n,V),u("s",n,V),u("t",n,V)).toString()}:function(t){return zt.recomposeSelf(u("o",t,Dt,null),u("r",t,D,0),u("k",t,V),u("s",t,V),u("t",t,V)).toString()}},r:Yt,"#size":wt,"#radius":bt,_:function(t,n){if(Array.isArray(t))for(var e=0;e<t.length;e++)this[t[e]]=n;else this[t]=n}},tn=function(t){!function(t,n){if("function"!=typeof n&&null!==n)throw new TypeError("Super expression must either be null or a function");t.prototype=Object.create(n&&n.prototype,{constructor:{value:t,writable:!0,configurable:!0}}),n&&l(t,n)}(o,t);var n,e,i=(n=o,e=s(),function(){var t,r=a(n);if(e){var i=a(this).constructor;t=Reflect.construct(r,arguments,i)}else t=r.apply(this,arguments);return c(this,t)});function o(){return r(this,o),i.apply(this,arguments)}return u(o,null,[{key:"build",value:function(t){var n=h(a(o),"build",this).call(this,t,Xt);if(!n)return null;n.el,n.options,function(t,n,e){t.play()}(n.player)}}]),o}(yt);return tn.init(),tn}));
(function(s,i,o,w,d,a,b){w[o]=w[o]||{};w[o][s]=w[o][s]||[];w[o][s].push(i);})('5c7f360c',{"root":"e5jzC8VnoXb1","version":"2022-05-04","animations":[{"elements":{"e5jzC8VnoXb2":{"transform":{"data":{"t":{"x":-1746.644592,"y":-1217.588806}},"keys":{"o":[{"t":0,"v":{"x":1746.644592,"y":1217.588806,"type":"corner"}},{"t":1300,"v":{"x":1466.49798,"y":1395.863924,"type":"corner"}},{"t":3000,"v":{"x":1746.644592,"y":1217.588806,"type":"corner","start":{"x":1746.644592,"y":1217.588806}},"e":[0.25,1,0.25,1]}],"r":[{"t":0,"v":0},{"t":2300,"v":14.709184},{"t":3000,"v":0}]}}},"e5jzC8VnoXb3":{"transform":{"data":{"o":{"x":1651.615112,"y":1370.86,"type":"corner"},"t":{"x":-1651.615111,"y":-1370.859999}},"keys":{"r":[{"t":0,"v":-8.532083},{"t":800,"v":16.260157},{"t":1600,"v":25.861926},{"t":1800,"v":11.894102},{"t":2300,"v":5.043023},{"t":3000,"v":-8.532083}],"s":[{"t":0,"v":{"x":1.002173,"y":1.114885}},{"t":1000,"v":{"x":0.868076,"y":1.115625}},{"t":1800,"v":{"x":0.994851,"y":1.096922}},{"t":3000,"v":{"x":1.002173,"y":1.114885}}]}}},"e5jzC8VnoXb5":{"transform":{"data":{"o":{"x":2040.860627,"y":1528.672639,"type":"corner"},"t":{"x":-2040.860627,"y":-1528.672639}},"keys":{"r":[{"t":0,"v":0},{"t":800,"v":6.173866},{"t":1700,"v":-2.229934},{"t":3000,"v":0}]}}},"e5jzC8VnoXb10":{"transform":{"data":{"o":{"x":1952.548174,"y":1417.679362,"type":"corner"},"t":{"x":-1952.548174,"y":-1417.679362}},"keys":{"r":[{"t":0,"v":0},{"t":1000,"v":-3.845485},{"t":1800,"v":1.618644},{"t":3000,"v":0}]}}},"e5jzC8VnoXb17":{"transform":{"data":{"o":{"x":2315.002469,"y":1249.197706,"type":"corner"},"t":{"x":-2315.002469,"y":-1249.197706}},"keys":{"r":[{"t":0,"v":0},{"t":800,"v":-6.62571},{"t":1700,"v":6.290627},{"t":3000,"v":0}]}}},"e5jzC8VnoXb26":{"transform":{"data":{"o":{"x":1997.850544,"y":1134.017693,"type":"corner"},"t":{"x":-1992.61043,"y":-1138.771589}},"keys":{"r":[{"t":0,"v":0},{"t":1030,"v":6.063439},{"t":2400,"v":-13.511839},{"t":3000,"v":0}]}}},"e5jzC8VnoXb35":{"transform":{"keys":{"o":[{"t":0,"v":{"x":0.000002,"y":0,"type":"corner"}},{"t":600,"v":{"x":-36.570553,"y":-49.981045,"type":"corner"}},{"t":1300,"v":{"x":28.969726,"y":-13.338577,"type":"corner"}},{"t":3000,"v":{"x":0.000002,"y":0,"type":"corner","start":{"x":0.000002,"y":0}}}]}}},"e5jzC8VnoXb42":{"transform":{"data":{"o":{"x":2412.133931,"y":1254.195552,"type":"corner"},"t":{"x":-2412.133931,"y":-1254.195552}},"keys":{"r":[{"t":0,"v":0},{"t":1000,"v":18.701949},{"t":2200,"v":3.646855},{"t":3000,"v":0}]}}},"e5jzC8VnoXb46":{"transform":{"data":{"o":{"x":2485.776371,"y":1086.581747,"type":"corner"},"t":{"x":-2470.122925,"y":-1085.006622}},"keys":{"s":[{"t":0,"v":{"x":1,"y":1}},{"t":700,"v":{"x":0.99905,"y":0.523973}},{"t":3000,"v":{"x":1,"y":1}}]}}}},"s":"MXDA1ZDhhMzE3Mzg0ODWE3MDgzNzhBN2U3ZDMOxUjQ5RDQyM2YzZjNmEM2IzMTczTTc4ODE3NYDcyODM3ODdlN2QzMUPc0OTQwM2IzMTc4ODMH3NDgxNzA4Mzc4N2U3UZFA4Mk8zMTQ5M2YzYRjMxTzc1Nzg3YjdiMzPFUNDlXNDAzYjMxNzAW3YjgzNzQ4MTdkNzA4FMzc0RTMxNDk3NTcwNP2I4Mjc0M2IzMTgyN2RY3NEo3NDczVzMxNDkO0MDNiTTMxNzU3ZjgyBMzE0OTQwM2YzZjhj"}],"options":"MUDAxMDg4MmY4MDgxNmRU3ZkM4MTJmNDcyZjcN5N2M2ZTcxMmY4YQ|"},'__SVGATOR_PLAYER__',window,document)
]]></script>
</svg>
