<?xml version="1.0" standalone="no"?>
<!DOCTYPE svg PUBLIC "-//W3C//DTD SVG 20010904//EN"
 "http://www.w3.org/TR/2001/REC-SVG-20010904/DTD/svg10.dtd">
<svg version="1.0" xmlns="http://www.w3.org/2000/svg"
 width="750.000000pt" height="1000.000000pt" viewBox="0 0 750.000000 1000.000000"
 preserveAspectRatio="xMidYMid meet">
<metadata>
Created by potrace 1.16, written by Peter Selinger 2001-2019
</metadata>
<g transform="translate(0.000000,1000.000000) scale(0.100000,-0.100000)"
fill="#000000" stroke="none">
<path d="M473 6496 c-57 -18 -98 -49 -133 -102 -17 -24 -37 -44 -44 -44 -7 0
-33 -18 -58 -40 -60 -52 -90 -122 -87 -200 2 -58 2 -59 -42 -92 -67 -51 -101
-114 -107 -197 -2 -38 1 -91 8 -120 13 -56 63 -129 104 -150 l26 -14 0 -537 0
-537 -26 -14 c-41 -21 -91 -94 -104 -150 -7 -29 -10 -82 -8 -120 6 -83 40
-146 107 -197 44 -33 44 -34 42 -92 -4 -97 47 -188 130 -230 20 -11 46 -35 57
-54 26 -44 92 -93 146 -107 81 -22 176 2 241 60 17 15 49 33 72 40 62 17 123
68 156 131 27 50 29 62 24 130 l-5 75 237 0 236 0 66 33 c51 24 80 32 121 32
l55 0 70 -78 c112 -123 204 -160 317 -128 57 17 83 38 190 154 l39 43 126 -2
c145 -3 174 5 244 70 l43 40 50 -36 c66 -48 195 -109 274 -130 93 -24 271 -24
375 1 43 11 122 41 174 68 l95 47 44 -29 c51 -34 132 -66 205 -82 75 -16 239
-4 314 22 l63 22 32 -20 c83 -51 238 -69 363 -42 44 9 225 13 700 14 708 1
671 -2 757 66 l36 30 74 -35 c125 -59 214 -78 368 -78 105 0 152 4 211 21 305
83 524 296 615 599 24 77 27 106 27 228 0 113 -4 155 -21 219 -112 410 -508
683 -924 636 -165 -19 -345 -96 -468 -200 l-36 -30 -64 63 c-116 112 -242 160
-415 160 -62 0 -118 -6 -149 -16 -34 -11 -56 -13 -73 -6 -13 5 -58 9 -99 9
-64 0 -105 -9 -284 -65 l-209 -66 -53 36 c-68 44 -191 89 -291 105 -101 17
-339 8 -427 -16 -81 -21 -158 -55 -216 -94 l-45 -30 -45 31 c-182 125 -466
159 -694 83 -80 -27 -190 -87 -243 -134 l-32 -28 -39 34 c-59 51 -118 65 -243
57 l-104 -6 -92 96 c-83 86 -98 97 -150 112 -115 33 -184 6 -312 -120 -77 -76
-89 -85 -123 -85 -85 0 -80 -10 -84 193 -3 164 -5 186 -25 223 -26 49 -80 98
-131 120 -61 27 -172 22 -274 -10 l-87 -28 -40 22 c-35 20 -38 25 -30 47 5 13
9 50 9 82 0 109 -70 203 -175 237 -27 9 -63 29 -80 44 -66 61 -168 84 -252 56z
m176 -338 c20 -1 44 -2 54 -1 23 0 22 -3 -14 -48 -32 -41 -33 -46 -13 -123 l6
-27 -51 21 -52 20 -45 -30 -44 -31 0 58 c0 56 -2 59 -40 87 -22 16 -38 31 -36
34 3 2 25 9 51 16 45 11 49 15 67 65 l20 53 30 -46 c26 -40 35 -46 67 -48z
m220 -370 c0 -15 -15 -34 -42 -53 -23 -17 -52 -46 -64 -64 l-23 -34 0 -637 0
-637 23 -34 c12 -18 41 -47 64 -64 27 -19 42 -38 42 -52 l1 -23 -305 0 -305 0
0 25 c0 15 8 29 23 36 32 17 77 60 93 91 12 22 14 135 14 661 l0 634 -23 34
c-12 18 -41 47 -64 64 -27 19 -42 38 -42 53 l-1 22 305 0 305 0 -1 -22z m438
-482 l-2 -503 49 -2 c27 -1 90 -6 140 -11 129 -14 166 -13 166 4 0 15 -40 22
-192 32 -54 4 -98 10 -98 14 0 4 7 13 15 20 13 11 38 10 138 -5 67 -9 125 -18
129 -19 5 0 19 23 33 52 l24 52 -104 78 c-88 65 -104 81 -105 105 0 26 6 23
111 -68 83 -72 114 -94 123 -85 12 13 2 23 -152 153 -78 66 -92 82 -92 107 0
27 3 30 33 30 29 0 42 -13 136 -125 98 -117 119 -135 128 -108 3 9 -72 107
-165 216 -14 16 -13 17 11 17 22 0 38 -15 89 -86 103 -142 86 -129 146 -108
29 10 52 23 52 29 0 5 -9 64 -19 130 -19 115 -19 121 -1 138 17 18 18 17 23
-25 4 -23 9 -87 13 -141 5 -71 11 -100 21 -104 8 -3 17 -3 20 1 3 3 1 79 -6
167 l-12 162 24 25 25 24 16 -25 c15 -22 16 -40 6 -158 -6 -74 -12 -149 -15
-166 -3 -27 0 -33 16 -33 13 0 19 7 19 21 0 39 22 264 26 268 3 3 11 -2 20
-11 14 -14 14 -26 -1 -124 -9 -60 -18 -121 -21 -136 -4 -17 -1 -28 6 -28 6 0
29 -9 52 -20 26 -12 45 -16 52 -11 6 5 43 52 81 105 61 83 74 95 99 96 l30 0
-25 -27 c-124 -136 -170 -195 -159 -208 9 -11 32 11 119 113 91 109 111 127
139 130 30 3 32 1 32 -30 0 -30 -12 -43 -125 -137 -69 -57 -125 -107 -125
-110 0 -3 4 -12 8 -19 6 -8 41 15 123 82 100 83 114 92 117 73 4 -24 -6 -34
-131 -124 l-86 -63 21 -47 c11 -27 22 -50 24 -52 1 -1 61 5 133 14 105 14 134
15 146 5 8 -7 15 -16 15 -20 0 -4 -57 -10 -127 -14 -71 -4 -136 -9 -145 -12
-20 -6 -25 -34 -5 -34 24 0 320 30 322 32 1 2 9 40 17 85 35 182 154 345 309
422 99 50 171 65 279 58 155 -9 269 -62 332 -152 34 -49 51 -129 37 -178 -20
-72 -117 -126 -203 -112 -83 14 -116 59 -116 162 0 113 -42 183 -108 183 -73
0 -131 -103 -157 -279 -45 -294 19 -502 184 -599 39 -23 57 -27 121 -27 90 1
148 25 217 92 l46 45 30 -30 30 -30 -26 -44 c-34 -58 -122 -140 -184 -171
-110 -56 -273 -73 -384 -41 -132 39 -270 147 -336 264 -31 57 -67 157 -77 222
-7 36 -8 37 -59 43 -54 6 -266 25 -279 25 -5 0 -8 -8 -8 -19 0 -21 26 -26 193
-37 53 -4 97 -10 97 -14 0 -4 -7 -13 -16 -20 -12 -11 -37 -10 -137 5 -67 9
-127 19 -133 22 -6 2 -19 -18 -30 -44 -10 -26 -20 -51 -22 -54 -1 -4 46 -43
106 -88 96 -71 109 -84 104 -106 -4 -23 -10 -19 -112 70 -59 52 -113 95 -118
95 -5 0 -12 -6 -15 -14 -4 -10 37 -51 119 -121 114 -98 124 -109 124 -141 0
-29 -3 -34 -25 -34 -19 0 -47 28 -131 128 -95 113 -132 145 -135 119 -1 -5 34
-52 77 -105 114 -138 110 -132 81 -132 -20 0 -40 20 -99 102 -40 56 -76 105
-79 110 -4 6 -89 -23 -106 -36 -1 -1 7 -60 17 -131 20 -126 20 -130 2 -148
-19 -18 -19 -17 -26 60 -18 213 -18 213 -36 213 -15 0 -17 -7 -14 -37 3 -21
11 -95 17 -164 13 -124 12 -127 -9 -154 l-22 -27 -22 22 c-22 22 -22 24 -11
159 15 190 15 201 -8 201 -17 0 -19 -12 -26 -113 -4 -62 -10 -128 -13 -146 -7
-31 -8 -32 -24 -14 -15 17 -15 27 3 138 22 141 22 145 9 145 -6 0 -30 9 -52
20 -23 11 -43 20 -44 20 -1 0 -37 -47 -80 -105 -67 -90 -82 -105 -107 -105
-26 0 -23 5 69 111 85 96 95 112 82 125 -12 12 -28 -2 -122 -111 -99 -115
-110 -125 -143 -125 -31 0 -34 2 -31 27 2 21 32 51 130 133 70 58 126 109 124
114 -6 23 -27 11 -131 -75 -99 -81 -110 -88 -113 -67 -4 25 -5 24 122 116 65
47 86 68 82 80 -24 75 -33 92 -46 92 -8 0 -68 -7 -132 -17 -95 -13 -120 -14
-133 -3 -8 7 -15 16 -15 20 0 4 60 11 134 15 138 8 163 13 154 37 -5 11 -32
12 -169 2 -122 -9 -166 -9 -171 0 -9 14 -9 30 -8 -213 1 -222 8 -262 54 -283
15 -6 26 -19 26 -30 0 -17 -14 -18 -245 -18 -227 0 -245 1 -245 18 0 9 10 22
22 27 12 6 31 26 43 45 19 34 20 52 23 662 3 684 3 684 -53 710 -17 8 -25 18
-23 31 2 16 35 29 173 72 94 30 182 54 197 54 l28 1 -3 -504z m2373 -420 c0
-64 11 -83 62 -107 l50 -23 -50 -25 c-51 -25 -62 -43 -62 -107 0 -33 -10 -30
-51 12 -33 34 -36 35 -87 29 l-53 -7 25 50 25 49 -24 39 c-14 21 -25 43 -25
47 0 5 24 5 54 2 54 -7 55 -6 86 29 37 42 50 45 50 12z m-3049 -868 c54 23 54
22 37 -42 -12 -44 -11 -47 20 -85 18 -22 32 -42 32 -45 0 -3 -24 -6 -54 -6
-53 0 -54 -1 -84 -47 -21 -32 -33 -43 -36 -33 -3 8 -12 33 -19 55 -12 35 -19
40 -61 51 -26 7 -50 14 -52 17 -3 3 13 18 35 33 39 28 41 31 41 87 l0 58 46
-32 46 -31 49 20z"/>
</g>
</svg>
