<?xml version="1.0" encoding="utf-8"?>
<!-- Generator: Adobe Illustrator 27.5.0, SVG Export Plug-In . SVG Version: 6.00 Build 0)  -->
<svg version="1.1" xmlns="http://www.w3.org/2000/svg" xmlns:xlink="http://www.w3.org/1999/xlink" x="0px" y="0px"
	 viewBox="0 0 500 500" style="enable-background:new 0 0 500 500;" xml:space="preserve">
<g id="Background">
</g>
<g id="Objects">
	<g>
		
			<ellipse transform="matrix(0.7071 -0.7071 0.7071 0.7071 -98.679 252.0752)" style="fill:#FFF89F;" cx="254.942" cy="245.154" rx="164.483" ry="164.483"/>
		<g>
			<path style="fill:#FFF337;" d="M137.388,386.317c-0.398-0.972-4.987,0.016-6.018,0.279c-2.1,0.537-5.256,1.152-6.766,2.726
				c-1.899,1.979-3.272,5.114-0.422,6.894c2.568,1.604,6.015,1.751,8.966,1.643c1.246-0.046,7.713-0.763,6.434-3.148"/>
			<path style="fill:#FBAE3E;" d="M123.885,390.513c-0.298,0.208-0.793,1.172-0.667,1.5c0.159,0.416,1.136,1.142,1.518,1.353
				c1.415,0.78,3.359,0.672,4.909,0.967c1.361,0.259,2.835,0.934,4.24,0.878c0.785-0.031,1.477-0.545,2.208-0.732
				c0.622-0.159,1.369,0.004,1.726,0.63c0.454,0.796,0.391,1.794-0.422,2.191c-1.304,0.637-2.53,0.77-3.974,0.77
				c-0.816,0-1.586-0.105-2.396-0.158c-0.968-0.063-1.965-0.023-2.923-0.177c-1.402-0.226-2.88-0.903-4.013-1.734
				c-0.802-0.588-3.328-2.668-1.492-3.536"/>
			<path style="fill:#FFF337;" d="M122.316,357.318c-2.82,1.055-5.512,2.075-8.149,3.518c-1.438,0.787-2.42,1.952-2.354,3.666
				c0.059,1.518,0.737,2.421,1.615,3.524c0.677,0.85,0.853,1.632,1.971,1.924c1.453,0.38,3.162,0.152,4.654,0.151
				c1.684-0.001,3.312,0.195,4.976,0.287c2.54,0.14,5.334-0.218,7.346-1.957c0.733-0.633,0.735-1.278,1.057-2.148
				c0.391-1.058,0.93-1.863,0.907-3.042c-0.022-1.135-0.899-2.778-1.816-3.538"/>
			<path style="fill:#FBAE3E;" d="M113.085,361.723c-0.339,0.782-0.102,2.277,0.125,3.068c0.123,0.43,0.355,0.79,0.629,1.13
				c0.447,0.553,0.981,0.902,1.665,1.12c0.969,0.309,1.924,0.664,2.931,0.849c1.27,0.233,2.465,0.361,3.751,0.184
				c1.312-0.181,2.599-0.456,3.919-0.598c1.54-0.165,3.26-0.718,4.383-1.832c-1.884-0.632-3.364-2.333-3.945-4.198
				c-0.281-0.902,0.064-1.209,0.625-1.818c0.197,0.204,0.339,0.48,0.511,0.711c0.419,0.561,0.964,1.004,1.516,1.43
				c1.102,0.85,2.171,1.305,3.456,1.788c0.607,0.228,1.427,0.517,1.574,1.171c0.279,1.237-0.179,2.52-1.035,3.395
				c-0.478,0.488-0.844,0.61-1.466,0.833c-0.948,0.34-1.83,0.996-2.731,1.446c-1.454,0.727-3.389,1.033-4.962,0.556
				c-1.7-0.514-3.068-1.434-4.922-1.258c-0.774,0.074-1.567,0.164-2.329,0.319c-0.498,0.101-1.109,0.359-1.612,0.213
				c-1.019-0.296-1.82-1.55-2.462-2.307c-0.372-0.439-0.441-1.069-0.551-1.614c-0.207-1.027-0.37-2.611,0.418-3.439"/>
			<path style="fill:#FFF337;" d="M103.237,380.212c-2.11-3.091-6.707-0.87-9.397,0.117c-1.537,0.564-3.269,1.611-4.158,3.053
				c-0.873,1.416-0.383,3.215,0.179,4.631c0.588,1.486,1.124,2.532,2.657,3.172c1.85,0.772,4.021,0.888,5.978,1.052
				c3.761,0.314,7.141-0.807,10.815-1.388c1.472-0.232,2.544-0.837,3.201-2.254c1.081-2.334-0.328-4.422-1.548-6.379"/>
			<path style="fill:#FBAE3E;" d="M89.922,384.617c0.396,0.701,0.619,1.485,1.259,2.021c0.544,0.455,1.163,0.747,1.855,0.873
				c0.473,0.086,0.835,0.245,1.282,0.392c0.553,0.182,1.192,0.167,1.765,0.243c0.593,0.079,1.182,0.236,1.777,0.285
				c0.601,0.05,1.201-0.039,1.799,0.054c0.783,0.122,1.555,0.267,2.352,0.233c0.739-0.032,1.436-0.039,2.156,0.07
				c0.643,0.097,1.461,0.16,2.098,0.107c0.647-0.053,1.53-0.453,2.021-0.869c0.581-0.491,0.942-1.325,1.541-1.762
				c0.312-0.227,0.693-0.211,1.073-0.205c0.438,0.007,0.38-0.046,0.561,0.311c0.266,0.524,0.543,1.146,0.546,1.749
				c0.008,1.696-2.284,2.215-3.496,2.725c-1.818,0.766-3.795,2.026-5.815,1.999c-1.537-0.021-3.147-0.192-4.677-0.354
				c-0.804-0.085-1.661-0.325-2.441-0.533c-0.619-0.165-1.255-0.206-1.872-0.366c-0.797-0.206-1.334-0.64-1.996-1.084
				c-0.502-0.337-1.047-0.574-1.516-0.965c-0.992-0.826-1.851-2.487-1.475-3.805"/>
			<g>
				<path style="fill:#D5C375;" d="M248.433,301.342c1.301,1.314,2.962,2.439,4.682,3.489c-0.009,0.423-0.015,0.845-0.024,1.269
					c-0.264,12.67-0.106,25.338-0.171,38.008c-0.007,1.484,0.03,2.962,0.091,4.436c-3.217,0.22-6.481-0.02-9.492-0.535
					c0.1-2.013,0.203-4.025,0.314-6.036c0.701-12.564,1.79-25.106,2.498-37.672c0.089-1.58,0.149-3.16,0.223-4.74
					C247.192,300.137,247.822,300.725,248.433,301.342z M234.173,271.317c-0.112,4.473,1.47,8.556,4.149,12.118
					c0.73,0.971,1.514,1.883,2.333,2.752c0.188-7.161,0.359-14.323,0.776-21.47c0.072-1.229,0.15-2.457,0.226-3.685
					C237.92,263.414,234.292,266.539,234.173,271.317z M247.666,266.608c-0.299,8.319-0.486,16.635-0.778,24.951
					c2.047,1.476,4.193,2.832,6.374,4.147c0.127-9.244,0.236-18.483,0.698-27.723c0.181-3.617,0.347-7.241,0.55-10.864
					c-2.254,0-4.467,0.275-6.574,0.887C247.855,260.875,247.768,263.742,247.666,266.608z M258.977,347.517
					c3.173-0.935,6.085-2.516,8.379-4.989c6.379-6.874,5.958-17.816,0.719-25.355c-2.112-3.041-4.795-5.578-7.754-7.772
					c-0.197,12.213-0.837,24.398-1.264,36.605C259.04,346.511,259.002,347.014,258.977,347.517z M364.741,399.408
					c-6.516,0.831-13.714-0.059-20.585,0.305c1.724-0.672,3.441-1.359,5.149-2.067c0.356-0.149,0.203-0.686-0.181-0.581
					c-15.565,4.284-30.691,9.044-46.669,11.705c-14.867,2.476-29.736,5.156-44.764,6.466c-15.191,1.323-30.657,0.799-45.264-3.883
					c-11.279-3.616-21.367-8.614-32.738-10.568c-7.048-3.222-16.436-0.398-23.806-0.119c-5.464,0.206-17.01-0.706-16.957-8.19
					c0.034-4.774,2.331-9.756,3.439-14.347c0.534-2.212,0.854-4.639,0.91-7.076c0.255-0.086,0.483-0.311,0.514-0.619
					c0.995-9.779-0.886-20.245-1.173-30.081c-0.278-9.504,0.016-18.956,0.899-28.422c1.841-19.727,6.5-39.239,12.632-58.045
					c5.227-16.032,12.564-31.114,21.771-45.229c4.664-7.151,9.937-13.926,15.681-20.241c4.925-5.414,10.452-9.793,16.074-14.326
					c3.049,2.459,7.319,3.56,11.247,3.486c13.572,5.08,29.236,3.658,43.383,4.728c9.452,0.714,18.892,1.433,28.378,1.251
					c7.246-0.14,15.703-0.625,22.023-4.557c1.513-0.462,3.008-1.092,4.425-1.864c6.866,12.216,17.626,21.397,27.408,31.248
					c10.92,10.997,19.822,23.12,23.742,38.327c5.06,19.628,4.143,40.789,2.532,60.799c-1.425,17.687-5.042,36.04-2.68,53.809
					c-0.147,0.079-0.255,0.231-0.25,0.454C370.109,372.759,383.677,396.99,364.741,399.408z M170.719,375.514
					c0.227,0.349,0.726,0.09,0.638-0.294c-0.418-1.828-1.134-3.593-1.643-5.402c-0.491-1.746-0.756-3.554-1.353-5.266
					c-0.083-0.238-0.407-0.167-0.42,0.07C167.743,368.12,168.814,372.581,170.719,375.514z M162.667,366.952
					c0.028,0.211,0.314,0.202,0.329-0.01c0.246-3.567,0.296-7.237-0.023-10.8c-0.013-0.143-0.209-0.165-0.249-0.026
					C161.743,359.516,162.206,363.501,162.667,366.952z M161.032,348.213c-2.604,3.701-4.094,8.696-3.266,13.193
					c0.038,0.21,0.382,0.19,0.414-0.013c0.336-2.085,0.576-4.187,1.001-6.257c0.479-2.328,1.415-4.554,2.109-6.823
					C161.34,348.149,161.116,348.094,161.032,348.213z M153.662,357.519c-0.002,0.223,0.331,0.306,0.428,0.101
					c1.599-3.401,2.71-7.034,3.963-10.574c0.715-2.022,1.354-4.109,1.908-6.181c0.337-1.26,0.119-2.475,0.365-3.653
					c0.067-0.32-0.425-0.438-0.492-0.119c-0.169,0.809-1.127,1.813-1.438,2.628c-0.741,1.939-1.403,3.903-2.078,5.866
					C155.027,349.346,153.696,353.516,153.662,357.519z M174.894,396.112c-3.238-2.85-7.062-4.694-10.715-6.943
					c-2.374-1.462-4.576-3.162-6.654-5.015c-1.74-1.552-2.885-3.613-4.623-5.136c-0.108-0.095-0.315-0.027-0.298,0.135
					c0.437,4.35,5.006,7.921,8.267,10.318c4.151,3.053,8.731,5.727,13.594,7.436C174.915,397.067,175.23,396.408,174.894,396.112z
					 M178.743,383c0.06-1.827-0.257-3.527-0.762-5.28c-0.421-1.463-0.742-3.401-1.803-4.546c-0.128-0.138-0.415-0.064-0.44,0.131
					c-0.176,1.376,0.487,2.848,0.833,4.168c0.498,1.896,0.97,3.769,1.628,5.618C178.306,383.394,178.733,383.314,178.743,383z
					 M190.69,385.859c0.015-1.505-0.027-3.301-0.496-4.739c-0.086-0.263-0.467-0.251-0.536,0.017
					c-0.394,1.538-0.247,3.488,0.566,4.864C190.356,386.227,190.688,386.101,190.69,385.859z M199.681,388.355
					c-0.498-1.033-1.023-1.933-1.09-3.109c-0.019-0.325-0.522-0.31-0.506,0.016c0.059,1.203,0.464,2.452,1.305,3.332
					C199.551,388.762,199.768,388.536,199.681,388.355z M260.096,269.885c0.041-4.074,0.124-8.146,0.217-12.219
					c5.779,1.09,11.399,3.64,15.655,6.64c3.465,2.443,6.698-3.451,3.158-5.82c-5.54-3.707-12.066-6.362-18.656-7.42
					c0.001-0.02,0.001-0.04,0.001-0.06c0.157-6.265,0.684-13.069-0.974-19.162c-0.266-0.979-1.491-0.727-1.789,0.057
					c-2.028,5.349-2.175,11.51-2.652,17.18c-0.041,0.493-0.072,0.987-0.11,1.48c-2.313-0.041-4.604,0.135-6.828,0.558
					c0.027-1.078,0.057-2.157,0.082-3.234c0.129-5.335,1.089-12.194-1.803-16.913c-0.369-0.602-1.222-0.521-1.566,0.05
					c-2.542,4.227-2.056,10.168-2.294,14.976c-0.115,2.316-0.256,4.63-0.395,6.946c-4.612,1.993-8.722,5.304-11.877,10.219
					c-4.054,6.314-2.467,14.045,0.635,20.312c2.307,4.661,5.808,7.88,9.513,10.944c-0.089,2.665-0.191,5.331-0.327,7.993
					c-0.642,12.565-1.547,25.115-2.41,37.664c-0.143,2.087-0.28,4.185-0.393,6.286c-8.02-2.967-13.738-8.759-19.317-15.502
					c-1.818-2.198-5.198,0.374-4.459,2.79c3.357,10.965,12.794,17.82,23.508,20.847c-0.055,7.702,0.575,15.378,2.88,22.774
					c0.193,0.619,1.243,0.666,1.34-0.043c0.989-7.111,1.492-14.267,1.884-21.431c3.44,0.501,6.915,0.631,10.284,0.404
					c0.093,2.003,0.16,4.01,0.133,6.033c-0.068,5.05-0.35,10.648,0.621,15.605c0.081,0.411,0.723,0.451,0.89,0.088
					c1.877-4.074,2.599-9.412,2.802-13.88c0.129-2.831,0.358-5.655,0.586-8.478c17.805-3.374,25.901-22.12,18.992-38.264
					c-3.509-8.199-10.026-13.039-17.054-17.352C260.313,289.931,259.993,279.91,260.096,269.885z M335.242,381.361
					c-1.357,0.676-2.574,2.394-2.898,3.856c-0.059,0.267,0.306,0.507,0.495,0.267c0.445-0.566,0.797-1.183,1.182-1.792
					c0.442-0.699,1.013-1.299,1.572-1.905C335.818,381.541,335.515,381.224,335.242,381.361z M345.157,375.524
					c0.022-0.296-0.387-0.278-0.474-0.049c-1.034,2.715-1.808,5.455-3.299,7.981c-0.126,0.213,0.18,0.427,0.346,0.249
					C343.773,381.514,344.929,378.497,345.157,375.524z M352.168,369.836c-0.081-0.228-0.395-0.213-0.464,0.015
					c-0.852,2.856-0.62,6.091-1.189,9.029c-0.057,0.298,0.378,0.495,0.516,0.198C352.308,376.313,353.224,372.835,352.168,369.836z
					 M355.674,357.444c-0.089-0.192-0.378-0.071-0.374,0.114c0.048,2.324,0.465,4.636,0.616,6.96
					c0.177,2.71-0.092,5.433,0.151,8.137c0.028,0.316,0.459,0.362,0.549,0.056C357.986,368.087,357.704,361.844,355.674,357.444z
					 M361.114,356.698c-0.279-2.59-0.359-6.09-1.834-8.331c-0.058-0.087-0.21-0.073-0.231,0.038c-0.418,2.319,0.26,4.935,0.5,7.258
					c0.368,3.573,0.542,7.166,0.986,10.73c0.038,0.305,0.517,0.405,0.574,0.059C361.639,363.215,361.465,359.948,361.114,356.698z"
					/>
				<path style="fill:#B29564;" d="M370.13,361.319c-2.363-17.77,1.254-36.122,2.68-53.809c1.612-20.011,2.528-41.172-2.532-60.799
					c-3.92-15.207-12.822-27.329-23.742-38.327c-9.782-9.851-20.542-19.032-27.408-31.248c-1.417,0.772-2.912,1.402-4.425,1.864
					c-6.32,3.933-14.777,4.418-22.023,4.557c-9.486,0.182-18.926-0.538-28.378-1.251c-14.148-1.07-29.812,0.352-43.383-4.728
					c-0.679,0.013-1.368-0.023-2.059-0.081c7.526,3.677,18.488,5.748,25.076,8.182c9.977,3.686,22.179,3.55,32.781,5.904
					c5.422,1.204,11.727,1.008,15.601,4.802c7.917,7.755,13.624,21.906,18.803,31.831c21.789,41.745,16.018,91.89-14.072,127.527
					c-31.611,37.439-94.785,29.171-130.417,3.78c-1.134-0.808-2.353-1.677-3.604-2.516c0.239,3.291,0.193,6.654-0.033,9.933
					c-0.015,0.213-0.3,0.222-0.329,0.01c-0.434-3.253-0.854-6.975-0.082-10.24c-1.092-0.721-2.202-1.408-3.296-2.006
					c-0.033,0.144-0.078,0.285-0.108,0.429c-0.425,2.07-0.665,4.172-1.001,6.257c-0.033,0.204-0.376,0.223-0.414,0.013
					c-0.436-2.369-0.216-4.872,0.458-7.255c-0.796-0.392-1.574-0.717-2.325-0.963c-0.551,1.502-1.132,2.991-1.81,4.433
					c-0.096,0.204-0.429,0.121-0.428-0.101c0.013-1.567,0.23-3.158,0.56-4.741c-2.867-0.411-5.047,0.936-5.546,5.739
					c-0.843,8.111-1.655,13.219-4.552,20.622c-1.47,3.756-2.543,5.684-4.469,8.261c-0.42,1.701-0.719,3.402-0.731,5.078
					c-0.053,7.484,11.493,8.396,16.957,8.19c7.37-0.279,16.758-3.103,23.806,0.119c11.372,1.954,21.46,6.952,32.738,10.568
					c14.607,4.682,30.073,5.206,45.264,3.883c15.027-1.31,29.897-3.991,44.764-6.466c15.978-2.661,31.104-7.421,46.669-11.705
					c0.384-0.105,0.537,0.432,0.181,0.581c-1.707,0.708-3.424,1.395-5.149,2.067c6.872-0.364,14.069,0.526,20.585-0.305
					c18.936-2.418,5.369-26.649,5.139-37.634C369.875,361.55,369.983,361.398,370.13,361.319z M167.942,364.623
					c0.013-0.238,0.338-0.308,0.42-0.07c0.597,1.713,0.861,3.521,1.353,5.266c0.509,1.809,1.225,3.573,1.643,5.402
					c0.088,0.383-0.411,0.643-0.638,0.294C168.814,372.581,167.743,368.12,167.942,364.623z M174.464,396.909
					c-4.864-1.71-9.444-4.384-13.594-7.436c-3.26-2.397-7.83-5.968-8.267-10.318c-0.016-0.162,0.19-0.23,0.298-0.135
					c1.738,1.522,2.883,3.584,4.623,5.136c2.078,1.853,4.28,3.553,6.654,5.015c3.654,2.249,7.478,4.093,10.715,6.943
					C175.23,396.408,174.915,397.067,174.464,396.909z M178.199,383.091c-0.658-1.849-1.13-3.722-1.628-5.618
					c-0.346-1.32-1.009-2.792-0.833-4.168c0.025-0.195,0.312-0.27,0.44-0.131c1.061,1.145,1.382,3.083,1.803,4.546
					c0.505,1.753,0.822,3.453,0.762,5.28C178.733,383.314,178.306,383.394,178.199,383.091z M190.223,386.001
					c-0.812-1.376-0.96-3.327-0.566-4.864c0.069-0.268,0.451-0.28,0.536-0.017c0.469,1.438,0.512,3.234,0.496,4.739
					C190.688,386.101,190.356,386.227,190.223,386.001z M199.39,388.594c-0.841-0.88-1.247-2.13-1.305-3.332
					c-0.016-0.326,0.487-0.341,0.506-0.016c0.067,1.176,0.592,2.077,1.09,3.109C199.768,388.536,199.551,388.762,199.39,388.594z
					 M335.593,381.787c-0.559,0.605-1.13,1.206-1.572,1.905c-0.385,0.608-0.737,1.226-1.182,1.792c-0.189,0.24-0.554,0-0.495-0.267
					c0.323-1.462,1.541-3.18,2.898-3.856C335.515,381.224,335.818,381.541,335.593,381.787z M341.73,383.706
					c-0.165,0.177-0.471-0.037-0.346-0.249c1.491-2.526,2.264-5.266,3.299-7.981c0.088-0.229,0.496-0.247,0.474,0.049
					C344.929,378.497,343.773,381.514,341.73,383.706z M351.03,379.077c-0.138,0.298-0.573,0.101-0.516-0.198
					c0.57-2.938,0.338-6.173,1.189-9.029c0.069-0.228,0.383-0.243,0.464-0.015C353.224,372.835,352.308,376.313,351.03,379.077z
					 M356.617,372.711c-0.09,0.305-0.521,0.259-0.549-0.056c-0.243-2.704,0.026-5.426-0.151-8.137
					c-0.151-2.324-0.568-4.635-0.616-6.96c-0.004-0.186,0.285-0.307,0.374-0.114C357.704,361.844,357.986,368.087,356.617,372.711z
					 M361.108,366.451c-0.056,0.347-0.535,0.246-0.574-0.059c-0.444-3.565-0.618-7.157-0.986-10.73
					c-0.24-2.322-0.917-4.939-0.5-7.258c0.021-0.111,0.173-0.125,0.231-0.038c1.475,2.241,1.556,5.741,1.834,8.331
					C361.465,359.948,361.639,363.215,361.108,366.451z"/>
				<path style="fill:#FBAE3E;" d="M105.839,403.825c0.336-0.138,0.681-0.286,1.033-0.458c-0.014-0.316,0-0.64,0.047-0.973
					c0.013-0.091,0.031-0.198,0.047-0.3c-0.395,0.203-0.799,0.388-1.207,0.558C105.926,402.992,105.86,403.464,105.839,403.825z"/>
				<path style="fill:#72613F;" d="M222.238,176.193c14.567,1.897,29.344,2.304,44.011,3.401c15.05,1.125,29.606,1.65,44.352-1.168
					c4.553-2.505,9.876-5.286,12.287-10.132c3.157-6.339-1.284-9.511-5.094-13.712c-0.651,0.66-1.32,1.301-2.032,1.897
					c-4.332,6.736-12.238,8.63-19.827,10.097c-9.403,1.817-19.232,1.641-28.733,0.826c-9.29-0.796-18.572-1.892-27.839-2.911
					c-5.283-0.581-10.58-1.546-15.125-4.054c-0.012,0.023-0.035,0.039-0.066,0.03c-4.236-1.115-8.189-4.278-11.552-7.979
					c-1.387,4.506-4.353,9.51-2.69,14.354C211.793,172.271,217.375,174.148,222.238,176.193z"/>
				<path style="fill:#FFF337;" d="M91.11,395.013c-2.291,0.29-4.457,1.03-6.308,2.737c-0.621,0.573-1.129,1.158-1.487,1.738
					c2.728,4.16,9.929,3.959,14.186,3.441c2.05-0.25,15.391-3.075,9.561-6.554c-0.979-0.21-1.897-0.336-2.421-0.42
					c-3.379-0.537-6.797-0.903-10.218-0.951C93.333,394.99,92.217,395.041,91.11,395.013z"/>
				<path style="fill:#FBAE3E;" d="M107.942,402.771c0,0.01,0,0.019,0,0.03c1.771-1.034,3.31-2.451,3.095-4.071
					c-0.016-0.119-0.049-0.232-0.095-0.34c-0.035,0.103-0.074,0.208-0.133,0.321c-0.59,1.121-1.619,2.042-2.817,2.796
					C107.99,401.944,107.944,402.398,107.942,402.771z"/>
				<path style="fill:#FFFFFF;" d="M108.165,328.778c1.498-0.636,3.067-0.908,4.529-0.372c1.912,0.701,3.824,2.218,5.4,3.911
					c-1.597-1.92-3.221-3.979-3.438-6.189c-0.176-1.788,0.44-3.189,1.421-4.394c-1.699,0.986-3.504,1.458-5.814,0.859
					c-1.318-0.342-2.592-1.124-3.758-2.075c1.163,1.578,2.093,3.278,2.244,5.069C108.855,326.828,108.621,327.867,108.165,328.778z"
					/>
				<path style="fill:#FBAE3E;" d="M82.886,400.408c-0.422,1.323,0.121,2.548,2.212,3.396c5.538,2.25,13.305,2.192,19.024,0.624
					c0.235-0.064,0.514-0.156,0.809-0.258c0.01-0.149,0.021-0.3,0.034-0.456c0.021-0.243,0.026-0.531,0.089-0.79
					c-0.912,0.34-1.815,0.611-2.625,0.794C97.937,404.732,84.621,406.722,82.886,400.408z"/>
				<path style="fill:#FBAE3E;" d="M412.24,420.403c-0.02,0.024-0.036,0.048-0.057,0.072c-4.793,5.599-15.645,5.689-22.223,4.57
					c-0.605-0.103-1.215-0.238-1.823-0.388c0.117-0.069,0.216-0.166,0.247-0.323c0.098-0.491-0.068-1.005-0.123-1.501
					c-0.006-0.057-0.019-0.111-0.027-0.167c0.81,0.133,1.612,0.235,2.404,0.327c0.04,0.269,0.086,0.537,0.144,0.802
					c0.116,0.536,0.244,1.163,0.753,1.455c0.173,0.099,0.391-0.01,0.44-0.195c0.121-0.466-0.094-0.905-0.234-1.345
					c-0.065-0.205-0.13-0.41-0.195-0.615c0.112,0.011,0.23,0.026,0.342,0.038C395.28,423.47,406.807,423.614,412.24,420.403z
					 M387.078,422.46c-2.634-0.537-5.2-1.451-7.151-3.221c0.128,0.223,0.267,0.449,0.428,0.68c1.642,2.373,4.242,3.741,6.987,4.532
					C387.018,423.91,387.005,423.164,387.078,422.46z"/>
				<path style="fill:#FFF337;" d="M400.601,408.325c-3.793-0.116-8.011-0.03-12.013,0.574c-2.844,0.956-6.611,2.373-8.442,4.622
					c-0.215,1.143-0.74,2.285-0.019,3.387c0.773,1.182,1.924,1.989,3.224,2.52c3.295,1.349,6.998,1.87,10.535,2.021
					c4.309,0.185,21.056,0.666,20.009-7.435C412.084,410.21,404.789,408.454,400.601,408.325z"/>
				<path style="fill:#FBAE3E;" d="M406.222,366.36c1.331,0.194,2.607,0.505,3.788,0.958c0.954-2.117,1.274-4.157,0.28-5.647
					C410.767,364.047,408.868,365.514,406.222,366.36z"/>
				<path style="fill:#FFF337;" d="M107.938,380.116c2.46,0.614,5.005,0.829,7.538,0.758c4.297-0.118,13.14-0.492,13.144-6.438
					c-5.33-5.771-18.058-3.493-23.846,1.837C104.754,378.271,105.182,379.426,107.938,380.116z"/>
				<path style="fill:#FBAE3E;" d="M122.583,384.091c4.965-1.42,8.717-3.99,7.75-6.852c-0.769,2.073-4.189,3.385-7.779,4.166
					C122.839,382.263,122.838,383.32,122.583,384.091z"/>
				<path style="fill:#FFF337;" d="M134.978,359.979c1.727,0.062,3.769-0.408,5.616-0.452c-0.313-3.051-0.502-6.146-0.619-9.23
					c-4.562,0.709-10.462,1.291-11.794,6.472c-0.026,0.102-0.026,0.197-0.045,0.297C129.085,359.394,132.38,359.887,134.978,359.979
					z"/>
				<path style="fill:#FBAE3E;" d="M121.693,382.018c-0.01-0.147-0.011-0.293-0.007-0.438c-1.894,0.367-3.779,0.595-5.296,0.712
					c0.229,0.481,0.309,1.208,0.348,1.466c0.061,0.405,0.172,0.915,0.149,1.385c1.795-0.156,3.593-0.479,5.269-0.93
					c-0.016-0.02-0.037-0.033-0.049-0.059C121.793,383.445,121.744,382.788,121.693,382.018z"/>
				<path style="fill:#D5C375;" d="M222.754,158.225c5.733,2.438,12.127,3.082,18.333,3.577c-7.589-6.12-11.13-16.378-13.336-25.568
					c-2.382-9.925-4.058-20.414-4.592-30.61c-0.005-0.099,0.149-0.127,0.173-0.029c2.512,9.935,3.982,20.008,7.027,29.83
					c2.919,9.409,6.927,17.934,11.787,26.462c0.223,0.017,0.448,0.036,0.671,0.053c7.477,0.585,14.915,1.575,22.395,2.122
					c8.778,0.643,17.757,1.088,26.507-0.14c6.496-0.911,13.853-2.312,19.631-5.892c0.015-0.025,0.022-0.051,0.04-0.075
					c5.006-6.59,10.239-12.359,13.945-19.886c2.077-4.221,4.121-8.476,6.117-12.735c4.979-10.623,10.608-21.404,14.49-32.481
					c2.974-8.489,6.81-26.826-8.484-25.357c-7.531,0.724-15.52,5.445-23.222,4.729c-4.538,1.608-7.838-0.755-11.361-3.902
					c-5.639-5.036-11.674-5.476-18.796-3.776c-7.167,1.712-14.511,4.723-20.918,2.27c-4.888-0.541-8.627-3.471-13.135-5.484
					c-4.935-2.203-10.763-6.435-16.384-4.221c-4.804,1.892-8.336,5.085-12.366,7.85c-1.001,1.977-3.824,3.476-6.465,3.797
					c-6.251,1.548-13.308,0.739-19.272-1.585c-3.485-1.357-6.376-3.267-9.567-5.166c-3.89-2.315-6.721-2.648-10.526-1.151
					c-3.375,5.533-3.598,10.557-0.485,16.337c1.966,3.649,4.406,6.976,6.489,10.55c5.152,8.84,9.043,18.168,13.421,27.394
					c4.255,8.967,8.975,17.406,14.207,25.818c2.559,4.113,5.45,7.966,8.56,11.679C219.248,154.561,221.177,156.268,222.754,158.225z
					 M315.728,122.805c0.181-0.518,0.933-0.353,0.836,0.201c-2.115,12.066-8.572,23.574-15.532,33.49
					c-0.239,0.341-0.766,0.078-0.577-0.313C305.805,145.049,311.626,134.516,315.728,122.805z M283.395,161.079
					c3.977-12.339,6.496-24.74,8.873-37.465c2.316-12.392,5.099-24.813,11.601-35.74c0.067-0.112,0.234-0.021,0.178,0.097
					c-6.052,12.579-7.534,26.264-9.607,39.879c-0.981,6.44-2.207,12.751-3.777,19.073c-1.33,5.357-2.611,10.452-6.407,14.622
					C283.928,161.904,283.236,161.572,283.395,161.079z M253.466,102.766c0.009-0.218,0.336-0.3,0.395-0.066
					c4.169,16.356,3.68,35.078,2.675,51.812c-0.025,0.424-0.69,0.611-0.791,0.133c-1.748-8.285-2.029-16.573-2.189-25.019
					C253.387,120.699,253.113,111.687,253.466,102.766z"/>
				<path style="fill:#B29564;" d="M322.062,124.59c1.509-7.157,8.022-15.902,7.319-23.109c-10.557,9.249-16.988,25.932-28.388,33.3
					c-0.724-8.023,4.03-19.501,6.147-27.207c2.325-8.465,6.516-17.551,6.205-26.498c-4.564,6.317-9.218,11.928-13.467,17.885
					c-2.766,9.379-3.955,19.151-5.438,28.888c-0.981,6.44-2.207,12.751-3.777,19.073c-1.33,5.357-2.611,10.452-6.407,14.622
					c-0.327,0.361-1.019,0.028-0.861-0.465c3.977-12.339,6.496-24.74,8.873-37.465c1.313-7.028,2.779-14.064,4.986-20.833
					c-2.691,4.083-5.161,8.412-7.253,13.309c-2.407,5.636-8.543,31.637-18.272,26.189c-4.424-2.478-9.488-19.673-10.999-24.369
					c-2.861-8.889-3.979-18.528-8.274-26.861c-9.263,15.511-8.132,34.542-8.635,51.872c-13.099-2.248-15.05-38.791-21.162-48.336
					c-7.11,3.805-5.097,21.064-4.794,27.694c0.381,8.322,6.94,25.531,2.954,33.783c0.67,0.703,1.331,1.413,1.935,2.163
					c5.733,2.438,12.127,3.082,18.333,3.577c-7.589-6.12-11.13-16.378-13.336-25.568c-2.382-9.925-4.058-20.414-4.592-30.61
					c-0.005-0.099,0.149-0.127,0.173-0.029c2.512,9.935,3.982,20.008,7.027,29.83c2.919,9.409,6.927,17.934,11.787,26.462
					c0.223,0.017,0.448,0.036,0.671,0.053c7.477,0.585,14.915,1.575,22.395,2.122c8.778,0.643,17.757,1.088,26.507-0.14
					c6.496-0.911,13.853-2.312,19.631-5.892c0.015-0.025,0.022-0.051,0.04-0.075c3.002-3.952,6.08-7.613,8.866-11.53
					c-0.097-2.071-0.174-4.271-0.148-6.638C320.167,134.628,321.003,129.614,322.062,124.59z M256.536,154.511
					c-0.025,0.424-0.69,0.611-0.791,0.133c-1.748-8.285-2.029-16.573-2.189-25.019c-0.169-8.925-0.443-17.938-0.09-26.858
					c0.009-0.218,0.336-0.3,0.395-0.066C258.03,119.055,257.542,137.778,256.536,154.511z M301.031,156.496
					c-0.239,0.341-0.766,0.078-0.577-0.313c5.352-11.134,11.173-21.667,15.274-33.378c0.181-0.518,0.933-0.353,0.836,0.201
					C314.448,135.072,307.991,146.58,301.031,156.496z"/>
				<path style="fill:#FBAE3E;" d="M115.324,382.36c-0.692,0.035-1.261,0.041-1.642,0.025c-0.362-0.016-0.737-0.033-1.118-0.053
					c0.037,0.169,0.067,0.341,0.094,0.515c0.093,0.607,0.212,1.215,0.253,1.828c0.015,0.213-0.056,0.384-0.164,0.522
					c0.906,0.063,1.843,0.069,2.79,0.03c-0.121-0.472-0.13-1.005-0.182-1.426C115.315,383.479,115.204,382.825,115.324,382.36z"/>
				<path style="fill:#FFF337;" d="M391.475,368.021c0.535-0.176,1.089-0.325,1.663-0.433c0.067-0.013,0.132-0.009,0.193,0.003
					c0.616-0.192,1.249-0.362,1.888-0.52c-0.011-0.002-0.023-0.003-0.034-0.006c-0.158-0.036-0.167-0.27-0.01-0.316
					c3.509-1.038,14.896,0,14.737-5.543c-0.616-0.649-1.541-1.164-2.865-1.486c-2.377-0.58-4.836-0.718-7.278-0.622
					c-1.249,0.049-4.731,0.829-7.091,0.743c0.443,0.603,0.828,1.243,1.082,1.947C394.671,364.3,393.432,366.557,391.475,368.021z"/>
				<path style="fill:#FBAE3E;" d="M136.968,361.516c0.057,0.316,0.078,0.642,0.091,0.944c0.017,0.403,0.039,0.797-0.022,1.182
					c0.328,0.029,0.653,0.048,0.971,0.049c0.166,0.001,0.331-0.015,0.497-0.02c-0.012-0.433,0.021-0.869,0.021-1.201
					c0.001-0.327,0.003-0.649,0.024-0.97c-0.461,0.006-0.905,0.006-1.289,0.014C137.165,361.516,137.065,361.515,136.968,361.516z"
					/>
				<path style="fill:#FBAE3E;" d="M111.166,382.693c0.016-0.143,0.045-0.295,0.085-0.447c-2.65-0.214-5.453-0.755-7.263-2.629
					c-0.088-0.091-0.148-0.197-0.222-0.296c0.372,3.412,3.51,5.157,7.509,5.724c-0.013-0.032-0.034-0.054-0.043-0.089
					C111.044,384.209,111.082,383.451,111.166,382.693z"/>
				<path style="fill:#FBAE3E;" d="M139.604,361.463c0.053,0.395,0.07,0.797,0.096,1.191c0.018,0.276,0.061,0.615,0.076,0.962
					c0.437-0.03,0.873-0.063,1.309-0.08c-0.108-0.726-0.193-1.462-0.282-2.195C140.413,361.406,140.008,361.44,139.604,361.463z"/>
				<path style="fill:#FBAE3E;" d="M136.147,361.523c-1.694,0.005-3.451-0.083-5.046-0.585c-1.061-0.334-1.996-0.816-2.685-1.432
					c0.551,1.169,1.659,2.079,3.004,2.66c1.439,0.622,3.124,1.138,4.769,1.378c-0.061-0.343-0.068-0.694-0.075-1.055
					C136.107,362.183,136.107,361.847,136.147,361.523z"/>
				<path style="fill:#FFFFFF;" d="M116.49,282.199c0.347,0.758,0.641,2.037,0.782,3.425c0.641-1.633,1.475-3.142,2.733-4.11
					c1.167-0.898,2.467-1.344,3.824-1.528c-2.441-0.927-4.096-2.454-4.73-4.843c-0.385,1.195-0.963,2.296-1.838,3.17
					c-0.875,0.874-1.887,1.42-2.97,1.756C115.236,280.52,116.027,281.187,116.49,282.199z"/>
				<path style="fill:#FFF337;" d="M113.957,353.507c2.299-0.222,3.877-0.66,4.776-2.574c-1.685-2.029-7.879-1.258-11.355-0.46
					c-0.577,0.268-1.111,0.589-1.434,1.01c-1.3,1.692-0.492,3.066,1.007,3.472c1.325,0.358,2.715,0.471,4.086,0.454
					c2.013-0.025,7.414,0.001,8.055-2.619c-2.041,2.384-9.719,2.685-11.492,1.072c-0.074-0.068-0.036-0.179,0.049-0.214
					C109.446,352.944,112.02,353.695,113.957,353.507z"/>
				<path style="fill:#FBAE3E;" d="M105.506,351.635c-0.085,0.405-0.177,0.784,0.088,1.142c0.293,0.395,0.811,0.593,1.27,0.718
					c0.949,0.258,1.891,0.343,2.857,0.488c1.115,0.167,2.352,0.139,3.475,0.051c0.953-0.075,2.132-0.004,2.993-0.457
					c0.587-0.31,1.252-0.592,1.8-0.966c0.334-0.227,0.686-0.755,1.089-0.864c0.713-0.192,0.557,1.341,0.466,1.667
					c-0.19,0.676-0.763,1.146-1.359,1.475c-0.761,0.421-1.637,0.789-2.485,0.976c-1.746,0.384-3.553,0.28-5.319,0.515
					c-0.763,0.102-1.522,0.143-2.274-0.058c-0.757-0.202-1.301-0.62-1.956-1.019c-0.262-0.16-0.555-0.265-0.81-0.435
					c-0.239-0.159-0.438-0.378-0.657-0.563c-0.276-0.233-0.622-0.912-0.311-1.246"/>
				<path style="fill:#FFF337;" d="M402.666,368.08c-3.421-0.026-6.916,0.297-10.3,1.024c-1.404,0.794-3.058,1.803-4.396,2.976
					c-1.878,3.096-1.129,5.292,2.771,6.347c2.683,0.725,5.427,1.125,8.21,1.182c5.076,0.102,13.789,0.091,15.314-6.104
					C412.698,370.005,406.474,368.109,402.666,368.08z"/>
				<path style="fill:#FBAE3E;" d="M393.172,380.289c-0.625-0.15-1.263-0.32-1.903-0.532c0.148,0.316,0.191,0.777,0.223,1.083
					c0.044,0.409,0.185,1.014,0.191,1.568c0.552,0.191,1.12,0.34,1.69,0.473c-0.085-0.356-0.106-0.751-0.141-1.052
					C393.172,381.299,393.162,380.799,393.172,380.289z"/>
				<path style="fill:#FBAE3E;" d="M397.827,380.905c-0.005,0.247-0.031,0.494-0.112,0.742c-0.072,0.22-0.352,0.229-0.438,0.014
					c-0.107-0.264-0.15-0.528-0.168-0.795c-0.403-0.025-0.779-0.052-1.088-0.079c-0.553-0.049-1.205-0.15-1.894-0.285
					c0.114,0.332,0.198,0.676,0.25,1.061c0.058,0.417,0.172,1.042,0.049,1.524c0.408,0.071,0.816,0.154,1.226,0.2
					c5.109,0.57,13.337,0.386,17.057-3.873c0.527-0.603,0.925-1.182,1.227-1.741C410.744,380.942,402.365,381.123,397.827,380.905z"
					/>
				<path style="fill:#FBAE3E;" d="M435.971,383.925c-0.11,0.183-0.359,0.191-0.48,0.015c-0.123-0.177-0.201-0.478-0.216-0.776
					c-0.674,0.065-1.278,0.08-1.756,0.044c-2.733-0.201-7.677-1.837-7.725-4.65c-0.128,0.524-0.165,1.071-0.073,1.632
					c0.647,3.959,6.17,5.154,9.493,5.104c1.186-0.018,2.481-0.105,3.701-0.399c-0.093-0.653-0.05-1.2,0.033-1.86
					c0.024-0.195,0.053-0.414,0.093-0.634c-0.98,0.303-1.986,0.519-2.913,0.655C436.146,383.382,436.092,383.724,435.971,383.925z"
					/>
				<path style="fill:#FBAE3E;" d="M444.091,378.07c-0.009,1.197-0.789,2.173-1.939,2.941c0.134,0.684,0.259,1.501,0.1,2.188
					c1.434-1.279,2.655-3.273,1.874-5.064C444.116,378.113,444.101,378.093,444.091,378.07z"/>
				<path style="fill:#FBAE3E;" d="M441.696,381.29c-0.497,0.288-1.053,0.534-1.628,0.755c0.082,0.427,0.06,0.903,0.023,1.289
					c-0.049,0.5-0.132,0.937-0.362,1.331c0.491-0.164,0.961-0.371,1.397-0.63c0.176-0.105,0.357-0.228,0.538-0.36
					c-0.132-0.471-0.046-0.92-0.036-1.422C441.636,381.927,441.663,381.608,441.696,381.29z"/>
				<path style="fill:#FFF337;" d="M442.745,376.31c-1.265-1.137-3.072-1.944-4.972-2.417c-2.61,0.024-5.142-0.758-7.711,0.241
					c-0.957,0.371-1.951,1.015-2.751,1.837c0.001,0.018,0.004,0.036-0.004,0.055c-2.117,4.863,3.89,5.611,7.364,5.933
					c1.516,0.139,3.189,0.146,4.654-0.414c0.003-0.005,0.005-0.012,0.008-0.017c0.081-0.128,0.238-0.181,0.373-0.145
					c0.151-0.071,0.302-0.139,0.448-0.224c0.77-0.45,1.427-1.082,2.022-1.745C443.038,378.453,442.838,377.457,442.745,376.31z"/>
				<path style="fill:#FFFFFF;" d="M419.151,326.65c-2.016,0.923-4.12,1.199-6.127,0.352c0.707,1.059,1.103,2.35,1.071,3.621
					c-0.045,1.789-0.49,3.488-1.211,5.072c1.347-1.15,2.822-2.074,4.339-2.109c1.333-0.03,2.526,0.465,3.627,1.19
					c-1.431-1.552-2.6-3.265-2.689-4.853C418.096,328.752,418.497,327.663,419.151,326.65z"/>
				<path style="fill:#FFF337;" d="M320.791,436.998c3.42,1.382,7.29,1.775,10.951,1.796c6.226,0.033,21.685-0.456,19.275-10.209
					c-0.365-0.358-0.657-0.793-1.032-1.148c-0.283-0.268-0.531-0.674-0.274-0.985c-5.327-3.642-11.33-3.805-17.494-3.927
					c-4.452,0.41-8.945,0.898-12.16,4.504c-0.944,1.06-1.894,2.452-2.595,3.967C316.947,433.618,317.478,435.659,320.791,436.998z"
					/>
				<path style="fill:#FFF337;" d="M391.506,361.215c-1.969-2.536-5.61-4.048-8.671-4.696c-1.844-0.39-3.753-0.579-5.641-0.518
					c-1.352,0.043-2.803,0.43-4.173,0.404c0.076,3.255,0.203,6.525,0.334,9.823c0.35-0.068,0.716-0.089,1.067-0.057
					c0.027-0.011,0.047-0.033,0.076-0.037c4.678-0.689,15.574,1.388,17.018-4.904C391.511,361.224,391.509,361.22,391.506,361.215z"
					/>
				<path style="fill:#FBAE3E;" d="M374.898,367.021c-0.053,0.05-0.116,0.09-0.2,0.102c-0.446,0.061-0.871-0.058-1.312-0.085
					c0.01,0.262,0.02,0.521,0.03,0.784c0.108,0.272,0.216,0.55,0.324,0.828c2.53-0.309,5.364,0.858,7.98,0.556
					c0.965-0.111,1.953-0.231,2.938-0.387c-0.014-0.491,0.048-0.916,0.139-1.39C381.152,368.041,377.092,367.792,374.898,367.021z"
					/>
				<path style="fill:#FBAE3E;" d="M321.514,439.552c-1.608-0.533-3.054-1.307-4.109-2.464c-0.419-0.459-0.751-0.942-1.009-1.437
					c0.048,1.257,0.415,2.467,1.263,3.521c1.082,1.346,2.477,2.359,4.052,3.127c-0.081-0.662-0.115-1.334-0.175-1.955
					C321.512,440.09,321.498,439.818,321.514,439.552z"/>
				<path style="fill:#FBAE3E;" d="M324.816,440.319c-0.66-0.101-1.318-0.224-1.96-0.379c0.037,0.166,0.071,0.329,0.101,0.467
					c0.189,0.833,0.396,1.73,0.452,2.612c0.497,0.174,1.014,0.313,1.533,0.448c-0.127-0.541-0.159-1.118-0.165-1.648
					C324.774,441.422,324.713,440.816,324.816,440.319z"/>
				<path style="fill:#FBAE3E;" d="M329.158,440.73c0-0.004,0.004-0.011,0.005-0.015c-1.007-0.048-2.075-0.115-3.166-0.239
					c0.084,0.449,0.07,0.956,0.089,1.3c0.033,0.618,0.05,1.305-0.104,1.93c1.158,0.242,2.351,0.395,3.551,0.484
					c-0.337-0.691-0.376-1.383-0.402-2.165C329.117,441.588,329.139,441.165,329.158,440.73z"/>
				<path style="fill:#FBAE3E;" d="M392.21,362.412c-0.227,1.936-1.839,3.269-4.032,4.124c0.025,0.317,0.01,0.64-0.023,0.927
					c-0.019,0.163-0.048,0.359-0.097,0.553c0.267-0.089,0.543-0.16,0.804-0.264C391.399,366.739,393.19,364.788,392.21,362.412z"/>
				<path style="fill:#FBAE3E;" d="M385.498,367.438c-0.078,0.483-0.153,0.892-0.371,1.301c0.639-0.111,1.274-0.235,1.897-0.397
					c-0.017-0.267,0.037-0.573,0.064-0.685c0.057-0.245,0.082-0.51,0.104-0.778c-0.537,0.165-1.1,0.304-1.676,0.421
					C385.51,367.346,385.505,367.392,385.498,367.438z"/>
				<path style="fill:#FBAE3E;" d="M349.234,437.323c0.165,0.486,0.116,1.919-0.188,2.793c0.043-0.032,0.091-0.058,0.134-0.091
					c3.39-2.572,5.817-7.291,3.421-10.925C354.104,432.214,352.228,435.352,349.234,437.323z"/>
				<path style="fill:#FBAE3E;" d="M385.555,375.535c-0.345,1.444,0.151,3.011,2.09,4.644c0.706,0.596,1.485,1.082,2.303,1.495
					c-0.002-0.281,0.004-0.552-0.002-0.784c-0.012-0.458-0.035-0.939,0.165-1.358c0.027-0.056,0.063-0.108,0.1-0.16
					C387.95,378.482,385.966,377.196,385.555,375.535z"/>
				<path style="fill:#FBAE3E;" d="M347.763,438.716c0.039-0.192,0.084-0.414,0.144-0.634c-0.347,0.171-0.7,0.334-1.063,0.475
					c-4.969,1.922-10.746,2.427-16.031,2.229c-0.214-0.008-0.446-0.017-0.671-0.026c0.102,0.409,0.171,0.806,0.204,1.227
					c0.064,0.798,0.072,1.506-0.242,2.232c3.286,0.183,6.582-0.121,9.264-0.619c2.979-0.554,6.172-1.272,8.799-2.888
					C347.612,440.334,347.647,439.28,347.763,438.716z"/>
			</g>
			<g>
				<path style="fill:#231F20;" d="M253.861,102.7c-0.059-0.233-0.387-0.151-0.396,0.066c-0.353,8.921-0.079,17.933,0.09,26.858
					c0.16,8.447,0.442,16.734,2.189,25.02c0.101,0.478,0.766,0.291,0.791-0.133C257.542,137.778,258.03,119.055,253.861,102.7z"/>
				<path style="fill:#231F20;" d="M303.868,87.874c-6.501,10.928-9.285,23.348-11.601,35.74
					c-2.377,12.724-4.896,25.126-8.873,37.465c-0.158,0.493,0.534,0.826,0.861,0.465c3.796-4.17,5.077-9.265,6.407-14.622
					c1.57-6.322,2.797-12.632,3.777-19.073c2.073-13.614,3.555-27.3,9.607-39.878C304.103,87.853,303.935,87.762,303.868,87.874z"/>
				<path style="fill:#231F20;" d="M315.728,122.805c-4.101,11.711-9.922,22.244-15.274,33.378
					c-0.189,0.391,0.338,0.654,0.577,0.313c6.96-9.916,13.417-21.423,15.532-33.49C316.66,122.452,315.908,122.286,315.728,122.805z
					"/>
				<path style="fill:#231F20;" d="M174.894,396.112c-3.238-2.85-7.062-4.694-10.715-6.943c-2.374-1.462-4.576-3.161-6.654-5.015
					c-1.74-1.552-2.885-3.613-4.623-5.136c-0.109-0.095-0.315-0.027-0.298,0.135c0.437,4.351,5.006,7.922,8.267,10.318
					c4.151,3.053,8.731,5.727,13.594,7.436C174.915,397.067,175.23,396.409,174.894,396.112z"/>
				<path style="fill:#231F20;" d="M361.114,356.698c-0.279-2.59-0.359-6.09-1.834-8.331c-0.058-0.087-0.21-0.073-0.231,0.038
					c-0.418,2.319,0.26,4.935,0.5,7.258c0.368,3.573,0.542,7.166,0.986,10.73c0.038,0.305,0.517,0.405,0.574,0.059
					C361.639,363.215,361.465,359.948,361.114,356.698z"/>
				<path style="fill:#231F20;" d="M355.674,357.444c-0.089-0.192-0.378-0.071-0.374,0.114c0.048,2.324,0.465,4.636,0.616,6.96
					c0.177,2.71-0.092,5.433,0.151,8.137c0.028,0.316,0.459,0.362,0.549,0.056C357.986,368.087,357.704,361.844,355.674,357.444z"/>
				<path style="fill:#231F20;" d="M352.168,369.836c-0.081-0.228-0.395-0.213-0.464,0.015c-0.852,2.856-0.62,6.091-1.189,9.029
					c-0.057,0.298,0.378,0.495,0.516,0.198C352.308,376.313,353.224,372.835,352.168,369.836z"/>
				<path style="fill:#231F20;" d="M344.683,375.475c-1.034,2.715-1.808,5.455-3.299,7.981c-0.126,0.213,0.18,0.427,0.346,0.249
					c2.044-2.192,3.199-5.208,3.427-8.181C345.179,375.228,344.77,375.246,344.683,375.475z"/>
				<path style="fill:#231F20;" d="M335.242,381.361c-1.357,0.676-2.574,2.394-2.898,3.856c-0.059,0.267,0.306,0.507,0.495,0.267
					c0.445-0.566,0.797-1.183,1.182-1.792c0.442-0.699,1.013-1.299,1.572-1.905C335.818,381.541,335.515,381.224,335.242,381.361z"
					/>
				<path style="fill:#231F20;" d="M159.833,337.094c-0.169,0.809-1.127,1.813-1.438,2.628c-0.741,1.939-1.403,3.903-2.078,5.866
					c-1.29,3.758-2.622,7.928-2.656,11.931c-0.002,0.223,0.331,0.306,0.428,0.101c1.599-3.401,2.71-7.034,3.963-10.574
					c0.715-2.022,1.354-4.109,1.908-6.181c0.337-1.26,0.119-2.475,0.365-3.653C160.392,336.893,159.9,336.775,159.833,337.094z"/>
				<path style="fill:#231F20;" d="M161.032,348.213c-2.604,3.701-4.094,8.696-3.266,13.193c0.038,0.21,0.382,0.19,0.414-0.013
					c0.336-2.085,0.576-4.187,1.001-6.257c0.479-2.328,1.415-4.554,2.109-6.823C161.34,348.149,161.116,348.094,161.032,348.213z"/>
				<path style="fill:#231F20;" d="M162.973,356.141c-0.013-0.143-0.209-0.165-0.249-0.026c-0.98,3.4-0.517,7.385-0.057,10.836
					c0.028,0.211,0.314,0.202,0.329-0.01C163.242,363.375,163.291,359.705,162.973,356.141z"/>
				<path style="fill:#231F20;" d="M169.715,369.819c-0.491-1.746-0.756-3.554-1.353-5.266c-0.083-0.238-0.407-0.167-0.42,0.07
					c-0.199,3.497,0.872,7.958,2.777,10.891c0.227,0.349,0.726,0.09,0.638-0.294C170.94,373.393,170.224,371.628,169.715,369.819z"
					/>
				<path style="fill:#231F20;" d="M177.981,377.72c-0.421-1.463-0.742-3.401-1.803-4.546c-0.128-0.138-0.415-0.064-0.44,0.131
					c-0.176,1.376,0.487,2.848,0.833,4.168c0.498,1.896,0.97,3.769,1.628,5.618c0.107,0.302,0.534,0.222,0.544-0.091
					C178.803,381.173,178.486,379.473,177.981,377.72z"/>
				<path style="fill:#231F20;" d="M190.194,381.12c-0.086-0.263-0.467-0.251-0.536,0.017c-0.395,1.538-0.247,3.488,0.566,4.864
					c0.133,0.226,0.465,0.1,0.467-0.143C190.705,384.354,190.663,382.558,190.194,381.12z"/>
				<path style="fill:#231F20;" d="M199.681,388.355c-0.498-1.033-1.023-1.933-1.09-3.109c-0.019-0.325-0.522-0.31-0.506,0.016
					c0.059,1.203,0.464,2.452,1.305,3.333C199.551,388.762,199.768,388.536,199.681,388.355z"/>
				<path style="fill:#231F20;" d="M279.126,258.486c-5.54-3.707-12.066-6.362-18.656-7.42c0-0.02,0.001-0.04,0.001-0.06
					c0.157-6.265,0.684-13.069-0.974-19.162c-0.267-0.979-1.492-0.727-1.789,0.057c-2.028,5.349-2.175,11.51-2.652,17.18
					c-0.041,0.493-0.072,0.988-0.11,1.48c-2.313-0.041-4.604,0.135-6.828,0.558c0.027-1.078,0.057-2.157,0.082-3.234
					c0.129-5.335,1.089-12.194-1.803-16.913c-0.369-0.602-1.222-0.521-1.566,0.05c-2.542,4.227-2.056,10.168-2.294,14.976
					c-0.115,2.316-0.256,4.63-0.395,6.946c-4.612,1.993-8.722,5.304-11.877,10.219c-4.054,6.314-2.467,14.045,0.635,20.312
					c2.307,4.661,5.808,7.88,9.513,10.944c-0.089,2.665-0.192,5.331-0.327,7.993c-0.642,12.565-1.547,25.115-2.41,37.664
					c-0.143,2.087-0.28,4.185-0.393,6.286c-8.02-2.967-13.738-8.759-19.317-15.502c-1.818-2.198-5.199,0.374-4.459,2.79
					c3.357,10.965,12.794,17.82,23.508,20.847c-0.055,7.702,0.575,15.378,2.88,22.774c0.193,0.619,1.243,0.666,1.34-0.043
					c0.989-7.111,1.492-14.267,1.884-21.431c3.44,0.501,6.915,0.631,10.284,0.404c0.093,2.003,0.16,4.01,0.133,6.033
					c-0.068,5.05-0.35,10.648,0.621,15.605c0.081,0.411,0.723,0.451,0.89,0.088c1.877-4.074,2.599-9.412,2.802-13.88
					c0.129-2.831,0.358-5.655,0.586-8.478c17.805-3.374,25.901-22.12,18.992-38.264c-3.509-8.199-10.026-13.039-17.054-17.352
					c-0.059-10.021-0.379-20.042-0.276-30.066c0.041-4.074,0.124-8.146,0.217-12.219c5.779,1.09,11.399,3.64,15.655,6.64
					C279.433,266.749,282.666,260.855,279.126,258.486z M238.321,283.435c-2.679-3.563-4.261-7.646-4.148-12.118
					c0.12-4.778,3.747-7.903,7.484-10.284c-0.076,1.228-0.155,2.456-0.226,3.685c-0.417,7.147-0.588,14.309-0.776,21.47
					C239.835,285.318,239.051,284.407,238.321,283.435z M243.52,348.008c0.1-2.013,0.203-4.025,0.314-6.036
					c0.701-12.565,1.79-25.107,2.498-37.672c0.089-1.58,0.149-3.16,0.223-4.74c0.637,0.577,1.267,1.165,1.878,1.782
					c1.301,1.314,2.962,2.439,4.682,3.489c-0.009,0.423-0.015,0.845-0.024,1.268c-0.264,12.67-0.106,25.338-0.171,38.008
					c-0.007,1.484,0.03,2.962,0.091,4.435C249.794,348.763,246.53,348.523,243.52,348.008z M268.075,317.174
					c5.238,7.539,5.66,18.481-0.719,25.355c-2.294,2.473-5.205,4.054-8.379,4.989c0.025-0.503,0.063-1.006,0.08-1.51
					c0.426-12.208,1.067-24.393,1.264-36.605C263.281,311.595,265.964,314.133,268.075,317.174z M253.96,267.983
					c-0.461,9.241-0.571,18.48-0.698,27.723c-2.181-1.315-4.328-2.672-6.374-4.147c0.291-8.315,0.479-16.632,0.778-24.951
					c0.103-2.866,0.189-5.733,0.271-8.602c2.107-0.613,4.32-0.887,6.574-0.887C254.307,260.741,254.141,264.365,253.96,267.983z"/>
				<path style="fill:#231F20;" d="M117.795,348.569c-2.908-0.866-6.219-0.272-9.157,0.85c-3.565,0.084-6.876,4.243-3.064,6.741
					c3.56,2.333,10.024,1.206,13.452-0.821C122.122,353.507,120.798,349.463,117.795,348.569z M111.036,355.408
					c-1.37,0.017-2.761-0.095-4.086-0.454c-1.499-0.406-2.307-1.78-1.007-3.472c0.323-0.421,0.857-0.741,1.434-1.01
					c3.476-0.798,9.67-1.569,11.355,0.46c-0.899,1.915-2.477,2.352-4.776,2.574c-1.937,0.188-4.512-0.564-6.309,0.14
					c-0.085,0.034-0.124,0.145-0.049,0.214c1.773,1.613,9.451,1.312,11.492-1.072C118.45,355.409,113.049,355.383,111.036,355.408z"
					/>
				<path style="fill:#231F20;" d="M354.888,429.267c-2.725-6.556-16.04-10.497-23.637-8.355
					c-9.011,0.69-19.206,7.622-16.271,17.228c2.643,8.648,16.885,8.422,23.721,7.454
					C345.866,444.579,358.779,438.629,354.888,429.267z M317.462,430.997c0.701-1.516,1.651-2.908,2.595-3.968
					c3.215-3.605,7.708-4.094,12.16-4.504c6.164,0.122,12.167,0.285,17.494,3.927c-0.257,0.311-0.009,0.716,0.274,0.985
					c0.375,0.355,0.668,0.791,1.032,1.148c2.409,9.753-13.049,10.242-19.275,10.209c-3.661-0.02-7.531-0.414-10.951-1.796
					C317.478,435.659,316.947,433.618,317.462,430.997z M317.659,439.172c-0.848-1.054-1.216-2.265-1.263-3.521
					c0.258,0.495,0.59,0.978,1.009,1.437c1.055,1.157,2.501,1.932,4.109,2.465c-0.016,0.266-0.002,0.538,0.022,0.791
					c0.06,0.621,0.094,1.293,0.175,1.955C320.136,441.531,318.741,440.518,317.659,439.172z M323.409,443.019
					c-0.056-0.882-0.262-1.779-0.452-2.612c-0.031-0.138-0.064-0.301-0.101-0.467c0.642,0.156,1.3,0.278,1.96,0.379
					c-0.103,0.497-0.042,1.104-0.039,1.499c0.005,0.53,0.038,1.107,0.165,1.648C324.423,443.331,323.906,443.193,323.409,443.019z
					 M325.982,443.706c0.154-0.625,0.137-1.312,0.104-1.93c-0.02-0.344-0.005-0.851-0.089-1.3c1.09,0.123,2.159,0.19,3.166,0.238
					c-0.001,0.004-0.005,0.011-0.005,0.015c-0.019,0.435-0.041,0.859-0.027,1.295c0.026,0.782,0.065,1.475,0.402,2.165
					C328.333,444.102,327.14,443.948,325.982,443.706z M330.105,444.218c0.314-0.726,0.306-1.434,0.242-2.232
					c-0.032-0.421-0.102-0.817-0.204-1.227c0.225,0.009,0.456,0.018,0.671,0.026c5.284,0.198,11.062-0.307,16.031-2.229
					c0.363-0.14,0.716-0.304,1.063-0.475c-0.061,0.22-0.105,0.442-0.144,0.634c-0.116,0.565-0.151,1.619,0.405,1.995
					c-2.628,1.616-5.82,2.334-8.799,2.888C336.687,444.098,333.391,444.401,330.105,444.218z M349.18,440.025
					c-0.043,0.033-0.091,0.059-0.134,0.091c0.304-0.874,0.353-2.307,0.188-2.793c2.994-1.971,4.87-5.109,3.367-8.223
					C354.997,432.734,352.57,437.452,349.18,440.025z"/>
				<path style="fill:#231F20;" d="M409.631,408.013c-6.221-2.454-14.669-2.315-21.624-0.277c-3.776,0.742-8.591,2.496-9.692,6.21
					c-1.145,3.865,0.536,7.773,3.912,9.91c8.118,5.137,20.223,4.871,28.473,0.137C417.856,419.886,417.12,410.968,409.631,408.013z
					 M380.355,419.92c-0.16-0.231-0.299-0.458-0.428-0.68c1.951,1.77,4.517,2.684,7.151,3.221c-0.072,0.704-0.059,1.45,0.264,1.991
					C384.597,423.661,381.997,422.293,380.355,419.92z M412.184,420.475c-4.793,5.599-15.645,5.689-22.223,4.57
					c-0.605-0.103-1.215-0.238-1.823-0.388c0.117-0.069,0.216-0.166,0.247-0.323c0.098-0.491-0.068-1.005-0.123-1.501
					c-0.006-0.057-0.019-0.111-0.027-0.167c0.81,0.133,1.612,0.235,2.404,0.327c0.04,0.269,0.086,0.537,0.144,0.802
					c0.116,0.536,0.244,1.163,0.753,1.455c0.173,0.099,0.391-0.01,0.44-0.195c0.121-0.466-0.094-0.905-0.234-1.345
					c-0.065-0.205-0.13-0.41-0.195-0.615c0.112,0.011,0.23,0.026,0.342,0.038c3.392,0.338,14.919,0.481,20.353-2.729
					C412.22,420.427,412.204,420.451,412.184,420.475z M393.885,421.448c-3.537-0.151-7.24-0.672-10.535-2.021
					c-1.3-0.531-2.451-1.338-3.224-2.52c-0.721-1.102-0.196-2.245,0.019-3.387c1.831-2.248,5.599-3.666,8.442-4.622
					c4.002-0.604,8.22-0.69,12.013-0.574c4.187,0.129,11.482,1.885,13.292,5.689C414.941,422.114,398.195,421.634,393.885,421.448z"
					/>
				<path style="fill:#231F20;" d="M411.089,367.763c3.673-3.757,0.505-8.746-4.367-9.992c-3.344-0.854-7.01-0.538-10.398-0.208
					c-1.014,0.099-3.571,0.146-4.945,0.815c-1.689-1.548-3.889-2.659-5.881-3.35c-3.186-1.106-9.251-1.994-12.502,0.154
					c-0.12-6.346-0.025-12.664,0.657-19.123c1.08-10.222,2.344-20.423,3.299-30.659c1.869-20.031,1.813-40.211-2.81-59.888
					c-3.375-14.366-11.953-26.409-21.926-36.971c-10.352-10.965-21.497-21.133-31.769-32.183c3.263-2.074,5.955-4.969,7.202-8.512
					c2.274-6.452-1.703-13.382-8.082-15.22c6.26-7.459,9.752-17.77,14.453-25.898c6.602-11.418,12.717-22.589,16.301-35.377
					c2.499-8.921,3.791-20.793-5.904-25.85c-10.24-5.34-21.489,5.162-32.041,4.888c-1.466-0.312-2.886-0.741-4.247-1.493
					c-2.268-1.256-4.091-3.517-6.175-5.061c-3.488-2.584-7.65-3.285-11.889-3.103c-7.374,0.318-17.797,6.081-25.983,4.94
					c-8.372-4.919-17.275-13.545-27.565-12.516c-4.609,0.461-9.03,3.394-12.829,5.775c-1.729,1.084-3.253,2.507-4.755,3.875
					c-2.982,2.716-5.033,3.852-8.972,4.094c-3.274-0.29-6.546-0.533-9.788-1.251c-4.837-1.072-8.722-3.576-12.906-6.032
					c-3.247-1.906-6.919-2.885-9.869-1.61c-0.646,0.09-1.216,0.419-1.818,0.755c-0.345,0.193-0.66,0.394-0.965,0.604
					c-0.159,0.027-0.315,0.088-0.448,0.213c-6.512,6.105-5.67,13.843-1.808,21.221c5.406,10.327,12.261,19.909,17.647,30.295
					c5.437,10.485,9.543,21.926,15.678,31.992c1.466,2.405,3.317,5.124,5.457,7.701c-0.255,0.042-0.502,0.148-0.703,0.348
					c-4.279,4.284-6.025,11.135-4.612,16.978c0.45,1.861,1.342,3.419,2.515,4.709c-13.042,5.093-23.477,19.158-31.112,29.863
					c-9.884,13.861-17.519,29.051-23.286,45.037c-7.001,19.407-10.975,39.771-13.221,60.237c-1.114,10.146-1.429,20.262-1.087,30.46
					c0.111,3.314,0.168,6.767,0.28,10.259c-5.309-0.796-12.205,3.095-13.514,8.078c-0.072,0.271-0.115,0.535-0.148,0.795
					c-4.239-1.19-10.5,0.619-13.556,3.378c-1.764,1.593-2.083,3.918-1.285,6.064c0.373,1.002,1.017,2.07,1.842,2.78
					c-4.64,0.93-9.618,3.015-10.888,6.768c-0.285,0.464-0.483,0.917-0.62,1.361c-1.89-1.075-5.674,0.058-7.249,0.637
					c-2.597,0.954-5.715,2.963-6.574,5.771c-1.469,4.797,2.803,7.756,7.435,8.682c-3.455-0.128-6.992,0.654-9.866,2.241
					c-2.475,1.367-5.359,4.501-4.352,7.534c2.203,6.637,16.666,5.278,21.571,4.449c3.822-0.646,15.81-7.292,8.872-11.625
					c-1.945-1.215-4.353-1.758-6.771-1.989c-0.896-0.441-1.884-0.682-2.912-0.782c0.276-0.088,0.548-0.18,0.794-0.292
					c0.223-0.102,0.264-0.446-0.016-0.512c-3.292-0.778-6.314-0.184-9.472-1.846c-1.661-0.873-2.98-2.156-3.13-3.737
					c0.448,0.787,1.43,1.482,2.855,2.012c2.355,0.877,5.063,1.096,7.555,1.267c1.662,0.114,4.003,0.34,5.522-0.485
					c0.09-0.049,0.084-0.197-0.008-0.24c-2.512-1.201-6.23-0.819-8.95-1.193c-1.708-0.234-3.51-0.553-5.103-1.231
					c-2.132-0.907-1.46-2.434-0.032-3.802c0.026-0.024,0.02-0.058,0.002-0.08c1.284-1.112,2.996-1.856,4.48-2.349
					c1.378-0.457,3.615-0.326,5.142-0.901c0.184,4.49,7.367,7.667,12.309,7.98c6.145,0.389,16.166-0.717,18.684-7.448
					c2.744-7.333-7.819-10.491-12.742-10.763c-1.012-0.056-2.295-0.011-3.696,0.139c-0.855-0.281-1.743-0.312-2.379-1.177
					c-0.611-0.833-0.977-2.152-0.945-3.242c0.368,1.412,1.746,2.555,3.539,3.107c4.16,1.28,8.642,0.248,12.728-0.594
					c0.143-0.03,0.097-0.25-0.042-0.248c-2.917,0.056-5.96,0.025-8.884-0.133c-1.634-0.088-3.222-0.236-4.791-0.727
					c-1.902-0.594-2.072-1.899-1.796-3.356c0.864-1.019,2.284-1.72,3.374-2.18c3.001-1.268,6.213-1.364,9.364-1.859
					c0.763,5.258,9.865,7.515,14.965,6.432c-0.711,5.868-2.467,11.241-4.192,17.021c-0.287,0.961-0.56,1.908-0.799,2.848
					c-4.989-1.382-12.379,1.605-14.303,6.228c-0.913,2.196-0.01,4.309,1.926,5.57c3.206,2.089,7.818,3.091,11.493,1.703
					c0.063-0.01,0.129-0.016,0.191-0.027c0.801-0.137,1.691-0.289,2.443-0.659c2.562,2.857,6.87,3.936,10.5,4.624
					c4.987,0.944,10.026,0.527,15.039,0.051c5.548-0.526,10.984,0.112,16.476-0.137c11.271,3.687,22.043,9.266,33.289,12.919
					c14.191,4.608,29.808,4.553,44.516,3.395c25.428-2.003,50.952-6.885,75.171-15.109c6.231-0.783,12.347-1.148,18.711-0.985
					c6.004,0.155,12.329,0.806,18.121-1.166c12.755-4.341,8.843-19.872,4.573-31.297c2.192,0.964,5.321,0.818,7.395,0.69
					c2.191-0.135,4.375-0.6,6.436-1.366c-4.722,3.362-6.003,9.622,0.383,13.413c6.729,3.994,17.558,2.951,23.79-1.456
					C417.813,377.782,416.754,370.557,411.089,367.763z M104.965,403.715c-0.013,0.155-0.024,0.307-0.034,0.456
					c-0.294,0.102-0.573,0.193-0.809,0.258c-5.719,1.567-13.486,1.626-19.024-0.624c-2.09-0.849-2.633-2.073-2.212-3.396
					c1.735,6.314,15.051,4.325,19.543,3.311c0.81-0.183,1.713-0.454,2.625-0.794C104.991,403.183,104.986,403.472,104.965,403.715z
					 M106.919,402.394c-0.047,0.333-0.061,0.657-0.047,0.973c-0.353,0.172-0.697,0.32-1.033,0.458
					c0.021-0.361,0.087-0.833-0.079-1.173c0.407-0.17,0.812-0.355,1.207-0.558C106.95,402.196,106.932,402.303,106.919,402.394z
					 M110.81,398.71c0.059-0.113,0.097-0.217,0.133-0.321c0.046,0.108,0.079,0.221,0.095,0.34c0.215,1.621-1.324,3.037-3.095,4.071
					c0-0.011,0-0.019,0-0.03c0.002-0.372,0.048-0.826,0.051-1.265C109.191,400.752,110.22,399.831,110.81,398.71z M104.641,395.956
					c0.525,0.084,1.443,0.209,2.421,0.42c5.83,3.479-7.511,6.304-9.561,6.554c-4.257,0.518-11.458,0.719-14.186-3.441
					c0.357-0.58,0.866-1.166,1.487-1.738c1.851-1.707,4.017-2.447,6.308-2.737c1.106,0.028,2.223-0.022,3.313-0.008
					C97.844,395.053,101.263,395.418,104.641,395.956z M103.767,379.322c0.074,0.099,0.134,0.205,0.222,0.296
					c1.81,1.873,4.613,2.415,7.263,2.629c-0.039,0.152-0.069,0.304-0.085,0.447c-0.084,0.758-0.122,1.516,0.066,2.264
					c0.009,0.036,0.03,0.057,0.043,0.089C107.277,384.479,104.138,382.734,103.767,379.322z M112.748,385.197
					c0.108-0.138,0.179-0.309,0.164-0.522c-0.042-0.614-0.16-1.222-0.253-1.828c-0.027-0.174-0.057-0.346-0.094-0.515
					c0.38,0.02,0.756,0.037,1.118,0.053c0.381,0.016,0.949,0.01,1.642-0.025c-0.12,0.466-0.009,1.119,0.032,1.442
					c0.052,0.42,0.061,0.954,0.182,1.426C114.591,385.266,113.654,385.26,112.748,385.197z M116.886,385.143
					c0.023-0.47-0.088-0.98-0.149-1.385c-0.039-0.257-0.118-0.985-0.348-1.466c1.517-0.117,3.402-0.345,5.296-0.712
					c-0.004,0.146-0.003,0.291,0.007,0.438c0.051,0.771,0.1,1.427,0.413,2.137c0.012,0.026,0.032,0.039,0.049,0.059
					C120.479,384.664,118.681,384.986,116.886,385.143z M130.333,377.238c0.967,2.862-2.784,5.432-7.75,6.852
					c0.255-0.771,0.257-1.828-0.029-2.687C126.144,380.623,129.564,379.311,130.333,377.238z M128.62,374.435
					c-0.004,5.947-8.847,6.32-13.144,6.438c-2.533,0.07-5.078-0.144-7.538-0.758c-2.755-0.689-3.183-1.844-3.164-3.844
					C110.562,370.942,123.289,368.664,128.62,374.435z M128.136,357.066c0.019-0.1,0.019-0.195,0.045-0.297
					c1.332-5.181,7.232-5.763,11.794-6.472c0.116,3.084,0.305,6.179,0.619,9.23c-1.847,0.044-3.888,0.514-5.616,0.452
					C132.38,359.887,129.085,359.394,128.136,357.066z M131.42,362.167c-1.344-0.581-2.452-1.491-3.004-2.66
					c0.69,0.616,1.625,1.098,2.685,1.432c1.595,0.502,3.351,0.59,5.046,0.585c-0.04,0.324-0.04,0.659-0.034,0.967
					c0.008,0.361,0.015,0.712,0.075,1.055C134.544,363.304,132.859,362.789,131.42,362.167z M138.526,362.47
					c-0.001,0.332-0.033,0.768-0.021,1.201c-0.166,0.005-0.331,0.021-0.497,0.02c-0.318-0.002-0.643-0.021-0.971-0.049
					c0.061-0.385,0.04-0.779,0.022-1.182c-0.013-0.302-0.033-0.629-0.091-0.944c0.097-0.001,0.197,0,0.293-0.002
					c0.384-0.008,0.828-0.007,1.289-0.014C138.53,361.822,138.527,362.143,138.526,362.47z M139.775,363.616
					c-0.015-0.347-0.058-0.686-0.076-0.962c-0.026-0.394-0.043-0.796-0.096-1.191c0.405-0.023,0.809-0.057,1.198-0.123
					c0.089,0.733,0.175,1.469,0.282,2.195C140.649,363.553,140.213,363.586,139.775,363.616z M410.01,367.318
					c-1.181-0.453-2.457-0.764-3.788-0.958c2.646-0.846,4.545-2.313,4.067-4.689C411.284,363.161,410.964,365.201,410.01,367.318z
					 M399.77,359.098c2.442-0.096,4.901,0.042,7.278,0.622c1.323,0.323,2.249,0.837,2.865,1.486
					c0.159,5.543-11.228,4.505-14.737,5.543c-0.157,0.046-0.148,0.28,0.01,0.316c0.01,0.003,0.023,0.004,0.034,0.006
					c-0.639,0.159-1.272,0.329-1.888,0.52c-0.062-0.013-0.126-0.016-0.193-0.003c-0.575,0.108-1.128,0.257-1.663,0.433
					c1.957-1.464,3.196-3.721,2.287-6.233c-0.254-0.704-0.639-1.344-1.082-1.947C395.039,359.927,398.521,359.147,399.77,359.098z
					 M377.194,356c1.887-0.061,3.797,0.128,5.641,0.518c3.062,0.648,6.702,2.16,8.671,4.696c0.003,0.005,0.006,0.009,0.01,0.014
					c-1.207,5.261-9.011,4.674-14.275,4.742c-0.633-0.073-1.263-0.121-1.938-0.062c-0.686,0.06-1.317,0.04-1.961,0.005
					c-0.126-3.191-0.248-6.358-0.322-9.51C374.39,356.431,375.842,356.044,377.194,356z M209.076,140.957
					c-5.232-8.412-9.952-16.851-14.207-25.818c-4.379-9.225-8.269-18.554-13.421-27.394c-2.083-3.574-4.523-6.9-6.489-10.55
					c-3.113-5.779-2.89-10.804,0.485-16.337c3.805-1.497,6.636-1.165,10.526,1.151c3.191,1.899,6.082,3.809,9.567,5.166
					c5.964,2.324,13.022,3.132,19.272,1.585c2.64-0.321,5.464-1.82,6.465-3.797c4.03-2.765,7.562-5.958,12.366-7.85
					c5.622-2.214,11.449,2.018,16.384,4.221c4.508,2.013,8.247,4.943,13.135,5.484c6.407,2.453,13.751-0.559,20.918-2.27
					c7.122-1.7,13.157-1.26,18.796,3.776c3.523,3.147,6.823,5.51,11.361,3.902c7.703,0.715,15.691-4.006,23.222-4.729
					c15.294-1.469,11.459,16.868,8.484,25.357c-3.882,11.077-9.511,21.858-14.49,32.481c-1.995,4.259-4.04,8.514-6.117,12.735
					c-3.705,7.527-8.938,13.296-13.945,19.886c-0.018,0.024-0.025,0.05-0.04,0.075c-5.777,3.581-13.135,4.981-19.631,5.892
					c-8.75,1.228-17.729,0.783-26.507,0.14c-7.48-0.547-14.918-1.537-22.395-2.122c-0.223-0.017-0.448-0.036-0.671-0.053
					c-4.861-8.527-8.869-17.053-11.787-26.462c-3.046-9.822-4.515-19.895-7.027-29.83c-0.024-0.098-0.178-0.07-0.173,0.029
					c0.534,10.196,2.21,20.685,4.592,30.61c2.206,9.19,5.746,19.449,13.336,25.568c-6.206-0.496-12.6-1.139-18.333-3.577
					c-1.577-1.957-3.506-3.664-5.118-5.589C214.526,148.923,211.635,145.07,209.076,140.957z M212.62,152.487
					c3.364,3.701,7.317,6.865,11.552,7.979c0.031,0.009,0.053-0.008,0.066-0.03c4.545,2.508,9.842,3.473,15.125,4.054
					c9.267,1.019,18.549,2.115,27.839,2.911c9.501,0.816,19.329,0.991,28.733-0.826c7.59-1.467,15.496-3.361,19.827-10.097
					c0.712-0.595,1.381-1.237,2.032-1.897c3.81,4.202,8.251,7.374,5.094,13.712c-2.411,4.846-7.734,7.627-12.287,10.132
					c-14.746,2.818-29.302,2.292-44.352,1.168c-14.667-1.097-29.444-1.503-44.011-3.401c-4.863-2.046-10.445-3.922-12.308-9.353
					C208.267,161.997,211.234,156.993,212.62,152.487z M136.013,397.253c-0.199,0.089-0.408,0.177-0.621,0.263
					c-3.725-0.247-12.703-0.854-12.126-4.218c0.246,0.2,0.515,0.373,0.773,0.511c1.553,0.833,3.403,1.159,5.125,1.416
					c1.682,0.251,3.494,0.541,5.089-0.191c0.12-0.055,0.194-0.259,0.032-0.325c-2.347-0.951-5.029-0.944-7.49-1.531
					c-0.864-0.206-2.272-0.476-2.862-1.241c0.18-0.233,0.383-0.472,0.639-0.726c2.962-2.928,7.221-4.063,11.312-4.445
					c-0.61,2.996-0.688,5.939,0.638,8.997c0.136,0.315,0.292,0.612,0.46,0.898C136.65,396.874,136.322,397.115,136.013,397.253z
					 M364.741,399.408c-6.516,0.831-13.714-0.059-20.585,0.305c1.724-0.672,3.441-1.359,5.149-2.067
					c0.356-0.149,0.203-0.686-0.181-0.581c-15.565,4.284-30.691,9.044-46.669,11.705c-14.867,2.476-29.736,5.156-44.764,6.466
					c-15.191,1.323-30.657,0.799-45.264-3.883c-11.279-3.616-21.367-8.614-32.738-10.568c-7.048-3.222-16.436-0.398-23.806-0.119
					c-5.464,0.206-17.01-0.706-16.957-8.19c0.034-4.774,2.331-9.756,3.439-14.347c0.534-2.212,0.854-4.639,0.91-7.076
					c0.255-0.086,0.483-0.311,0.514-0.619c0.995-9.779-0.886-20.245-1.173-30.081c-0.278-9.504,0.016-18.956,0.899-28.422
					c1.841-19.727,6.5-39.239,12.632-58.045c5.227-16.032,12.564-31.114,21.771-45.229c4.664-7.151,9.937-13.926,15.681-20.241
					c4.925-5.414,10.452-9.793,16.074-14.326c3.049,2.459,7.319,3.56,11.247,3.486c13.572,5.08,29.236,3.658,43.383,4.728
					c9.452,0.714,18.892,1.433,28.378,1.251c7.246-0.14,15.703-0.625,22.023-4.557c1.513-0.462,3.008-1.092,4.425-1.864
					c6.866,12.216,17.626,21.397,27.408,31.248c10.92,10.997,19.822,23.12,23.742,38.327c5.06,19.628,4.143,40.789,2.532,60.799
					c-1.425,17.687-5.042,36.04-2.68,53.809c-0.147,0.079-0.255,0.231-0.25,0.454C370.109,372.759,383.677,396.99,364.741,399.408z
					 M384.658,368.82c-0.984,0.156-1.973,0.276-2.938,0.387c-2.616,0.302-5.45-0.865-7.98-0.556
					c-0.108-0.278-0.216-0.556-0.324-0.828c-0.012-0.295-0.022-0.586-0.034-0.881c0.508,0.209,1.038,0.335,1.689,0.316
					c0.207-0.006,0.425,0.002,0.642,0.008c2.296,0.573,5.855,0.705,9.084,0.164C384.705,367.904,384.644,368.329,384.658,368.82z
					 M387.088,367.656c-0.027,0.113-0.08,0.418-0.064,0.685c-0.623,0.162-1.259,0.286-1.897,0.397
					c0.218-0.409,0.292-0.817,0.371-1.301c0.007-0.046,0.012-0.092,0.018-0.139c0.576-0.117,1.139-0.256,1.676-0.421
					C387.17,367.146,387.145,367.41,387.088,367.656z M388.058,368.015c0.05-0.194,0.078-0.39,0.097-0.553
					c0.033-0.287,0.048-0.61,0.023-0.927c2.193-0.855,3.805-2.188,4.032-4.124c0.98,2.377-0.811,4.327-3.349,5.34
					C388.601,367.855,388.325,367.927,388.058,368.015z M390.111,379.533c-0.2,0.419-0.177,0.9-0.165,1.358
					c0.006,0.232,0,0.503,0.002,0.784c-0.818-0.413-1.597-0.899-2.303-1.495c-1.939-1.633-2.435-3.199-2.09-4.644
					c0.411,1.661,2.395,2.947,4.656,3.837C390.174,379.424,390.138,379.477,390.111,379.533z M387.97,372.08
					c1.338-1.172,2.992-2.182,4.396-2.976c3.384-0.727,6.878-1.05,10.3-1.024c3.809,0.029,10.032,1.925,11.599,5.424
					c-1.526,6.195-10.239,6.205-15.314,6.104c-2.783-0.057-5.527-0.456-8.21-1.182C386.841,377.372,386.092,375.175,387.97,372.08z
					 M391.684,382.409c-0.006-0.554-0.148-1.159-0.191-1.568c-0.032-0.306-0.075-0.768-0.223-1.083
					c0.639,0.212,1.278,0.382,1.903,0.532c-0.01,0.51,0.001,1.009,0.061,1.54c0.035,0.302,0.056,0.697,0.141,1.052
					C392.804,382.748,392.236,382.6,391.684,382.409z M412.708,379.413c-3.72,4.259-11.948,4.443-17.057,3.873
					c-0.41-0.046-0.817-0.129-1.226-0.2c0.124-0.482,0.009-1.107-0.049-1.524c-0.052-0.384-0.136-0.729-0.25-1.061
					c0.689,0.135,1.341,0.237,1.894,0.285c0.309,0.027,0.685,0.054,1.088,0.079c0.018,0.267,0.061,0.532,0.168,0.795
					c0.086,0.214,0.366,0.206,0.438-0.014c0.082-0.248,0.108-0.495,0.112-0.742c4.538,0.218,12.917,0.037,16.108-3.233
					C413.634,378.231,413.235,378.81,412.708,379.413z"/>
				<path style="fill:#231F20;" d="M445.627,378.428c-0.424-3.182-3.137-4.757-6.232-5.353c-0.672-0.411-1.533-0.58-2.289-0.703
					c-0.59-0.097-1.192-0.101-1.788-0.082c-4.619-0.906-10.595,2.16-11.016,6.936c-0.48,5.452,6.043,7.328,10.328,7.601
					C439.425,387.131,446.423,384.377,445.627,378.428z M438.948,383.037c-0.083,0.66-0.126,1.206-0.033,1.859
					c-1.22,0.294-2.515,0.381-3.701,0.399c-3.323,0.049-8.846-1.146-9.493-5.104c-0.092-0.561-0.054-1.108,0.073-1.632
					c0.048,2.814,4.992,4.45,7.725,4.65c0.478,0.035,1.082,0.02,1.756-0.044c0.015,0.298,0.093,0.598,0.216,0.776
					c0.122,0.176,0.37,0.168,0.48-0.015c0.121-0.201,0.176-0.544,0.157-0.867c0.927-0.136,1.934-0.352,2.913-0.655
					C439.001,382.623,438.973,382.842,438.948,383.037z M439.324,381.544c-1.465,0.56-3.138,0.554-4.654,0.414
					c-3.474-0.322-9.48-1.07-7.364-5.933c0.008-0.019,0.004-0.037,0.004-0.055c0.801-0.822,1.794-1.465,2.751-1.837
					c2.569-0.999,5.101-0.217,7.711-0.241c1.9,0.473,3.707,1.28,4.972,2.417c0.094,1.148,0.293,2.143-0.57,3.103
					c-0.595,0.662-1.252,1.295-2.022,1.745c-0.145,0.085-0.297,0.153-0.447,0.224c-0.135-0.036-0.292,0.017-0.373,0.145
					C439.329,381.532,439.328,381.539,439.324,381.544z M441.629,382.254c-0.01,0.501-0.096,0.95,0.036,1.422
					c-0.181,0.132-0.362,0.255-0.538,0.36c-0.436,0.259-0.906,0.465-1.397,0.63c0.229-0.394,0.312-0.83,0.362-1.331
					c0.037-0.386,0.059-0.862-0.023-1.289c0.575-0.222,1.13-0.467,1.628-0.756C441.663,381.608,441.636,381.927,441.629,382.254z
					 M442.253,383.199c0.158-0.686,0.033-1.503-0.1-2.188c1.149-0.769,1.929-1.744,1.939-2.941c0.01,0.023,0.026,0.042,0.036,0.065
					C444.907,379.926,443.686,381.92,442.253,383.199z"/>
				<path style="fill:#231F20;" d="M129.756,280.279c-1.163-0.171-2.361-0.334-3.547-0.385c-4.616-0.737-6.565-3.385-6.574-7.27
					c0.082-0.664,0.125-1.327,0.143-1.98c0.048-0.343,0.108-0.692,0.179-1.049c0.037-0.187-0.047-0.329-0.171-0.407
					c-0.004-0.197-0.004-0.401-0.011-0.591c-0.01-0.3-0.432-0.271-0.455,0.014c-0.017,0.212-0.034,0.426-0.05,0.639
					c-0.033,0.043-0.06,0.095-0.074,0.161c-0.302,1.391-0.413,2.615-0.378,3.713c-0.29,1.447-0.783,2.831-1.726,4.04
					c-1.309,1.678-3.629,2.095-5.849,2.117c-1.074-0.121-2.146-0.136-3.059-0.147c-0.837-0.011-0.749,1.195,0.04,1.266
					c0.797,0.074,1.608,0.13,2.414,0.136c3.429,0.417,5.482,1.927,5.395,6.279c-0.008,0.397-0.009,1.52,0.078,2.379
					c-0.195,0.677-0.384,1.334-0.577,1.924c-0.143,0.434,0.443,0.668,0.728,0.393c0.656-0.635,0.974-1.871,1.068-3.263
					c0.524-1.611,1.103-3.194,1.95-4.669c1.076-1.872,2.885-2.573,4.916-2.803c0.428-0.049,1.211-0.081,1.996-0.117
					c1.069,0.222,2.225,0.381,3.477,0.475C130.155,281.172,130.238,280.35,129.756,280.279z M120.006,281.514
					c-1.258,0.968-2.092,2.477-2.733,4.11c-0.141-1.388-0.435-2.667-0.782-3.425c-0.463-1.012-1.254-1.679-2.199-2.13
					c1.083-0.336,2.095-0.882,2.97-1.756c0.875-0.874,1.453-1.976,1.838-3.17c0.634,2.389,2.289,3.916,4.73,4.843
					C122.472,280.17,121.172,280.616,120.006,281.514z"/>
				<path style="fill:#231F20;" d="M121.315,336.143c-1.976-3.91-7.499-8.911-5.157-13.523c0.207-0.407,1.284-1.489,1.659-2.07
					c0.486-0.371,0.973-0.768,1.474-1.18c0.196-0.161-0.002-0.502-0.216-0.343c-0.523,0.389-1.034,0.791-1.519,1.208
					c-0.194,0.07-0.467,0.198-0.844,0.401c-2.426,1.313-4.351,1.86-6.97,0.75c-2.296-0.973-4.08-2.884-6.116-4.305
					c-0.274-0.312-0.54-0.618-0.788-0.913c-0.366-0.438-0.968,0.213-0.606,0.646c3.346,3.998,7.475,8.988,4.177,12.879
					c-1.177,0.717-2.253,1.562-3.131,2.289c-0.001,0.001-0.002,0.001-0.004,0.002c0,0,0,0,0,0.001
					c-0.037,0.031-0.078,0.064-0.115,0.094c-0.512,0.426,0.198,1.269,0.736,0.893c2.788-1.767,5.696-4.083,9.195-3.222
					c3.107,0.765,5.847,4.415,7.956,6.613C121.194,336.517,121.4,336.31,121.315,336.143z M112.694,328.405
					c-1.463-0.535-3.031-0.264-4.529,0.373c0.456-0.911,0.69-1.95,0.585-3.191c-0.152-1.791-1.081-3.492-2.244-5.069
					c1.166,0.951,2.44,1.733,3.758,2.075c2.31,0.599,4.114,0.127,5.814-0.858c-0.981,1.205-1.597,2.605-1.421,4.394
					c0.217,2.21,1.841,4.269,3.438,6.189C116.518,330.624,114.607,329.106,112.694,328.405z"/>
				<path style="fill:#231F20;" d="M425.545,321.56c0.327-0.372-0.193-0.84-0.552-0.518c-1.372,1.228-3.459,2.71-4.967,4.455
					c-0.612,0.382-1.259,0.718-1.948,0.992c-3.262,1.29-5.92-1.04-8.522-2.602c-0.068-0.041-0.145,0.04-0.116,0.109
					c-0.038-0.026-0.078-0.053-0.113-0.079c-0.873-0.609-1.646-0.928-2.719-0.756c-0.181,0.029-0.227,0.226-0.079,0.333
					c0.682,0.493,1.34,0.89,2.072,1.304c0.234,0.133,0.442,0.302,0.651,0.469c1.997,1.856,3.72,2.944,3.75,6.059
					c0.028,2.948-1.843,5.832-3.762,7.908c-0.507,0.549,0.284,1.241,0.826,0.775c2.081-1.789,4.248-4.185,6.906-5.114
					c2.643-0.924,6.516,2.5,8.245,3.941c0.043,0.037,0.091,0.025,0.127-0.002c0.009,0.008,0.02,0.016,0.028,0.023
					c0.117,0.096,0.308-0.039,0.213-0.176c-1.92-2.755-5.003-4.897-6.33-8.029c-0.697-1.644,0.34-3.455,1.81-5.078
					C422.701,324.487,424.232,323.055,425.545,321.56z M418.162,329.922c0.089,1.589,1.257,3.301,2.689,4.853
					c-1.101-0.725-2.294-1.22-3.627-1.19c-1.518,0.035-2.992,0.959-4.339,2.109c0.722-1.584,1.166-3.283,1.211-5.072
					c0.032-1.271-0.365-2.562-1.071-3.62c2.008,0.847,4.112,0.571,6.128-0.352C418.497,327.663,418.096,328.752,418.162,329.922z"/>
			</g>
			<path style="fill:#231F20;" d="M111.048,385.999c-0.213-0.021-0.249,0.272-0.101,0.371c3.131,2.108-2.965,4.211-4.234,4.514
				c-2.222,0.53-4.4,0.835-6.689,0.885c-0.755,0.017-1.224,1.206-0.42,1.551c1.895,0.813,3.924,0.39,5.899,0.015
				c2.154-0.409,4.442-0.858,6.251-2.167C114.147,389.437,114.527,386.341,111.048,385.999z"/>
			<path style="fill:#231F20;" d="M111.068,385.68c-0.379-0.501-1.141-0.613-1.498,0c-0.071,0.121-0.132,0.252-0.165,0.389
				c-0.015,0.083-0.024,0.139-0.031,0.182c-0.008,0.014-0.017,0.028-0.026,0.043c-0.151,0.155-0.291,0.341-0.433,0.506
				c-0.401,0.464-0.71,0.944-1.257,1.254c-0.175,0.099-0.207,0.416,0,0.506c0.822,0.356,1.54-0.291,2.209-0.706
				C110.552,387.428,111.768,386.608,111.068,385.68z"/>
			<path style="fill:#231F20;" d="M134.883,364.517c-0.334-0.943-1.606-0.552-1.469,0.405c0.279,1.943-3.049,3.772-4.426,4.327
				c-1.76,0.71-3.599,0.953-5.449,1.289c-0.259,0.047-0.255,0.469,0,0.52c2.858,0.569,5.806,0.271,8.322-1.297
				C133.424,368.789,135.614,366.58,134.883,364.517z"/>
			<path style="fill:#FFFFFF;" d="M208.783,192.072c-10.467,7.114-19.317,18.269-26.044,28.917
				c-7.184,11.37-13.742,23.887-18.093,36.625c-8.877,25.989-16.381,53.089-14.161,80.801c0.094,1.17,1.749,1.182,1.828,0
				c1.743-25.942,11.779-51.373,20.038-75.832c4.097-12.134,9.859-23.795,16.008-35.022c6.097-11.131,14.244-22.645,23.974-30.887
				C214.855,194.538,211.536,190.201,208.783,192.072z"/>
			<path style="fill:#FFFFFF;" d="M206.95,213.303c-2.568,2.132-4.669,4.753-6.565,7.49c-1.537,2.218-2.953,4.734-2.826,7.508
				c0.063,1.378,1.965,1.648,2.394,0.324c1.545-4.775,6.482-8.974,10.312-12.008C212.609,214.76,209.272,211.374,206.95,213.303z"/>
			<path style="fill:#FFFFFF;" d="M218.714,219.45c-1.508,1.563-2.709,3.367-4.097,5.031c-1.16,1.391,0.743,3.385,2.022,2.022
				c1.475-1.572,2.788-3.288,4.329-4.799C222.436,220.266,220.141,217.972,218.714,219.45z"/>
			<path style="fill:#FFFFFF;" d="M214.197,136.19c-1.049-5.68-3.324-11.132-5.187-16.583c-1.937-5.665-3.791-11.311-5.994-16.88
				c-1.887-4.77-3.339-9.689-5.042-14.525c-0.6-1.703-5.751-12.94-4.421-13.861c0.871-0.603,0.805-1.652,0-2.267
				c-1.184-0.904-1.577-0.985-3.055-0.96c-0.845,0.015-1.871,0.468-2.242,1.286c-1.789,3.944,0.643,8.773,1.933,12.617
				c1.875,5.589,3.868,11.287,6.168,16.715c4.921,11.613,9.526,24.456,16.385,35.072C213.245,137.585,214.36,137.072,214.197,136.19
				z"/>
			<path style="fill:#FFFFFF;" d="M232.914,64.743c-5.309-0.147-5.565,7.2-5.708,10.994c-0.157,4.165,0.457,8.223,1.332,12.287
				c1.025,4.761,3.392,9.052,4.338,13.777c0.129,0.645,1.184,0.503,1.151-0.156c-0.327-6.417-2.234-12.605-2.427-19.064
				c-0.067-2.257-0.249-11.528,2.663-12.859C236.807,68.558,235.364,64.811,232.914,64.743z"/>
			<path style="fill:#FFFFFF;" d="M240.198,68.115c-1.12-0.865-2.91-0.619-3.616,0.69c-1.039,1.928-1.194,4.748-0.223,6.739
				c0.462,0.948,2.15,1.014,2.59,0c0.329-0.758,0.44-1.526,0.678-2.313c0.206-0.685,0.393-1.06,0.821-1.444
				C241.549,70.797,241.299,68.965,240.198,68.115z"/>
			<path style="fill:#B29564;" d="M260.88,169.71c-4.419-0.425-8.819-0.299-13.088-1.621c-3.301-1.023-6.427-1.997-9.912-2.118
				c-3.439-0.12-7.211-0.289-10.655-0.823c-1.313-0.203-8.501-1.203-9.035-2.75c-0.18-0.522-1.129-0.675-1.22,0
				c-0.686,5.061,11.231,7.97,14.564,8.914c4.322,1.223,9.019,1.986,13.501,2.427c2.129,0.21,3.708,0.002,5.709-0.643
				c3.401-1.096,6.568-1.332,10.137-1.698C261.961,171.287,261.969,169.815,260.88,169.71z"/>
		</g>
	</g>
</g>
<g id="Designed_by_Freepik">
	<g>
		<g>
			<path style="fill:#C4C4C4;" d="M175.869,471.827c-0.14-0.17-0.34-0.25-0.61-0.25c-0.27,0-0.47,0.09-0.62,0.27
				c-0.14,0.191-0.21,0.46-0.21,0.82v2.6c-0.33-0.359-0.67-0.63-1.02-0.81c-0.35-0.17-0.77-0.26-1.28-0.26
				c-0.87,0-1.58,0.31-2.12,0.92c-0.53,0.62-0.8,1.47-0.8,2.57c0,0.52,0.07,1,0.2,1.449c0.14,0.45,0.33,0.841,0.6,1.17
				c0.26,0.33,0.57,0.58,0.93,0.761c0.35,0.18,0.74,0.27,1.16,0.27c0.32,0,0.62-0.05,0.88-0.14c0.27-0.08,0.52-0.21,0.75-0.38
				c0.23-0.17,0.46-0.391,0.7-0.66v0.17c0,0.32,0.08,0.57,0.23,0.75c0.16,0.17,0.36,0.26,0.6,0.26c0.24,0,0.44-0.09,0.6-0.25
				c0.15-0.17,0.23-0.42,0.23-0.76v-7.75C176.089,472.247,176.019,471.997,175.869,471.827z M174.099,478.997
				c-0.15,0.33-0.35,0.58-0.61,0.74c-0.25,0.16-0.54,0.24-0.84,0.24c-0.31,0-0.59-0.091-0.85-0.261c-0.26-0.17-0.46-0.42-0.61-0.75
				c-0.14-0.34-0.22-0.739-0.22-1.22c0-0.45,0.07-0.85,0.21-1.19c0.14-0.34,0.34-0.6,0.59-0.779c0.25-0.181,0.54-0.28,0.86-0.28
				c0.31,0,0.6,0.09,0.86,0.27c0.26,0.181,0.46,0.44,0.61,0.771c0.16,0.34,0.23,0.74,0.23,1.21
				C174.329,478.247,174.259,478.658,174.099,478.997z"/>
			<path style="fill:#C4C4C4;" d="M182.919,478.917c-0.17,0-0.3,0.04-0.39,0.12c-0.22,0.2-0.4,0.37-0.53,0.49
				c-0.14,0.12-0.29,0.23-0.45,0.34c-0.17,0.1-0.33,0.18-0.51,0.229c-0.17,0.051-0.36,0.07-0.57,0.07c-0.32,0-0.6-0.08-0.86-0.229
				c-0.26-0.15-0.47-0.381-0.63-0.69c-0.16-0.3-0.24-0.66-0.24-1.05h3.44c0.46,0,0.81-0.07,1.07-0.2c0.25-0.13,0.38-0.42,0.38-0.86
				c0-0.479-0.13-0.939-0.37-1.4c-0.24-0.46-0.61-0.84-1.11-1.13c-0.49-0.29-1.08-0.431-1.76-0.431c-0.53,0-1.01,0.08-1.44,0.25
				c-0.44,0.17-0.8,0.42-1.1,0.73c-0.29,0.32-0.52,0.7-0.67,1.149c-0.16,0.44-0.24,0.921-0.24,1.44c0,1.1,0.32,1.98,0.94,2.62
				c0.63,0.64,1.51,0.97,2.64,0.97c0.49,0,0.93-0.07,1.31-0.2c0.38-0.13,0.69-0.29,0.94-0.479c0.25-0.2,0.44-0.4,0.57-0.61
				c0.12-0.22,0.18-0.399,0.18-0.56c0-0.181-0.05-0.32-0.16-0.42C183.239,478.967,183.099,478.917,182.919,478.917z
				 M179.249,475.847c0.28-0.3,0.64-0.449,1.08-0.449c0.46,0,0.83,0.149,1.11,0.449c0.28,0.301,0.44,0.75,0.49,1.351h-3.19
				C178.799,476.608,178.969,476.158,179.249,475.847z"/>
			<path style="fill:#C4C4C4;" d="M189.919,478.177c-0.18-0.25-0.44-0.47-0.79-0.649c-0.34-0.19-0.79-0.351-1.33-0.48
				c-0.46-0.109-0.82-0.21-1.08-0.28c-0.27-0.079-0.47-0.18-0.63-0.3c-0.15-0.109-0.23-0.27-0.23-0.45c0-0.199,0.1-0.369,0.31-0.51
				c0.22-0.13,0.48-0.2,0.8-0.2c0.31,0,0.55,0.051,0.73,0.16c0.18,0.101,0.34,0.24,0.47,0.41c0.16,0.2,0.31,0.36,0.43,0.46
				c0.13,0.101,0.28,0.16,0.46,0.16c0.25,0,0.45-0.07,0.58-0.2c0.14-0.13,0.2-0.29,0.2-0.49c0-0.189-0.06-0.38-0.19-0.569
				c-0.12-0.19-0.31-0.37-0.55-0.53c-0.24-0.16-0.54-0.28-0.91-0.38c-0.36-0.09-0.77-0.14-1.22-0.14c-0.58,0-1.08,0.09-1.49,0.279
				c-0.41,0.19-0.72,0.44-0.93,0.75c-0.21,0.311-0.31,0.65-0.31,1c0,0.391,0.11,0.73,0.34,1c0.23,0.27,0.53,0.49,0.91,0.65
				c0.38,0.16,0.87,0.32,1.48,0.47c0.53,0.13,0.92,0.271,1.15,0.41c0.24,0.14,0.35,0.37,0.35,0.67c0,0.21-0.11,0.38-0.33,0.54
				c-0.23,0.16-0.52,0.24-0.87,0.24c-0.43,0-0.78-0.08-1.03-0.23c-0.25-0.16-0.46-0.39-0.65-0.71c-0.08-0.16-0.18-0.29-0.28-0.38
				c-0.1-0.09-0.24-0.13-0.42-0.13c-0.21,0-0.39,0.07-0.52,0.2c-0.14,0.14-0.21,0.31-0.21,0.5c0,0.29,0.11,0.58,0.32,0.87
				c0.22,0.29,0.55,0.529,1,0.729c0.45,0.19,0.99,0.29,1.62,0.29c0.66,0,1.22-0.09,1.68-0.27c0.47-0.181,0.82-0.44,1.05-0.79
				c0.24-0.34,0.35-0.761,0.35-1.24C190.179,478.717,190.099,478.427,189.919,478.177z"/>
			<path style="fill:#C4C4C4;" d="M192.599,474.457c-0.17-0.18-0.38-0.27-0.64-0.27c-0.26,0-0.47,0.09-0.63,0.27
				c-0.16,0.17-0.24,0.43-0.24,0.78v5.029c0,0.341,0.08,0.601,0.24,0.79c0.16,0.181,0.37,0.28,0.63,0.28c0.26,0,0.47-0.09,0.64-0.27
				c0.17-0.181,0.25-0.45,0.25-0.801v-5.079C192.849,474.877,192.769,474.627,192.599,474.457z M192.579,471.867
				c-0.17-0.14-0.37-0.22-0.6-0.22c-0.24,0-0.44,0.08-0.62,0.25c-0.18,0.159-0.27,0.359-0.27,0.609c0,0.28,0.09,0.49,0.26,0.641
				c0.18,0.149,0.39,0.22,0.63,0.22c0.24,0,0.44-0.07,0.61-0.22c0.17-0.16,0.26-0.37,0.26-0.641
				C192.849,472.228,192.759,472.017,192.579,471.867z"/>
			<path style="fill:#C4C4C4;" d="M200.379,474.517c-0.11-0.22-0.34-0.329-0.68-0.329c-0.23,0-0.43,0.09-0.58,0.25
				c-0.15,0.17-0.22,0.409-0.22,0.71v0.239c-0.31-0.409-0.65-0.71-1.02-0.9c-0.36-0.19-0.79-0.29-1.29-0.29
				c-0.42,0-0.8,0.08-1.15,0.229c-0.35,0.141-0.65,0.36-0.92,0.66c-0.26,0.29-0.47,0.65-0.61,1.07c-0.15,0.43-0.22,0.899-0.22,1.43
				c0,0.71,0.12,1.33,0.36,1.87c0.23,0.54,0.57,0.96,1.01,1.26c0.44,0.311,0.95,0.46,1.54,0.46c0.49,0,0.91-0.1,1.27-0.3
				c0.35-0.2,0.66-0.49,0.93-0.86c-0.01,0.57-0.02,0.99-0.04,1.25c-0.01,0.261-0.07,0.5-0.17,0.73c-0.1,0.23-0.28,0.4-0.53,0.53
				c-0.25,0.13-0.6,0.189-1.06,0.189c-0.22,0-0.42-0.02-0.59-0.06c-0.17-0.04-0.32-0.101-0.44-0.19c-0.12-0.08-0.24-0.18-0.34-0.3
				c-0.1-0.12-0.2-0.24-0.29-0.35c-0.19-0.23-0.42-0.34-0.68-0.34c-0.2,0-0.38,0.069-0.52,0.199c-0.15,0.141-0.22,0.31-0.22,0.53
				c0,0.28,0.13,0.55,0.38,0.82c0.26,0.27,0.63,0.489,1.1,0.66c0.48,0.17,1.02,0.25,1.63,0.25c0.66,0,1.21-0.061,1.65-0.2
				c0.45-0.13,0.81-0.33,1.08-0.61c0.28-0.27,0.48-0.62,0.6-1.04c0.12-0.42,0.19-0.92,0.19-1.51v-5.1
				C200.549,475.057,200.489,474.737,200.379,474.517z M198.589,478.927c-0.16,0.31-0.37,0.551-0.63,0.7
				c-0.26,0.16-0.54,0.24-0.83,0.24c-0.49,0-0.9-0.18-1.21-0.55c-0.31-0.36-0.46-0.9-0.46-1.61c0-0.71,0.15-1.25,0.45-1.63
				c0.3-0.38,0.7-0.58,1.21-0.58c0.51,0,0.93,0.2,1.24,0.6c0.32,0.4,0.48,0.96,0.48,1.681
				C198.839,478.228,198.749,478.608,198.589,478.927z"/>
			<path style="fill:#C4C4C4;" d="M207.899,476.037c-0.03-0.24-0.11-0.481-0.22-0.691c-0.18-0.369-0.45-0.649-0.82-0.859
				c-0.36-0.2-0.78-0.3-1.24-0.3c-0.48,0-0.9,0.1-1.27,0.29c-0.1,0.05-0.19,0.109-0.29,0.18c-0.25,0.18-0.49,0.42-0.72,0.72v-0.22
				c0-0.21-0.04-0.391-0.11-0.53c-0.08-0.149-0.18-0.26-0.3-0.33c-0.13-0.069-0.27-0.109-0.42-0.109c-0.25,0-0.45,0.079-0.6,0.25
				c-0.15,0.159-0.22,0.409-0.22,0.75v5.079c0,0.341,0.08,0.601,0.25,0.79c0.16,0.181,0.37,0.28,0.62,0.28
				c0.26,0,0.48-0.09,0.64-0.27c0.17-0.181,0.25-0.45,0.25-0.801v-2.199c0-0.721,0.04-1.21,0.13-1.471
				c0.12-0.33,0.31-0.58,0.56-0.77c0.26-0.19,0.55-0.28,0.86-0.28c0.48,0,0.8,0.15,0.96,0.46c0.16,0.31,0.24,0.75,0.24,1.33v2.93
				c0,0.341,0.09,0.601,0.25,0.79c0.16,0.181,0.37,0.28,0.64,0.28c0.25,0,0.46-0.09,0.62-0.27c0.17-0.181,0.25-0.45,0.25-0.801
				v-3.27C207.959,476.608,207.939,476.287,207.899,476.037z"/>
			<path style="fill:#C4C4C4;" d="M214.769,478.917c-0.17,0-0.29,0.04-0.38,0.12c-0.22,0.2-0.4,0.37-0.54,0.49
				c-0.14,0.12-0.29,0.23-0.45,0.34c-0.16,0.1-0.33,0.18-0.5,0.229c-0.17,0.051-0.35,0.07-0.55,0.07h-0.01c-0.01,0-0.01,0-0.02,0
				c-0.31,0-0.6-0.08-0.86-0.229c-0.26-0.15-0.47-0.381-0.62-0.69c-0.03-0.06-0.06-0.11-0.08-0.17v-0.01
				c-0.11-0.261-0.16-0.56-0.17-0.87h3.44c0.46,0,0.82-0.07,1.07-0.2c0.25-0.13,0.38-0.42,0.38-0.86c0-0.479-0.12-0.939-0.37-1.4
				c-0.24-0.46-0.61-0.84-1.1-1.13c-0.49-0.29-1.08-0.431-1.77-0.431c-0.53,0-1.01,0.08-1.44,0.25c-0.43,0.17-0.8,0.42-1.09,0.73
				c-0.3,0.32-0.53,0.7-0.68,1.149c-0.15,0.44-0.23,0.921-0.23,1.44c0,1.1,0.31,1.98,0.94,2.62c0.62,0.64,1.5,0.97,2.63,0.97
				c0.49,0,0.93-0.07,1.31-0.2c0.01,0,0.03-0.01,0.04-0.01c0.36-0.13,0.66-0.29,0.91-0.47c0.25-0.2,0.43-0.4,0.56-0.61
				c0.12-0.22,0.19-0.399,0.19-0.56c0-0.181-0.06-0.32-0.17-0.42C215.099,478.967,214.949,478.917,214.769,478.917z
				 M211.109,475.847c0.28-0.3,0.64-0.449,1.07-0.449c0.46,0,0.83,0.149,1.11,0.449c0.29,0.301,0.45,0.75,0.49,1.351h-3.19
				C210.649,476.608,210.819,476.158,211.109,475.847z"/>
			<path style="fill:#C4C4C4;" d="M222.639,471.827c-0.14-0.17-0.35-0.25-0.61-0.25c-0.271,0-0.48,0.09-0.62,0.27
				c-0.14,0.191-0.22,0.46-0.22,0.82v2.6c-0.33-0.359-0.66-0.63-1.01-0.81c-0.35-0.17-0.78-0.26-1.28-0.26
				c-0.88,0-1.58,0.31-2.12,0.92c-0.54,0.62-0.81,1.47-0.81,2.57c0,0.52,0.07,1,0.21,1.449c0.13,0.45,0.33,0.841,0.59,1.17
				c0.26,0.33,0.57,0.58,0.93,0.761c0.36,0.18,0.75,0.27,1.17,0.27c0.32,0,0.61-0.05,0.88-0.14c0.27-0.08,0.52-0.21,0.75-0.38
				c0.23-0.17,0.46-0.391,0.69-0.66v0.17c0,0.32,0.08,0.57,0.24,0.75c0.16,0.17,0.35,0.26,0.6,0.26c0.24,0,0.44-0.09,0.59-0.25
				c0.16-0.17,0.24-0.42,0.24-0.76v-7.75C222.859,472.247,222.779,471.997,222.639,471.827z M220.869,478.997
				c-0.15,0.33-0.36,0.58-0.61,0.74c-0.26,0.16-0.54,0.24-0.85,0.24c-0.3,0-0.58-0.091-0.84-0.261c-0.26-0.17-0.46-0.42-0.61-0.75
				c-0.15-0.34-0.22-0.739-0.22-1.22c0-0.45,0.07-0.85,0.21-1.19c0.14-0.34,0.33-0.6,0.59-0.779c0.25-0.181,0.54-0.28,0.86-0.28
				c0.31,0,0.59,0.09,0.85,0.27c0.26,0.181,0.47,0.44,0.62,0.771c0.15,0.34,0.23,0.74,0.23,1.21
				C221.099,478.247,221.019,478.658,220.869,478.997z"/>
			<path style="fill:#C4C4C4;" d="M233.219,475.818c-0.24-0.521-0.58-0.92-1.02-1.2c-0.44-0.28-0.95-0.42-1.54-0.42
				c-0.5,0-0.93,0.1-1.27,0.28c-0.35,0.18-0.68,0.439-1.01,0.789v-2.689c0-0.32-0.08-0.57-0.22-0.74c-0.15-0.18-0.36-0.26-0.63-0.26
				c-0.25,0-0.45,0.09-0.6,0.27c-0.14,0.181-0.21,0.45-0.21,0.811v7.67c0,0.33,0.07,0.58,0.22,0.75c0.15,0.17,0.34,0.26,0.59,0.26
				s0.45-0.09,0.61-0.26c0.16-0.17,0.24-0.42,0.24-0.75v-0.17c0.19,0.22,0.35,0.39,0.46,0.5c0.12,0.109,0.26,0.22,0.43,0.33
				c0.17,0.1,0.37,0.19,0.61,0.25c0.24,0.06,0.49,0.1,0.76,0.1c0.44,0,0.85-0.09,1.22-0.27c0.36-0.181,0.68-0.431,0.93-0.761
				c0.26-0.319,0.46-0.71,0.59-1.149c0.14-0.45,0.2-0.93,0.2-1.47C233.579,476.967,233.459,476.347,233.219,475.818z
				 M231.339,479.398c-0.32,0.39-0.7,0.58-1.14,0.58c-0.52,0-0.94-0.19-1.26-0.57c-0.32-0.37-0.48-0.91-0.48-1.61
				c0-0.47,0.08-0.89,0.23-1.229c0.15-0.351,0.35-0.61,0.61-0.79c0.27-0.181,0.56-0.28,0.9-0.28c0.32,0,0.61,0.1,0.85,0.28
				c0.25,0.18,0.44,0.439,0.57,0.77c0.13,0.34,0.2,0.74,0.2,1.2C231.819,478.467,231.659,479.017,231.339,479.398z"/>
			<path style="fill:#C4C4C4;" d="M240.009,474.577c-0.07-0.12-0.16-0.21-0.28-0.28c-0.12-0.069-0.25-0.109-0.38-0.109
				c-0.19,0-0.33,0.029-0.43,0.1c-0.1,0.059-0.2,0.19-0.29,0.37c-0.09,0.189-0.19,0.439-0.3,0.77l-1.41,4.021l-1.49-4.33
				c-0.1-0.3-0.21-0.53-0.34-0.69c-0.13-0.16-0.32-0.239-0.57-0.239c-0.15,0-0.29,0.04-0.42,0.119c-0.14,0.07-0.25,0.181-0.32,0.311
				c-0.08,0.12-0.12,0.26-0.12,0.41c0,0.149,0.07,0.37,0.2,0.689l2.16,5.44l-0.16,0.399c-0.12,0.28-0.22,0.5-0.32,0.65
				c-0.09,0.15-0.19,0.25-0.31,0.31c-0.11,0.061-0.27,0.091-0.47,0.091c-0.09,0-0.18-0.011-0.29-0.04
				c-0.09-0.021-0.19-0.04-0.28-0.04c-0.24,0-0.42,0.06-0.54,0.17c-0.13,0.109-0.19,0.26-0.19,0.46c0,0.3,0.13,0.5,0.39,0.62
				c0.26,0.109,0.64,0.16,1.16,0.16c0.521,0,0.94-0.08,1.25-0.24c0.32-0.16,0.57-0.391,0.75-0.69c0.19-0.3,0.39-0.71,0.58-1.24
				l2.3-6c0.05-0.159,0.1-0.31,0.14-0.46c0.039-0.149,0.06-0.269,0.08-0.35C240.109,474.827,240.079,474.698,240.009,474.577z"/>
		</g>
		<g>
			<path style="fill:#C4C4C4;" d="M261.319,474.34h0.419v-0.527c0-0.552,0.067-0.987,0.207-1.313
				c0.139-0.324,0.377-0.561,0.71-0.708c0.332-0.147,0.788-0.222,1.367-0.222c1.029,0,1.54,0.249,1.54,0.755
				c0,0.162-0.054,0.302-0.163,0.417c-0.104,0.115-0.232,0.174-0.378,0.174c-0.067,0-0.188-0.013-0.357-0.04
				c-0.161-0.022-0.307-0.038-0.422-0.038c-0.317,0-0.52,0.096-0.614,0.281c-0.086,0.187-0.132,0.453-0.132,0.803v0.418h0.429
				c0.672,0,1.004,0.201,1.004,0.607c0,0.284-0.086,0.468-0.267,0.545c-0.177,0.078-0.423,0.116-0.737,0.116h-0.429v4.656
				c0,0.347-0.082,0.61-0.25,0.792c-0.164,0.185-0.376,0.275-0.639,0.275c-0.249,0-0.455-0.091-0.622-0.275
				c-0.166-0.182-0.247-0.445-0.247-0.792v-4.656h-0.484c-0.263,0-0.462-0.057-0.605-0.178c-0.142-0.115-0.213-0.271-0.213-0.459
				C260.435,474.549,260.73,474.34,261.319,474.34L261.319,474.34z"/>
			<path style="fill:#C4C4C4;" d="M267.072,478.796v1.469c0,0.355-0.09,0.623-0.253,0.8c-0.168,0.18-0.379,0.268-0.636,0.268
				c-0.259,0-0.466-0.089-0.628-0.272c-0.16-0.179-0.244-0.444-0.244-0.796v-4.895c0-0.79,0.284-1.186,0.854-1.186
				c0.294,0,0.503,0.092,0.633,0.276c0.128,0.185,0.199,0.457,0.215,0.819c0.208-0.362,0.423-0.634,0.643-0.819
				c0.225-0.185,0.517-0.276,0.888-0.276c0.372,0,0.727,0.092,1.074,0.276c0.349,0.185,0.522,0.432,0.522,0.735
				c0,0.214-0.075,0.394-0.221,0.53c-0.149,0.142-0.308,0.211-0.479,0.211c-0.067,0-0.225-0.043-0.47-0.122
				c-0.247-0.077-0.467-0.117-0.652-0.117c-0.258,0-0.47,0.069-0.632,0.202c-0.164,0.139-0.291,0.337-0.382,0.601
				c-0.088,0.268-0.148,0.587-0.185,0.952C267.088,477.821,267.072,478.269,267.072,478.796L267.072,478.796z"/>
			<path style="fill:#C4C4C4;" d="M275.889,478.917c-0.16,0-0.29,0.04-0.38,0.12c-0.22,0.2-0.399,0.37-0.54,0.479
				c-0.14,0.131-0.279,0.24-0.449,0.341c-0.16,0.109-0.33,0.189-0.5,0.229c-0.181,0.061-0.37,0.08-0.58,0.08
				c-0.311,0-0.601-0.08-0.86-0.229c-0.26-0.16-0.47-0.391-0.63-0.69c-0.15-0.3-0.23-0.66-0.24-1.06h3.44
				c0.46,0,0.819-0.061,1.069-0.19c0.25-0.14,0.38-0.42,0.38-0.86c0-0.479-0.12-0.939-0.37-1.409c-0.239-0.461-0.609-0.83-1.1-1.12
				c-0.49-0.29-1.08-0.431-1.77-0.431c-0.53,0-1.011,0.08-1.44,0.25c-0.43,0.17-0.8,0.41-1.09,0.73c-0.3,0.32-0.53,0.7-0.68,1.14
				c-0.16,0.45-0.23,0.931-0.23,1.45c0,1.1,0.31,1.98,0.94,2.62c0.619,0.64,1.5,0.96,2.63,0.96c0.489,0,0.93-0.061,1.31-0.19
				c0.38-0.13,0.7-0.29,0.95-0.479c0.25-0.2,0.44-0.4,0.57-0.62c0.12-0.21,0.18-0.39,0.18-0.55c0-0.181-0.06-0.32-0.17-0.42
				C276.219,478.967,276.069,478.917,275.889,478.917z M272.228,475.847c0.28-0.3,0.641-0.449,1.07-0.449
				c0.471,0,0.83,0.149,1.12,0.449c0.28,0.29,0.44,0.74,0.48,1.341h-3.19C271.77,476.597,271.939,476.158,272.228,475.847z"/>
			<path style="fill:#C4C4C4;" d="M283.199,478.917c-0.16,0-0.29,0.04-0.38,0.12c-0.221,0.2-0.4,0.37-0.54,0.479
				c-0.141,0.131-0.28,0.24-0.45,0.341c-0.16,0.109-0.33,0.189-0.51,0.229c-0.17,0.061-0.36,0.08-0.57,0.08
				c-0.31,0-0.6-0.08-0.86-0.229c-0.26-0.16-0.47-0.391-0.619-0.69c-0.16-0.3-0.24-0.66-0.25-1.06h3.44c0.46,0,0.82-0.061,1.07-0.19
				c0.25-0.14,0.38-0.42,0.38-0.86c0-0.479-0.12-0.939-0.37-1.409c-0.24-0.461-0.61-0.83-1.1-1.12c-0.5-0.29-1.08-0.431-1.771-0.431
				c-0.53,0-1.01,0.08-1.44,0.25c-0.439,0.17-0.8,0.41-1.09,0.73c-0.3,0.32-0.529,0.7-0.68,1.14c-0.16,0.45-0.24,0.931-0.24,1.45
				c0,1.1,0.32,1.98,0.95,2.62c0.62,0.64,1.5,0.96,2.63,0.96c0.49,0,0.93-0.061,1.311-0.19c0.38-0.13,0.699-0.29,0.949-0.479
				c0.25-0.2,0.44-0.4,0.56-0.62c0.13-0.21,0.18-0.39,0.18-0.55c0-0.181-0.05-0.32-0.16-0.42
				C283.529,478.967,283.379,478.917,283.199,478.917z M279.529,475.847c0.29-0.3,0.649-0.449,1.08-0.449
				c0.46,0,0.83,0.149,1.119,0.449c0.28,0.29,0.44,0.74,0.481,1.341h-3.19C279.079,476.597,279.249,476.158,279.529,475.847z"/>
			<path style="fill:#C4C4C4;" d="M291.509,477.537c-0.02-0.65-0.149-1.21-0.38-1.7c-0.27-0.53-0.63-0.939-1.08-1.22
				c-0.46-0.28-0.96-0.42-1.5-0.42c-0.45,0-0.85,0.1-1.2,0.29c-0.359,0.19-0.71,0.49-1.04,0.9v-0.21c0-0.33-0.069-0.569-0.229-0.739
				c-0.16-0.171-0.36-0.25-0.61-0.25s-0.449,0.079-0.6,0.239c-0.15,0.17-0.22,0.42-0.22,0.761v7.579c0,0.391,0.06,0.671,0.159,0.881
				c0.11,0.189,0.33,0.29,0.66,0.29c0.561,0,0.84-0.391,0.84-1.16v-2.63c0.181,0.22,0.36,0.409,0.551,0.569
				c0.14,0.12,0.279,0.221,0.43,0.311c0.34,0.2,0.76,0.3,1.26,0.3c0.42,0,0.811-0.08,1.17-0.24c0.37-0.17,0.681-0.41,0.95-0.71
				c0.26-0.31,0.47-0.689,0.63-1.14c0.15-0.45,0.221-0.95,0.221-1.49C291.52,477.677,291.52,477.608,291.509,477.537z
				 M289.529,478.957c-0.15,0.34-0.34,0.59-0.601,0.76c-0.239,0.17-0.52,0.261-0.81,0.261c-0.06,0-0.12,0-0.17-0.021
				c-0.42-0.03-0.771-0.229-1.06-0.57c-0.33-0.38-0.489-0.93-0.489-1.63c0-0.74,0.159-1.3,0.5-1.69c0.329-0.38,0.739-0.57,1.22-0.57
				c0.31,0,0.59,0.09,0.84,0.27c0.25,0.181,0.44,0.431,0.58,0.771c0.15,0.33,0.22,0.729,0.22,1.19c0,0.43-0.06,0.8-0.19,1.109
				C289.559,478.877,289.549,478.917,289.529,478.957z"/>
			<path style="fill:#C4C4C4;" d="M293.909,474.448c-0.17-0.181-0.38-0.26-0.64-0.26c-0.25,0-0.461,0.079-0.62,0.26
				c-0.16,0.18-0.25,0.439-0.25,0.79v5.029c0,0.341,0.09,0.601,0.25,0.79c0.159,0.181,0.37,0.271,0.62,0.271
				c0.26,0,0.47-0.08,0.64-0.271c0.17-0.18,0.25-0.439,0.25-0.79v-5.079C294.159,474.867,294.079,474.627,293.909,474.448z
				 M293.899,471.867c-0.181-0.15-0.38-0.22-0.61-0.22c-0.23,0-0.44,0.08-0.62,0.239c-0.18,0.16-0.27,0.37-0.27,0.62
				c0,0.27,0.09,0.48,0.27,0.63c0.17,0.15,0.38,0.23,0.62,0.23c0.24,0,0.439-0.08,0.62-0.23c0.17-0.15,0.25-0.359,0.25-0.63
				C294.159,472.228,294.069,472.007,293.899,471.867z"/>
			<path style="fill:#C4C4C4;" d="M299.827,480.53l-1.548-2.552l-0.954,0.9v1.399c0,0.339-0.09,0.598-0.269,0.779
				c-0.175,0.185-0.384,0.275-0.614,0.275c-0.271,0-0.484-0.089-0.638-0.272c-0.153-0.179-0.232-0.444-0.232-0.796v-7.498
				c0-0.388,0.077-0.685,0.224-0.89c0.151-0.207,0.369-0.307,0.646-0.307c0.271,0,0.483,0.093,0.643,0.279
				c0.158,0.183,0.239,0.456,0.239,0.814v4.265l1.977-2.075c0.245-0.255,0.429-0.435,0.56-0.527
				c0.128-0.095,0.283-0.142,0.467-0.142c0.221,0,0.402,0.07,0.553,0.209c0.143,0.14,0.217,0.316,0.217,0.524
				c0,0.257-0.239,0.602-0.715,1.031l-0.933,0.855l1.802,2.835c0.131,0.213,0.229,0.368,0.287,0.479
				c0.058,0.107,0.088,0.217,0.088,0.313c0,0.28-0.077,0.498-0.23,0.661c-0.152,0.161-0.354,0.24-0.601,0.24
				c-0.214,0-0.382-0.055-0.497-0.174C300.185,481.041,300.024,480.831,299.827,480.53L299.827,480.53z"/>
			<path style="fill:#C4C4C4;" d="M303.646,481.332c-0.265,0-0.492-0.086-0.686-0.258c-0.192-0.169-0.291-0.411-0.291-0.722
				c0-0.262,0.094-0.487,0.278-0.675c0.186-0.19,0.412-0.283,0.684-0.283c0.268,0,0.498,0.094,0.692,0.279
				c0.19,0.186,0.286,0.414,0.286,0.679c0,0.307-0.097,0.547-0.286,0.718C304.129,481.246,303.903,481.332,303.646,481.332
				L303.646,481.332z"/>
			<path style="fill:#C4C4C4;" d="M312.389,479.156c0,0.218-0.066,0.453-0.197,0.701c-0.13,0.251-0.331,0.486-0.601,0.712
				c-0.268,0.225-0.604,0.408-1.013,0.544c-0.407,0.137-0.868,0.208-1.376,0.208c-1.089,0-1.938-0.318-2.547-0.949
				c-0.607-0.635-0.912-1.484-0.912-2.549c0-0.723,0.138-1.359,0.419-1.914c0.276-0.552,0.681-0.98,1.208-1.283
				c0.527-0.304,1.162-0.454,1.894-0.454c0.456,0,0.873,0.066,1.255,0.2c0.38,0.132,0.7,0.306,0.966,0.515
				c0.262,0.213,0.465,0.436,0.604,0.672c0.14,0.238,0.208,0.462,0.208,0.669c0,0.209-0.077,0.388-0.232,0.534
				c-0.159,0.146-0.35,0.22-0.568,0.22c-0.148,0-0.27-0.039-0.367-0.113c-0.097-0.076-0.206-0.196-0.324-0.367
				c-0.215-0.324-0.438-0.57-0.675-0.731c-0.232-0.164-0.528-0.245-0.89-0.245c-0.517,0-0.939,0.202-1.257,0.608
				c-0.316,0.403-0.477,0.962-0.477,1.663c0,0.331,0.043,0.637,0.124,0.913c0.079,0.276,0.197,0.513,0.353,0.708
				c0.156,0.194,0.342,0.342,0.561,0.443c0.22,0.104,0.461,0.152,0.721,0.152c0.353,0,0.655-0.081,0.905-0.244
				c0.255-0.163,0.477-0.411,0.669-0.747c0.107-0.197,0.222-0.351,0.345-0.463c0.124-0.111,0.277-0.169,0.458-0.169
				c0.215,0,0.393,0.083,0.533,0.245C312.316,478.798,312.389,478.974,312.389,479.156L312.389,479.156z"/>
			<path style="fill:#C4C4C4;" d="M319.728,476.307c-0.159-0.43-0.39-0.81-0.699-1.13c-0.311-0.319-0.681-0.56-1.11-0.729
				c-0.44-0.181-0.92-0.26-1.45-0.26c-0.529,0-1.01,0.079-1.439,0.25c-0.431,0.17-0.801,0.409-1.11,0.729
				c-0.3,0.311-0.54,0.69-0.7,1.13c-0.16,0.44-0.24,0.931-0.24,1.46c0,0.53,0.08,1.01,0.231,1.45c0.17,0.43,0.4,0.81,0.72,1.13
				c0.3,0.32,0.681,0.57,1.101,0.74c0.42,0.17,0.899,0.26,1.439,0.26c0.53,0,1.01-0.09,1.45-0.26c0.42-0.17,0.79-0.41,1.101-0.73
				c0.31-0.319,0.55-0.699,0.709-1.14c0.16-0.44,0.24-0.93,0.24-1.45C319.969,477.228,319.889,476.747,319.728,476.307z
				 M317.739,479.417c-0.32,0.41-0.74,0.61-1.271,0.61c-0.359,0-0.66-0.09-0.92-0.27c-0.26-0.19-0.46-0.45-0.6-0.8
				c-0.141-0.34-0.21-0.74-0.21-1.2c0-0.46,0.069-0.87,0.21-1.22c0.14-0.34,0.34-0.61,0.609-0.79c0.261-0.17,0.56-0.26,0.91-0.26
				c0.53,0,0.95,0.2,1.271,0.6c0.31,0.4,0.47,0.96,0.47,1.67C318.209,478.467,318.049,479.017,317.739,479.417z"/>
			<path style="fill:#C4C4C4;" d="M326.677,477.889v2.336c0,0.371-0.082,0.644-0.251,0.832c-0.169,0.185-0.387,0.276-0.662,0.276
				c-0.267,0-0.484-0.092-0.645-0.276c-0.168-0.188-0.252-0.461-0.252-0.832v-2.8c0-0.442-0.015-0.787-0.043-1.033
				c-0.031-0.239-0.114-0.443-0.246-0.598c-0.133-0.16-0.345-0.238-0.631-0.238c-0.576,0-0.953,0.196-1.136,0.597
				c-0.182,0.391-0.275,0.958-0.275,1.699v2.373c0,0.364-0.083,0.642-0.245,0.829c-0.169,0.186-0.385,0.279-0.654,0.279
				c-0.268,0-0.485-0.094-0.655-0.279c-0.17-0.188-0.255-0.465-0.255-0.829v-5.028c0-0.331,0.076-0.583,0.228-0.753
				c0.155-0.174,0.356-0.259,0.602-0.259c0.242,0,0.441,0.084,0.605,0.241c0.16,0.161,0.24,0.384,0.24,0.667v0.166
				c0.308-0.362,0.634-0.631,0.978-0.8c0.351-0.177,0.733-0.262,1.161-0.262c0.441,0,0.82,0.089,1.137,0.264
				c0.318,0.177,0.579,0.444,0.787,0.798c0.298-0.358,0.616-0.625,0.955-0.8c0.339-0.175,0.714-0.262,1.127-0.262
				c0.479,0,0.896,0.097,1.242,0.284c0.346,0.189,0.605,0.46,0.778,0.81c0.149,0.32,0.224,0.82,0.224,1.503v3.431
				c0,0.371-0.083,0.644-0.249,0.832c-0.167,0.185-0.39,0.276-0.664,0.276c-0.268,0-0.483-0.094-0.653-0.279
				c-0.17-0.188-0.255-0.465-0.255-0.829v-2.956c0-0.378-0.017-0.68-0.047-0.906c-0.032-0.228-0.12-0.421-0.26-0.574
				c-0.144-0.154-0.359-0.232-0.646-0.232c-0.232,0-0.452,0.072-0.66,0.208c-0.208,0.135-0.371,0.323-0.488,0.551
				C326.743,476.612,326.677,477.137,326.677,477.889L326.677,477.889z"/>
		</g>
		<g>
			<path style="fill:#C4C4C4;" d="M244.872,477.334c-0.001-0.003-0.001-0.006-0.001-0.012
				C244.871,477.328,244.871,477.331,244.872,477.334z"/>
			<path style="fill:#C4C4C4;" d="M244.961,477.897c0.001,0,0.001,0,0.002,0c-0.034-0.16-0.06-0.319-0.081-0.476
				C244.903,477.579,244.929,477.738,244.961,477.897z"/>
			<path style="fill:#C4C4C4;" d="M245.542,479.528c-0.004-0.007-0.007-0.015-0.012-0.022
				C245.535,479.513,245.539,479.521,245.542,479.528z"/>
			<path style="fill:#C4C4C4;" d="M245.487,479.419c-0.015-0.03-0.03-0.061-0.044-0.091
				C245.457,479.36,245.472,479.389,245.487,479.419z"/>
			<path style="fill:#C4C4C4;" d="M245.124,478.525c0.086,0.271,0.19,0.534,0.31,0.785c-0.122-0.256-0.224-0.52-0.308-0.785
				C245.126,478.525,245.125,478.525,245.124,478.525z"/>
			<path style="fill:#C4C4C4;" d="M251.675,470.601c0.34,0,0.59,0.026,0.878,0.075l0.081-0.517c0,0-0.794-0.244-1.837-0.159
				l-0.082-0.281c0.324-0.068,0.567-0.357,0.567-0.701c0-0.395-0.321-0.714-0.716-0.714c-0.396,0-0.716,0.319-0.716,0.714
				c0,0.345,0.243,0.633,0.567,0.701l0.09,0.314c-1.107,0.152-1.989,0.585-1.989,0.585l0.156,0.478
				c0.67-0.224,1.251-0.358,1.778-0.416C250.97,470.624,251.358,470.601,251.675,470.601z"/>
			<path style="fill:#C4C4C4;" d="M245.529,473.215l0.004-0.005c0.026-0.034,0.051-0.065,0.077-0.097l-0.212-0.153l-0.331-0.241
				c-0.019,0.025-0.539,0.504-0.95,1.388c-0.018-0.027-0.038-0.055-0.061-0.081c-0.123-0.134-0.295-0.202-0.514-0.198
				c-0.003,0-0.006,0-0.01,0c-0.135,0-0.228-0.046-0.289-0.101c0.061-0.076,0.097-0.173,0.097-0.28c0-0.249-0.203-0.453-0.454-0.453
				c-0.249,0-0.453,0.204-0.453,0.453c0,0.251,0.204,0.454,0.453,0.454c0.04,0,0.077-0.007,0.113-0.014
				c0.111,0.123,0.288,0.231,0.547,0.225c0.133-0.001,0.231,0.033,0.296,0.105c0.075,0.082,0.1,0.2,0.108,0.29
				c-0.001,0.001-0.001,0.003-0.002,0.003c-0.295,0.807-0.211,1.81-0.211,1.81l0.716,0.028c0.015-0.365,0.067-1.004,0.252-1.512
				C245.064,473.856,245.511,473.241,245.529,473.215z"/>
			<path style="fill:#C4C4C4;" d="M257.909,471.199c-0.249,0-0.453,0.202-0.453,0.453c0,0.039,0.006,0.076,0.016,0.112
				c-0.124,0.112-0.232,0.29-0.228,0.549c0.002,0.134-0.032,0.23-0.104,0.296c-0.058,0.051-0.13,0.078-0.2,0.096
				c-0.533-0.747-1.19-1.203-1.19-1.203l-0.514,0.551c0.389,0.353,0.785,0.797,1.171,1.349c0.267,0.382,0.542,0.875,0.77,1.366
				l0.693-0.33c0,0-0.316-0.783-0.763-1.485c0.077-0.027,0.155-0.069,0.225-0.13c0.136-0.123,0.202-0.296,0.198-0.514
				c-0.001-0.142,0.045-0.236,0.101-0.3c0.077,0.06,0.174,0.098,0.279,0.098c0.252,0,0.454-0.204,0.454-0.454
				C258.363,471.402,258.161,471.199,257.909,471.199z"/>
			<path style="fill:#C4C4C4;" d="M256.108,477.436c-0.955,0.466-2.527,1.08-4.596,1.369c-0.812,0.112-1.599,0.154-2.324,0.154
				c-0.942,0-1.775-0.07-2.414-0.151c-0.729-0.092-1.3-0.204-1.648-0.283c0.084,0.266,0.186,0.529,0.308,0.785
				c0.002,0.007,0.005,0.014,0.008,0.019c0.015,0.029,0.029,0.06,0.044,0.091c0.015,0.029,0.029,0.059,0.044,0.086
				c0.004,0.008,0.008,0.016,0.012,0.022c0.205,0.387,0.452,0.742,0.732,1.05c0.976,1.067,1.97,1.236,1.98,1.237l0.016,0.002
				l0.015,0.005c0.009,0.004,0.89,0.288,2.23,0.288c1.319,0,2.613-0.266,3.845-0.791c0.913-0.467,1.777-1.177,2.205-1.81
				c0.331-0.489,0.57-1.012,0.712-1.555c0.075-0.288,0.135-0.75,0.1-1.236C257.108,476.899,256.684,477.155,256.108,477.436z"/>
			<path style="fill:#C4C4C4;" d="M256.089,473.617c-1.35-1.94-2.819-2.44-3.569-2.561c-0.29-0.05-0.52-0.069-0.841-0.069
				c-0.31,0-0.68,0.02-1.189,0.069c-0.5,0.051-1.06,0.19-1.71,0.41c-0.92,0.3-1.74,0.78-2.39,1.38l-0.02,0.021
				c-0.1,0.09-0.3,0.28-0.53,0.57c-0.03,0.04-0.45,0.63-0.77,1.529c-0.25,0.681-0.24,1.66-0.24,1.67c0,0.23,0.02,0.46,0.04,0.69
				c0,0,0,0,0,0.01c0.01,0.03,0.01,0.05,0.01,0.08c0.02,0.16,0.05,0.32,0.08,0.48c0.48,0.119,3.31,0.779,6.47,0.34
				c1.99-0.28,3.49-0.86,4.41-1.31c0.76-0.359,1.25-0.699,1.44-0.84C257.089,475.398,256.569,474.297,256.089,473.617z
				 M248.569,476.757c-1.06,0-1.91-0.85-1.91-1.91c0-1.05,0.85-1.899,1.91-1.899c1.05,0,1.91,0.85,1.91,1.899
				C250.479,475.908,249.619,476.757,248.569,476.757z M254.149,475.358c-0.65,0-1.181-0.53-1.181-1.19c0-0.65,0.53-1.18,1.181-1.18
				c0.649,0,1.18,0.529,1.18,1.18C255.329,474.827,254.799,475.358,254.149,475.358z"/>
		</g>
	</g>
</g>
</svg>
